<svg width="80" height="57" viewBox="0 0 80 57" fill="none" xmlns="http://www.w3.org/2000/svg">
<path d="M18.3416 56.008C29.2136 56.008 36.3416 46.504 36.3416 28.144C36.3416 9.784 29.2136 0.711999 18.3416 0.711999C7.46956 0.711999 0.269563 9.712 0.269563 28.144C0.269563 46.504 7.46956 56.008 18.3416 56.008ZM18.3416 47.728C13.7336 47.728 10.2776 43.12 10.2776 28.144C10.2776 13.24 13.7336 8.92 18.3416 8.92C22.9496 8.92 26.3336 13.24 26.3336 28.144C26.3336 43.12 22.9496 47.728 18.3416 47.728ZM51.308 33.112L59.588 19.864C61.1 16.984 62.54 14.032 63.836 11.152H64.124C63.98 14.32 63.764 19.144 63.764 22.24V33.112H51.308ZM63.764 55H73.628V41.176H79.892V33.112H73.628V1.648H60.884L41.012 33.976V41.176H63.764V55Z" fill="#EB5757"/>
</svg>
