<svg width="79" height="57" viewBox="0 0 79 57" fill="none" xmlns="http://www.w3.org/2000/svg">
<path d="M18.3416 56.008C29.2136 56.008 36.3416 46.504 36.3416 28.144C36.3416 9.784 29.2136 0.711999 18.3416 0.711999C7.46956 0.711999 0.269563 9.712 0.269563 28.144C0.269563 46.504 7.46956 56.008 18.3416 56.008ZM18.3416 47.728C13.7336 47.728 10.2776 43.12 10.2776 28.144C10.2776 13.24 13.7336 8.92 18.3416 8.92C22.9496 8.92 26.3336 13.24 26.3336 28.144C26.3336 43.12 22.9496 47.728 18.3416 47.728ZM52.892 55H63.62C64.484 34.12 66.14 23.248 78.524 8.128V1.648H43.1V10.576H67.076C56.924 24.688 53.828 36.496 52.892 55Z" fill="#EB5757"/>
</svg>
