<svg width="76" height="57" viewBox="0 0 76 57" fill="none" xmlns="http://www.w3.org/2000/svg">
<path d="M0.00556266 55H32.0456V46.432H22.0376V1.648H14.1896C10.8056 3.808 7.13356 5.176 1.80556 6.184V12.736H11.4536V46.432H0.00556266V55ZM57.668 56.008C68.468 56.008 75.596 49.816 75.596 41.752C75.596 34.48 71.564 30.16 66.668 27.496V27.136C70.196 24.616 73.508 20.224 73.508 14.968C73.508 6.472 67.46 0.783998 58.028 0.783998C48.812 0.783998 41.972 6.256 41.972 14.824C41.972 20.512 44.924 24.544 49.028 27.496V27.856C44.06 30.448 39.884 34.912 39.884 41.752C39.884 50.104 47.516 56.008 57.668 56.008ZM61.052 24.544C55.436 22.312 51.332 19.864 51.332 14.824C51.332 10.576 54.212 8.2 57.812 8.2C62.276 8.2 64.868 11.296 64.868 15.616C64.868 18.784 63.644 21.808 61.052 24.544ZM57.956 48.52C52.988 48.52 49.028 45.424 49.028 40.6C49.028 36.64 51.044 33.04 53.924 30.736C60.836 33.544 65.732 35.848 65.732 41.392C65.732 46 62.492 48.52 57.956 48.52Z" fill="#EB5757"/>
</svg>
