<svg width="80" height="55" viewBox="0 0 80 55" fill="none" xmlns="http://www.w3.org/2000/svg">
<path d="M1.19756 55H36.9096V46.072H25.3896C22.8696 46.072 19.3416 46.36 16.6776 46.648C26.3976 37.144 34.3896 26.776 34.3896 17.128C34.3896 7.192 27.6936 0.711999 17.6136 0.711999C10.3416 0.711999 5.58956 3.52 0.693563 8.776L6.45356 14.536C9.18956 11.584 12.3576 9.064 16.2456 9.064C21.3576 9.064 24.2376 12.304 24.2376 17.704C24.2376 25.912 15.6696 35.92 1.19756 48.88V55ZM43.596 55H79.308V46.072H67.788C65.268 46.072 61.74 46.36 59.076 46.648C68.796 37.144 76.788 26.776 76.788 17.128C76.788 7.192 70.092 0.711999 60.012 0.711999C52.74 0.711999 47.988 3.52 43.092 8.776L48.852 14.536C51.588 11.584 54.756 9.064 58.644 9.064C63.756 9.064 66.636 12.304 66.636 17.704C66.636 25.912 58.068 35.92 43.596 48.88V55Z" fill="#EB5757"/>
</svg>
