<svg width="314" height="350" viewBox="0 0 314 350" fill="none" xmlns="http://www.w3.org/2000/svg">
<path d="M0 8C0 3.58172 3.58172 0 8 0H306C310.418 0 314 3.58172 314 8V342C314 346.418 310.418 350 306 350H8C3.58172 350 0 346.418 0 342V8Z" fill="#1C1E23"/>
<g clip-path="url(#clip0)">
<g clip-path="url(#clip1)">
<path opacity="0.18" d="M114.105 41.7708C107.414 42.2188 100.918 43.7603 95.0389 46.2955C89.1595 48.8306 84.0276 52.3028 79.9759 56.4869C72.0072 64.8422 68.937 75.3537 66.4993 85.6046C65.9493 88.6385 64.9339 91.6097 63.4751 94.454C60.5428 99.4941 54.9199 103.196 50.1709 107.301C38.074 117.786 31.8531 131.963 32.0026 146.005C32.0831 158.394 37.2806 177.001 52.8616 182.903C75.8082 191.523 101.841 193.742 126.627 189.192C142.254 186.281 157.398 180.675 173.462 180.972C189.526 181.268 204.647 187.467 220.699 188.078C229.784 188.35 238.812 186.842 246.962 183.693C255.111 180.544 262.124 175.853 267.362 170.047C271.867 164.69 275.219 158.794 277.285 152.591C279.997 145.119 281.564 137.423 281.954 129.663C283.127 104.966 261.9 81.0317 235.533 68.6874C176.658 41.1689 130.41 40.7646 114.105 41.7708Z" fill="#EB5757"/>
<path opacity="0.44" d="M255.141 163.801L270.365 165.942C271.097 165.976 271.804 166.218 272.406 166.641C272.805 167.07 273.054 167.62 273.116 168.206C273.178 168.792 273.05 169.383 272.751 169.888C272.118 170.881 271.273 171.717 270.278 172.335C273.887 173.208 280.169 173.019 279.997 178.232C279.947 179.194 279.63 180.122 279.084 180.91C278.537 181.698 277.782 182.315 276.906 182.688C275.814 183.065 274.666 183.247 273.513 183.227C262.257 183.62 250.828 184.013 239.931 181.145C237.847 180.606 235.388 179.412 235.388 177.242C235.388 176.47 235.719 175.786 235.762 174.97C236.007 170.034 225.599 172.932 222.925 173.092C216.973 173.441 211.021 173.674 205.07 173.834C192.908 174.169 180.746 174.155 168.598 173.98C164.758 173.797 160.91 173.958 157.098 174.461C154.108 174.97 151.204 175.917 148.271 176.659C138.607 179.15 128.551 179.674 118.686 178.203C114.215 177.533 108.723 175.101 109.011 170.529C109.255 166.612 113.654 164.573 117.406 163.554C122.953 162.069 128.591 160.96 134.283 160.233C144.355 159.104 154.484 158.594 164.616 158.704C186.626 158.53 208.635 158.515 230.659 158.501C238.062 158.442 247.809 162.767 255.141 163.801Z" fill="#EB5757"/>
<path d="M97 153.243C98.5876 155.036 100.58 156.423 102.811 157.289C112.616 161.834 122.876 166.046 133.665 166.986C149.538 168.365 165.094 162.789 180.044 157.304C178.531 157.546 173.099 152.759 171.707 151.789C168.968 149.986 166.274 148.107 163.581 146.259C159.298 143.334 153.957 142.349 148.873 141.562C137.397 139.821 125.674 140.823 114.659 144.486C108.386 146.548 102.44 149.497 97 153.243Z" fill="#EB5757"/>
<path d="M97 153.243C98.5876 155.036 100.58 156.423 102.811 157.289C112.616 161.834 122.876 166.046 133.665 166.986C149.538 168.365 165.094 162.789 180.044 157.304C178.531 157.546 173.099 152.759 171.707 151.789C168.968 149.986 166.274 148.107 163.581 146.259C159.298 143.334 153.957 142.349 148.873 141.562C137.397 139.821 125.674 140.823 114.659 144.486C108.386 146.548 102.44 149.497 97 153.243Z" fill="url(#paint0_linear)"/>
<path d="M149.175 122.774C143.122 116.334 136.903 109.804 129.322 105.198C121.741 100.592 112.48 98.0766 103.915 100.349L125.1 131.592C129.186 137.652 133.347 143.713 139.067 148.258C149.084 156.107 167.697 160.471 179.999 156.698C178.092 150.865 170.496 145.38 166.274 140.91L149.175 122.774Z" fill="#EB5757"/>
<path d="M149.175 122.774C143.122 116.334 136.903 109.804 129.322 105.198C121.741 100.592 112.48 98.0766 103.915 100.349L125.1 131.592C129.186 137.652 133.347 143.713 139.067 148.258C149.084 156.107 167.697 160.471 179.999 156.698C178.092 150.865 170.496 145.38 166.274 140.91L149.175 122.774Z" fill="#A93F3F"/>
<path d="M222.829 152.095H178.429L186.284 129.939H216.203L222.829 152.095Z" fill="#EB5757"/>
<path d="M222.829 152.095H178.429L186.284 129.939H216.203L222.829 152.095Z" fill="url(#paint1_linear)"/>
<path d="M234.997 154.059C233.298 155.762 232.637 158.241 233.262 160.564C233.887 162.886 235.704 164.699 238.028 165.318V166.857H157.024C153.556 166.857 150.48 164.632 149.395 161.338C149.121 160.521 148.982 159.665 148.982 158.803C148.98 156.67 149.827 154.623 151.335 153.115C152.844 151.606 154.89 150.759 157.024 150.761H238.028V152.299C236.88 152.607 235.834 153.215 234.997 154.059Z" fill="#EB5757"/>
<path d="M238.028 165.318V166.857H157.024C153.556 166.857 150.48 164.632 149.395 161.338C152.472 161.88 171.954 164.986 182.799 158.803L233.599 161.513C234.418 163.39 236.049 164.791 238.028 165.318Z" fill="#AA3F3F"/>
<path d="M234.997 154.059C233.298 155.762 232.637 158.241 233.262 160.564C233.887 162.886 235.704 164.699 238.028 165.318V165.546H189.53C187.079 165.618 184.783 164.351 183.536 162.24C182.29 160.129 182.29 157.506 183.536 155.395C184.783 153.284 187.079 152.017 189.53 152.09H238.028V152.311C236.881 152.616 235.835 153.219 234.997 154.059Z" fill="#F5F5F5"/>
<path d="M260.027 49.5H144.972C140.569 49.5 137 53.0693 137 57.4722V130.277C137 134.68 140.569 138.249 144.972 138.249H260.027C264.43 138.249 267.999 134.68 267.999 130.277V57.4722C267.999 53.0693 264.43 49.5 260.027 49.5Z" fill="#EB5757"/>
<path d="M268.001 57.4664V121.326H137.03V57.4664C137.03 53.0667 140.597 49.5 144.997 49.5H260.034C264.434 49.5 268.001 53.0667 268.001 57.4664Z" fill="#473F47"/>
<path d="M266.03 58.9874V119.193H138.987V58.9874C139.013 54.7412 142.474 51.3189 146.72 51.3414H258.296C262.542 51.3189 266.004 54.7412 266.03 58.9874Z" fill="#F5F5F5"/>
<path opacity="0.18" d="M266.03 58.9874V119.193H138.987V58.9874C139.013 54.7412 142.474 51.3189 146.72 51.3414H258.296C262.542 51.3189 266.004 54.7412 266.03 58.9874Z" fill="#F5F5F5"/>
<path fill-rule="evenodd" clip-rule="evenodd" d="M189.73 70.0565H203.241V72.228H183.698C179.838 72.228 175.19 74.932 175.012 83.8092C174.771 95.8729 178.149 99.4921 183.698 99.4921H187.8V91.7713C188.041 88.876 190.164 84.9673 194.797 84.7743C197.883 84.6457 201.487 84.6885 205.102 84.7313C206.913 84.7528 208.727 84.7743 210.48 84.7743C212.651 84.7743 216.994 82.5546 216.994 77.536V63.5421C216.351 61.5315 213.856 57.6947 204.448 57.5102C192.143 57.2689 189.73 61.3706 189.73 63.0595V70.0565ZM195.762 66.6787C197.094 66.6787 198.175 65.5985 198.175 64.266C198.175 62.9334 197.094 61.8532 195.762 61.8532C194.429 61.8532 193.349 62.9334 193.349 64.266C193.349 65.5985 194.429 66.6787 195.762 66.6787Z" fill="#345995"/>
<path fill-rule="evenodd" clip-rule="evenodd" d="M216.27 100.457L202.759 100.457L202.759 98.2857L222.302 98.2857C226.162 98.2857 230.81 95.5816 230.988 86.7045C231.229 74.6407 227.851 71.0216 222.302 71.0216L218.2 71.0216L218.2 78.7424C217.959 81.6377 215.836 85.5463 211.203 85.7394C208.117 85.868 204.513 85.8252 200.898 85.7824C199.087 85.7609 197.273 85.7394 195.52 85.7394C193.349 85.7394 189.006 87.9591 189.006 92.9776L189.006 106.972C189.649 108.982 192.144 112.819 201.552 113.003C213.857 113.245 216.27 109.143 216.27 107.454L216.27 100.457ZM210.239 103.835C208.906 103.835 207.826 104.915 207.826 106.248C207.826 107.58 208.906 108.66 210.239 108.66C211.571 108.66 212.651 107.58 212.651 106.248C212.651 104.915 211.571 103.835 210.239 103.835Z" fill="#F5BB00"/>
<path opacity="0.44" d="M79.5504 170.5C87.4644 170.5 95.6962 171.424 102.445 175.561C103.059 175.854 103.551 176.352 103.837 176.97C104.367 178.485 102.506 179.682 100.962 180.182C91.4949 183.009 81.6307 184.273 71.7574 183.924C65.174 183.772 58.6054 183.23 52.0858 182.303C49.799 182.177 47.5722 181.523 45.579 180.394C44.602 179.801 43.8401 178.91 43.4045 177.853C42.969 176.795 42.8825 175.625 43.1579 174.515C43.9599 172.273 46.5777 171.227 48.9534 171.106C59.0162 170.47 69.3816 170.545 79.5504 170.5Z" fill="#EB5757"/>
<path d="M81.112 179.422C79.367 180.531 76.3339 180.928 74.0001 179.422C75.367 172.031 74.0001 168.399 74.0001 168.399C74.8298 167.174 76.8685 165.293 78.3857 167.569C79.903 169.845 80.8354 176.419 81.112 179.422Z" fill="url(#paint2_linear)"/>
<path d="M88.0001 166.199C89.3039 163.551 92.9073 160.794 94.9934 163.828C97.0424 166.808 98.2259 172.575 99.0001 178.5C99.032 178.745 99.1031 179.122 99.0235 179.237C98.9817 179.298 98.6588 179.447 98.5001 179.5C97.0001 180 90.6757 179.474 90.6757 179.474C90.6757 179.474 90.2522 179.427 90.2522 179.237C90.2522 179.144 90.2606 178.483 90.2522 178C90.1699 173.309 89.1605 168.055 88.0001 166.199Z" fill="url(#paint3_linear)"/>
<path d="M47.9483 165.021C54.4281 167.747 74.1202 171.564 96.7835 165.021H47.9483Z" fill="url(#paint4_linear)"/>
<path d="M95.2426 149.019C95.2426 146 98.5531 143.173 101.999 143.33C105.271 143.479 108.163 146.5 108.163 149.019C108.163 152 107.435 158.065 103.5 162C100.5 165 92.9972 167.156 89.4345 165.495C86.4494 164.103 87.6518 158.857 90.2642 158.857C94.5001 158.857 95.2426 153 95.2426 149.019Z" fill="url(#paint5_linear)"/>
<circle cx="99.3912" cy="149.849" r="0.948256" fill="#433333"/>
<circle cx="103.895" cy="149.849" r="0.948256" fill="#433333"/>
<path d="M104.132 153.286H99.1541C99.3121 153.681 100.031 154.59 101.643 154.59C103.255 154.59 103.974 153.721 104.132 153.286Z" fill="#F5F5F5"/>
<path d="M55.1788 179.008C54.5001 181 46.8025 180.976 47.0001 179C47.1976 177.024 47.9483 171.849 49.3707 166.918C50.7931 161.987 53.5193 159.094 56.7197 159.094C59.9201 159.094 60.5127 162.058 60.5127 162.65C60.5127 163.243 60.1571 164.428 59.683 164.665C54.432 167.291 55.8575 177.016 55.1788 179.008Z" fill="url(#paint6_linear)"/>
<path d="M74.8551 179.008C74.8551 181.5 66.5272 180.5 66.6764 179.008C66.8256 177.516 67.6246 171.849 69.047 166.918C70.4694 161.987 73.1956 159.094 76.396 159.094C79.5964 159.094 80.189 162.058 80.189 162.65C80.189 163.243 79.8334 164.428 79.3593 164.665C74.1083 167.291 74.8551 176.516 74.8551 179.008Z" fill="url(#paint7_linear)"/>
<path d="M71.5362 142.5C55.1314 142.5 47.4742 156.131 47.4742 165.021H96.7835C94.887 155.894 86.5898 142.5 71.5362 142.5Z" fill="url(#paint8_linear)"/>
</g>
<path d="M34.896 225.5H36.656L38.4 218.428C38.592 217.5 38.8 216.652 38.992 215.756H39.056C39.248 216.652 39.424 217.5 39.632 218.428L41.408 225.5H43.184L45.616 213.756H44.192L42.96 220.156C42.736 221.404 42.512 222.668 42.288 223.948H42.208C41.936 222.668 41.664 221.404 41.376 220.156L39.744 213.756H38.384L36.768 220.156C36.48 221.42 36.192 222.684 35.92 223.948H35.856C35.632 222.684 35.392 221.42 35.168 220.156L33.936 213.756H32.416L34.896 225.5ZM51.0229 225.708C52.2069 225.708 53.1349 225.308 53.9029 224.812L53.3749 223.852C52.7349 224.284 52.0469 224.54 51.1989 224.54C49.5509 224.54 48.4149 223.356 48.3189 221.5H54.1749C54.2069 221.292 54.2389 220.988 54.2389 220.668C54.2389 218.188 52.9909 216.588 50.7829 216.588C48.7669 216.588 46.8629 218.348 46.8629 221.164C46.8629 224.028 48.7189 225.708 51.0229 225.708ZM48.3029 220.444C48.4789 218.748 49.5669 217.756 50.7989 217.756C52.1589 217.756 52.9589 218.7 52.9589 220.444H48.3029ZM59.8823 225.708C61.0663 225.708 61.9943 225.308 62.7623 224.812L62.2343 223.852C61.5943 224.284 60.9063 224.54 60.0583 224.54C58.4103 224.54 57.2743 223.356 57.1783 221.5H63.0343C63.0663 221.292 63.0983 220.988 63.0983 220.668C63.0983 218.188 61.8503 216.588 59.6423 216.588C57.6263 216.588 55.7223 218.348 55.7223 221.164C55.7223 224.028 57.5783 225.708 59.8823 225.708ZM57.1623 220.444C57.3383 218.748 58.4263 217.756 59.6583 217.756C61.0183 217.756 61.8183 218.7 61.8183 220.444H57.1623ZM65.2376 225.5H66.6776V223.212L68.3096 221.308L70.8536 225.5H72.4376L69.1576 220.316L72.0536 216.812H70.4216L66.7256 221.404H66.6776V212.764H65.2376V225.5ZM77.5799 225.5H84.0119V224.284H81.6599V214.092H80.5399C79.8999 214.476 79.1479 214.748 78.1079 214.924V215.868H80.1879V224.284H77.5799V225.5Z" fill="#6C7882"/>
<path d="M34.184 266.5H37.736V260.188H40.112C43.928 260.188 46.976 258.364 46.976 254.308C46.976 250.108 43.952 248.716 40.016 248.716H34.184V266.5ZM37.736 257.38V251.548H39.752C42.2 251.548 43.496 252.244 43.496 254.308C43.496 256.348 42.32 257.38 39.872 257.38H37.736ZM51.0798 271.9C54.0798 271.9 55.5198 270.076 56.6958 266.908L61.4718 253.06H58.0878L56.2398 259.3C55.9278 260.548 55.5918 261.844 55.2798 263.092H55.1598C54.7758 261.796 54.4398 260.5 54.0318 259.3L51.8958 253.06H48.3438L53.5758 266.26L53.3358 267.052C52.9518 268.228 52.1838 269.092 50.8158 269.092C50.5038 269.092 50.1198 268.996 49.8798 268.924L49.2318 271.636C49.7598 271.804 50.2878 271.9 51.0798 271.9ZM68.6051 266.836C69.7811 266.836 70.7171 266.572 71.4371 266.332L70.8611 263.764C70.5011 263.908 69.9731 264.052 69.5411 264.052C68.3411 264.052 67.7171 263.332 67.7171 261.796V255.844H71.0291V253.06H67.7171V249.436H64.7891L64.3811 253.06L62.2931 253.228V255.844H64.1891V261.796C64.1891 264.796 65.4131 266.836 68.6051 266.836ZM73.7632 266.5H77.2912V257.26C78.2752 256.276 78.9712 255.748 80.0752 255.748C81.3952 255.748 81.9712 256.468 81.9712 258.556V266.5H85.4992V258.124C85.4992 254.74 84.2512 252.724 81.3472 252.724C79.5232 252.724 78.2032 253.684 77.1232 254.692L77.2912 252.172V247.348H73.7632V266.5ZM94.7308 266.836C98.0908 266.836 101.187 264.244 101.187 259.78C101.187 255.316 98.0908 252.724 94.7308 252.724C91.3708 252.724 88.2748 255.316 88.2748 259.78C88.2748 264.244 91.3708 266.836 94.7308 266.836ZM94.7308 263.956C92.9068 263.956 91.8748 262.324 91.8748 259.78C91.8748 257.26 92.9068 255.604 94.7308 255.604C96.5548 255.604 97.5868 257.26 97.5868 259.78C97.5868 262.324 96.5548 263.956 94.7308 263.956ZM104.138 266.5H107.666V257.26C108.65 256.276 109.346 255.748 110.45 255.748C111.77 255.748 112.346 256.468 112.346 258.556V266.5H115.874V258.124C115.874 254.74 114.626 252.724 111.722 252.724C109.898 252.724 108.53 253.684 107.354 254.836H107.282L107.018 253.06H104.138V266.5ZM125.705 249.028C124.745 248.26 122.849 247.204 121.457 246.556L119.873 248.476C121.265 249.22 123.137 250.372 124.001 251.188L125.705 249.028ZM124.049 255.772C123.185 255.004 121.409 253.948 120.065 253.348L118.529 255.292C119.873 256.012 121.601 257.116 122.417 257.932L124.049 255.772ZM121.649 268.204C122.705 265.852 123.785 263.068 124.673 260.524L122.489 258.94C121.457 261.748 120.137 264.796 119.153 266.644L121.649 268.204ZM133.937 262.564L134.705 262.036C134.225 261.436 133.361 260.668 132.569 260.02H136.433C136.361 261.028 136.289 261.844 136.193 262.564H133.937ZM131.417 260.02L130.505 260.596C131.201 261.172 132.017 261.916 132.593 262.564H128.969C129.089 261.748 129.209 260.908 129.329 260.02H131.417ZM131.969 255.148L131.153 255.676C131.753 256.204 132.425 256.852 132.905 257.428H129.665C129.761 256.66 129.857 255.916 129.953 255.148H131.969ZM136.673 255.148C136.649 255.964 136.601 256.708 136.577 257.428H134.273L134.945 256.972C134.537 256.444 133.793 255.748 133.121 255.148H136.673ZM140.897 260.02V257.428H139.193C139.241 256.348 139.313 255.196 139.361 253.924C139.385 253.564 139.385 252.724 139.385 252.724H128.033C128.345 252.22 128.609 251.692 128.897 251.14H140.273V248.596H130.073C130.313 248.02 130.529 247.42 130.721 246.868L127.961 246.172C127.145 248.812 125.729 251.572 124.121 253.276C124.793 253.636 126.017 254.428 126.569 254.836C126.857 254.476 127.169 254.068 127.457 253.612C127.337 254.836 127.193 256.132 127.025 257.428H124.553V260.02H126.689C126.425 261.868 126.137 263.62 125.849 264.988H135.785C135.689 265.372 135.569 265.588 135.449 265.732C135.209 266.044 134.993 266.116 134.585 266.116C134.105 266.116 133.169 266.116 132.113 266.02C132.521 266.668 132.809 267.676 132.857 268.348C133.985 268.42 135.137 268.42 135.857 268.3C136.649 268.18 137.249 267.964 137.777 267.22C138.089 266.812 138.329 266.14 138.521 264.988H140.297V262.564H138.833C138.905 261.82 138.977 260.98 139.049 260.02H140.897ZM147.929 260.764V258.748H152.153V260.764H147.929ZM155.153 250.252C154.577 250.996 153.929 251.716 153.305 252.316H148.049C148.697 251.644 149.249 250.948 149.801 250.252H155.153ZM147.929 254.692H152.153V256.612H147.929V254.692ZM159.233 256.612H155.081V254.692H159.233V256.612ZM155.081 260.764V258.748H159.233V260.764H155.081ZM156.665 265.54C155.297 265.54 155.081 265.348 155.081 264.22V263.14H162.209V252.316H156.977C157.913 251.26 158.777 250.084 159.449 248.98L157.529 247.636L156.977 247.804H151.505C151.721 247.42 151.961 247.06 152.177 246.676L149.033 246.052C147.761 248.548 145.409 251.428 142.145 253.588C142.793 254.092 143.705 255.172 144.113 255.844C144.401 255.652 144.689 255.436 144.953 255.22V264.268H147.929V263.14H152.153V264.244C152.153 267.364 153.137 268.204 156.329 268.204H160.937C163.697 268.204 164.585 267.148 164.945 263.74C164.129 263.548 162.929 263.092 162.281 262.612C162.113 265.06 161.897 265.54 160.697 265.54H156.665ZM171.665 246.268C170.465 249.676 168.377 253.084 166.193 255.244C166.697 255.964 167.513 257.596 167.777 258.292C168.257 257.764 168.761 257.164 169.265 256.564V268.564H172.145V252.124C173.033 250.516 173.825 248.812 174.449 247.132L171.665 246.268ZM188.873 252.796V250.084H179.561C180.017 249.1 180.401 248.116 180.737 247.108L177.977 246.412C176.897 249.844 175.001 253.3 172.889 255.46C173.489 255.916 174.617 256.924 175.073 257.452C176.153 256.204 177.257 254.572 178.217 252.796H179.129V268.588H182.057V263.26H188.585V260.62H182.057V257.908H188.273V255.316H182.057V252.796H188.873ZM205.889 265.228L207.065 263.332C204.617 262.492 200.561 261.628 197.321 261.292L196.025 263.14C199.193 263.5 203.081 264.364 205.481 265.228H194.129V258.124C194.537 258.7 194.969 259.516 195.161 260.068C196.457 259.756 197.801 259.348 199.097 258.844L198.209 260.068C200.225 260.5 202.769 261.364 204.185 262.012L205.337 260.26C203.993 259.66 201.737 258.964 199.841 258.556C200.489 258.268 201.137 257.98 201.761 257.644C203.609 258.604 205.649 259.324 207.737 259.756C208.001 259.252 208.529 258.484 209.009 257.932V265.228H205.889ZM199.313 249.652C198.137 251.428 196.193 253.108 194.249 254.212C194.777 254.596 195.689 255.436 196.121 255.892C196.601 255.58 197.105 255.22 197.585 254.812C198.089 255.292 198.665 255.748 199.289 256.204C197.657 256.852 195.857 257.356 194.129 257.692V249.652H199.313ZM204.017 253.588C203.321 254.14 202.553 254.668 201.641 255.1C200.777 254.668 200.033 254.14 199.409 253.588H204.017ZM209.009 257.572C207.353 257.26 205.673 256.828 204.161 256.252C205.793 255.124 207.209 253.828 208.169 252.34L206.561 251.38L206.153 251.476H200.921C201.209 251.116 201.473 250.732 201.713 250.372L199.673 249.652H209.009V257.572ZM191.393 247.084V268.612H194.129V267.748H209.009V268.612H211.889V247.084H191.393ZM219.761 258.7C219.761 261.196 219.305 264.244 215.105 266.476C215.873 266.956 217.001 267.94 217.505 268.612C222.257 265.924 222.785 261.964 222.785 258.772V256.06H219.761V258.7ZM228.785 268.588H231.833V256.012H228.785V268.588ZM225.473 245.86C223.265 249.34 218.633 252.652 214.049 254.02C214.697 254.788 215.417 255.988 215.801 256.78C219.329 255.412 222.953 252.988 225.593 250.228C228.041 253.06 231.425 255.292 235.265 256.444C235.673 255.628 236.609 254.38 237.305 253.756C233.225 252.796 229.481 250.66 227.345 248.14C227.513 247.924 227.657 247.708 227.801 247.492L225.473 245.86ZM238.913 267.532C241.313 266.932 244.385 266.164 247.313 265.396L247.025 263.044C243.857 263.74 240.569 264.436 238.409 264.82L238.913 267.532ZM243.161 258.94C244.889 257.044 246.545 254.884 247.913 252.676L245.681 251.236C245.249 252.028 244.769 252.82 244.265 253.588L241.721 253.804C243.161 251.908 244.577 249.628 245.585 247.444L243.017 246.148C242.057 248.908 240.233 251.884 239.681 252.604C239.105 253.396 238.673 253.9 238.145 254.02C238.457 254.74 238.889 256.06 239.033 256.588C239.441 256.396 240.089 256.252 242.585 255.964C241.673 257.164 240.857 258.076 240.425 258.484C239.657 259.348 239.081 259.852 238.433 259.996C238.745 260.668 239.153 261.892 239.273 262.42C239.945 262.036 240.953 261.748 247.433 260.524C247.385 259.948 247.409 258.916 247.505 258.196L243.161 258.94ZM256.937 261.028V265.036H251.225V261.028H256.937ZM248.561 268.588H251.225V267.58H256.937V268.492H259.769V258.484H248.561V268.588ZM247.865 247.3V249.892H250.985C250.649 252.46 249.785 254.548 246.713 255.844C247.337 256.348 248.057 257.332 248.369 258.004C252.209 256.3 253.337 253.42 253.793 249.892H257.321C257.177 252.988 257.009 254.26 256.697 254.644C256.481 254.86 256.289 254.932 255.929 254.932C255.521 254.932 254.681 254.908 253.745 254.812C254.201 255.532 254.513 256.636 254.537 257.452C255.665 257.476 256.697 257.476 257.345 257.38C258.065 257.26 258.593 257.044 259.073 256.42C259.697 255.676 259.937 253.54 260.105 248.38C260.129 248.044 260.153 247.3 260.153 247.3H247.865Z" fill="#BEC8D7"/>
</g>
<defs>
<linearGradient id="paint0_linear" x1="147" y1="122.5" x2="121.938" y2="222.485" gradientUnits="userSpaceOnUse">
<stop offset="0.01"/>
<stop offset="0.14254" stop-opacity="0.69"/>
<stop offset="0.351668" stop-opacity="0.32"/>
<stop offset="1" stop-opacity="0"/>
</linearGradient>
<linearGradient id="paint1_linear" x1="189.5" y1="133.5" x2="189.407" y2="175.48" gradientUnits="userSpaceOnUse">
<stop offset="0.01"/>
<stop offset="0.08" stop-opacity="0.69"/>
<stop offset="0.336269" stop-opacity="0.32"/>
<stop offset="1" stop-opacity="0"/>
</linearGradient>
<linearGradient id="paint2_linear" x1="75.0001" y1="171.5" x2="82.5001" y2="174" gradientUnits="userSpaceOnUse">
<stop stop-color="#563328"/>
<stop offset="1" stop-color="#745247"/>
</linearGradient>
<linearGradient id="paint3_linear" x1="91.0398" y1="163.824" x2="94.5398" y2="177.824" gradientUnits="userSpaceOnUse">
<stop stop-color="#5C392E"/>
<stop offset="1" stop-color="#745247"/>
</linearGradient>
<linearGradient id="paint4_linear" x1="72.0001" y1="162.5" x2="72.0001" y2="169" gradientUnits="userSpaceOnUse">
<stop stop-color="#25130D"/>
<stop offset="1" stop-color="#735347"/>
</linearGradient>
<linearGradient id="paint5_linear" x1="100" y1="152.5" x2="91.5001" y2="165.5" gradientUnits="userSpaceOnUse">
<stop stop-color="#715145"/>
<stop offset="1" stop-color="#4D352C"/>
</linearGradient>
<linearGradient id="paint6_linear" x1="54.0001" y1="161" x2="52.5001" y2="176" gradientUnits="userSpaceOnUse">
<stop stop-color="#654338"/>
<stop offset="1" stop-color="#725246"/>
</linearGradient>
<linearGradient id="paint7_linear" x1="73.4317" y1="158" x2="72.0001" y2="180.5" gradientUnits="userSpaceOnUse">
<stop stop-color="#5E3B30"/>
<stop offset="1" stop-color="#725246"/>
</linearGradient>
<linearGradient id="paint8_linear" x1="72.0001" y1="137.5" x2="72.0001" y2="174.5" gradientUnits="userSpaceOnUse">
<stop stop-color="#E68E8E"/>
<stop offset="0.578125" stop-color="#D44747"/>
<stop offset="0.973958" stop-color="#B12828"/>
</linearGradient>
<clipPath id="clip0">
<rect width="250" height="267" fill="white" transform="translate(32 41.5)"/>
</clipPath>
<clipPath id="clip1">
<rect width="250" height="150" fill="white" transform="translate(32 41.5)"/>
</clipPath>
</defs>
</svg>
