<svg width="39" height="33" viewBox="0 0 39 33" fill="none" xmlns="http://www.w3.org/2000/svg">
<path opacity="0.2" d="M21.8645 26.5593L24.7548 32.0303C32.2903 28.5206 39 21.2948 39 11.0754C39 4.88189 35.0774 0.0302738 29.9161 0.0302742C24.8581 0.0302747 21.8645 3.53995 21.8645 7.66898C21.8645 11.9012 24.7548 15.2045 29.0903 15.2045C30.0194 15.2045 30.8452 14.8948 31.2581 14.6883C31.2581 17.8883 28.0581 23.669 21.8645 26.5593ZM0.806453 26.5593L3.8 32.0303C11.3355 28.5206 18.0452 21.2948 18.0452 11.0754C18.0452 4.88189 14.1226 0.0302756 8.96129 0.0302761C3.8 0.0302765 0.909677 3.53995 0.909677 7.66898C0.909678 11.9012 3.8 15.2045 8.03226 15.2045C9.06452 15.2045 9.89032 14.8948 10.3032 14.6883C10.3032 17.8883 7.10323 23.669 0.806453 26.5593Z" fill="#BEC8D7"/>
</svg>
