<svg width="11" height="18" viewBox="0 0 11 18" fill="none" xmlns="http://www.w3.org/2000/svg">
<path d="M6.30001 7.9C4.03001 7.31 3.30001 6.7 3.30001 5.75C3.30001 4.66 4.31001 3.9 6.00001 3.9C7.78001 3.9 8.44001 4.75 8.50001 6H10.71C10.64 4.28 9.59001 2.7 7.50001 2.19V0H4.50001V2.16C2.56001 2.58 1.00001 3.84 1.00001 5.77C1.00001 8.08 2.91001 9.23 5.70001 9.9C8.20001 10.5 8.70001 11.38 8.70001 12.31C8.70001 13 8.21001 14.1 6.00001 14.1C3.94001 14.1 3.13001 13.18 3.02001 12H0.820007C0.940007 14.19 2.58001 15.42 4.50001 15.83V18H7.50001V15.85C9.45001 15.48 11 14.35 11 12.3C11 9.46 8.57001 8.49 6.30001 7.9Z" fill="#6C7882"/>
</svg>
