<svg width="39" height="33" viewBox="0 0 39 33" fill="none" xmlns="http://www.w3.org/2000/svg">
<path opacity="0.2" d="M17.1355 5.50124L14.2452 0.0302734C6.70967 3.53995 0 10.7658 0 20.9851C0 27.1787 3.92258 32.0303 9.08387 32.0303C14.1419 32.0303 17.1355 28.5206 17.1355 24.3916C17.1355 20.1593 14.2452 16.8561 9.90967 16.8561C8.98064 16.8561 8.15484 17.1658 7.74193 17.3722C7.74193 14.1722 10.9419 8.39156 17.1355 5.50124ZM38.1935 5.50124L35.2 0.0302734C27.6645 3.53995 20.9548 10.7658 20.9548 20.9851C20.9548 27.1787 24.8774 32.0303 30.0387 32.0303C35.2 32.0303 38.0903 28.5206 38.0903 24.3916C38.0903 20.1593 35.2 16.8561 30.9677 16.8561C29.9355 16.8561 29.1097 17.1658 28.6968 17.3722C28.6968 14.1722 31.8968 8.39156 38.1935 5.50124Z" fill="#BEC8D7"/>
</svg>
