<svg width="343" height="212" viewBox="0 0 343 212" fill="none" xmlns="http://www.w3.org/2000/svg">
<g clip-path="url(#clip0)">
<path d="M83.4444 205.269C73.7947 203.684 64.7114 199.658 57.0586 193.575C48.0329 186.488 38.2269 176.939 38.5283 165.086C38.8475 152.507 43.5466 140.406 48.7422 129.085C55.6046 113.795 65.1801 97.672 62.6443 80.6458C60.1441 63.8853 63.5132 43.2447 72.4858 28.8229C86.6717 6.10939 111.497 0.599337 136.322 0.0678205C152.725 -0.268807 169.606 0.70564 184.554 7.4559C200.265 14.5428 212.837 27.6358 228.885 33.7305C239.525 37.7346 251.157 38.5319 261.566 43.0321C274.67 48.7193 284.778 59.9875 291.339 72.673C297.9 85.3585 301.198 99.4437 303.663 113.423C307.812 137.075 297.953 166.574 283.749 185.939C274.227 198.873 258.374 213.773 242.025 210.584C159.144 194.78 175.085 220.045 83.4444 205.269Z" fill="#1C1E23"/>
<path opacity="0.31" d="M312.614 79.3256C312.614 85.422 307.646 90.3677 301.508 90.3805H272.911C266.764 90.3805 261.78 85.431 261.78 79.3256C261.78 73.2201 266.764 68.2706 272.911 68.2706H277.026C277.003 67.9692 277.003 67.6664 277.026 67.3649C276.963 63.7389 278.853 60.3552 281.983 58.4884C285.113 56.6215 289.009 56.5551 292.201 58.3142C295.394 60.0733 297.4 63.3906 297.462 67.0165V67.3649C297.462 67.6668 297.462 67.9687 297.462 68.2706H301.554C307.701 68.2706 312.685 73.2201 312.685 79.3256H312.614Z" fill="#EB5757"/>
<path d="M309.174 77.9672C309.174 84.0869 304.196 89.0515 298.047 89.0643H269.421C265.437 89.0643 261.756 86.9492 259.764 83.5158C257.772 80.0823 257.772 75.8521 259.764 72.4186C261.756 68.9852 265.437 66.8701 269.421 66.8701H273.52C273.52 66.567 273.52 66.2639 273.52 65.9842C273.339 62.2239 275.252 58.6696 278.498 56.7356C281.743 54.8017 285.795 54.8017 289.04 56.7356C292.285 58.6696 294.198 62.2239 294.018 65.9842C294.018 66.2872 294.018 66.5903 294.018 66.8934H298.117C304.235 66.9318 309.174 71.8785 309.174 77.9672Z" fill="#F5F5F5"/>
<path d="M45.0645 104.074C45.0413 103.202 45.3794 102.36 45.9994 101.745C47.4015 100.313 48.415 98.5499 48.9444 96.6204C49.5697 94.0984 48.5178 91.4591 46.3266 90.0519C45.0586 89.076 43.6027 88.3704 42.0495 87.9789C40.4818 87.5026 39.492 85.9638 39.7122 84.3453C39.8291 83.3204 39.946 82.2956 40.0395 81.2707C40.2009 79.3541 41.8772 77.9223 43.8024 78.0564C45.2861 78.0117 46.7468 77.6794 48.103 77.0781C51.2785 75.8778 52.9312 72.388 51.8425 69.182C51.4378 67.8698 50.9459 66.5859 50.3701 65.3387C49.689 63.8685 50.1266 62.124 51.4218 61.1461C52.1931 60.5172 53.0112 59.9815 53.7591 59.3293C55.1521 58.2614 57.1073 58.3199 58.4336 59.469C59.5511 60.5676 60.8677 61.445 62.3134 62.0545C65.0844 63.3248 68.3702 62.4549 70.1432 59.9815C71.1242 58.617 71.867 57.0971 72.3402 55.4861C72.8327 53.8805 74.4406 52.8852 76.1031 53.1568C77.1315 53.3199 78.1365 53.4596 79.1649 53.5761C80.8287 53.7654 82.0854 55.1682 82.0865 56.837C82.16 58.7809 82.6712 60.6835 83.5823 62.4039C84.975 64.6967 87.645 65.8927 90.2902 65.4086C91.7571 65.1158 93.1741 64.6137 94.4972 63.9179C96.1186 63.0085 98.1705 63.5197 99.1717 65.0825C99.756 65.9676 100.527 66.7363 101.112 67.6214C102.016 68.8979 101.868 70.6375 100.761 71.7441C99.6173 72.9277 98.7127 74.3195 98.0966 75.8436C96.74 78.9464 98.0803 82.5633 101.135 84.0425C102.256 84.6727 103.439 85.1878 104.664 85.5798C106.106 86.0397 107.063 87.4028 107.001 88.9106C107.001 90.1451 106.768 91.3796 106.581 92.5908C106.377 94.2536 104.942 95.4921 103.262 95.4558C101.451 95.4911 99.6699 95.9287 98.0498 96.7369C95.553 97.9599 94.1918 100.702 94.731 103.422C94.9584 104.971 95.4567 106.469 96.2034 107.847C96.6814 108.607 96.8367 109.525 96.635 110.399C96.4334 111.273 95.8913 112.031 95.1283 112.506L93.0248 114.136C91.6727 115.334 89.6151 115.262 88.3503 113.973C87.1025 112.808 85.6319 111.905 84.0264 111.318C81.3002 110.265 78.2058 111.232 76.5706 113.647C75.591 115.013 74.8484 116.532 74.3736 118.143C73.926 119.685 72.419 120.673 70.821 120.472L67.3618 119.959C65.8926 119.66 64.8033 118.422 64.6974 116.931C64.654 115.078 64.2242 113.253 63.4353 111.574C62.1972 108.805 59.1366 107.33 56.1898 108.08C54.7694 108.474 53.3854 108.989 52.0529 109.618C50.6459 110.321 48.9404 109.996 47.8926 108.826C47.0544 107.92 46.2738 106.963 45.5554 105.961C45.244 105.35 44.9935 104.71 44.8074 104.051L45.0645 104.074ZM73.4387 75.797C70.4924 75.7784 67.66 76.9302 65.5679 78.9977C63.4757 81.0652 62.2962 83.878 62.29 86.8143C62.3606 92.7747 67.111 97.6318 73.0881 97.8549C77.153 98.094 81.0219 96.0915 83.1635 92.6401C85.3051 89.1886 85.3741 84.8445 83.3433 81.3272C81.3125 77.8099 77.5091 75.6863 73.4387 75.797Z" fill="#EB5757"/>
<path d="M129.182 72.0702C129.182 72.4895 129.182 72.9087 129.182 73.328C129.203 74.4597 128.404 75.4423 127.289 75.6572L124.951 76.2395C123.731 76.5842 122.441 75.9909 121.913 74.842C121.452 73.8976 120.888 73.0071 120.23 72.1867C119.443 71.1034 118.237 70.3985 116.904 70.2436C115.571 70.0886 114.234 70.4977 113.219 71.3714C112.466 71.9667 111.755 72.6126 111.092 73.3047C110.287 74.2495 108.919 74.4849 107.843 73.8637L105.95 72.7457C105.305 72.431 104.815 71.8704 104.59 71.1908C104.366 70.5112 104.426 69.7701 104.758 69.1354C105.125 68.0835 105.345 66.9862 105.412 65.8744C105.617 63.3573 103.771 61.1361 101.252 60.8666C100.083 60.6802 98.9146 60.8666 97.6759 60.6336C96.4463 60.6366 95.4247 59.6898 95.3386 58.4674C95.2377 57.8208 95.0893 57.1824 94.8945 56.5575C94.5212 55.2957 95.14 53.953 96.3436 53.413C97.462 52.8343 98.5058 52.1225 99.4522 51.2934C101.143 49.7591 101.414 47.2069 100.083 45.3538C99.5252 44.5015 98.866 43.7195 98.1199 43.0246C97.4871 42.5991 97.0615 41.9294 96.946 41.1774C96.8306 40.4253 97.0359 39.6594 97.5123 39.0649C97.8395 38.5292 98.1433 37.9702 98.4939 37.4344C99.1402 36.2857 100.555 35.8123 101.766 36.3397C103.074 36.8809 104.492 37.1045 105.903 36.9919C107.884 36.8893 109.55 35.4768 109.97 33.5446C110.258 32.3004 110.384 31.0243 110.344 29.7479C110.268 28.5486 110.99 27.4415 112.12 27.0227C112.985 26.7665 113.85 26.5802 114.714 26.3938C115.322 26.1917 115.986 26.2468 116.551 26.5462C117.117 26.8456 117.534 27.363 117.706 27.9777C118.296 29.3347 119.201 30.5323 120.347 31.4716C122.192 32.8407 124.747 32.7338 126.471 31.2154C127.144 30.6803 127.77 30.088 128.34 29.4451C129.174 28.4979 130.56 28.2643 131.659 28.8861L133.833 30.1672C134.913 30.8034 135.352 32.1382 134.861 33.2884C134.373 34.502 134.135 35.8011 134.16 37.1083C134.142 39.4699 135.899 41.4717 138.25 41.7668C139.311 41.9185 140.381 41.9886 141.452 41.9764C142.811 41.84 144.028 42.8146 144.187 44.1659C144.374 44.9113 144.584 45.6333 144.748 46.4952C145.062 47.6668 144.422 48.8826 143.275 49.2903C142.036 49.8357 140.923 50.6284 140.003 51.6195C138.622 53.0014 138.317 55.1248 139.255 56.837C139.915 57.9038 140.7 58.889 141.593 59.7718C142.721 60.6205 142.969 62.2083 142.154 63.3588L141.102 65.1058C140.483 66.3662 138.961 66.8959 137.689 66.2937C136.145 65.6474 134.434 65.5087 132.805 65.8977C131.12 66.3929 129.856 67.7875 129.532 69.508C129.361 70.3467 129.236 71.1943 129.159 72.0469L129.182 72.0702ZM119.833 43.0479C117.625 43.0229 115.498 43.8814 113.93 45.4311C112.362 46.9808 111.483 49.0925 111.489 51.2934C111.326 54.365 112.877 57.2755 115.522 58.8602C118.168 60.4449 121.475 60.4449 124.12 58.8602C126.765 57.2755 128.317 54.365 128.154 51.2934C128.166 49.0864 127.286 46.9674 125.711 45.4156C124.136 43.8638 122 43.0102 119.786 43.0479H119.833Z" fill="#EB5757"/>
<path d="M251.396 192.316C251.45 193.727 251.183 195.133 250.614 196.427C249.927 197.626 248.886 198.585 247.63 199.176C244.927 200.565 241.789 200.867 238.867 200.022C238.505 200.006 238.166 199.838 237.936 199.56C237.706 199.282 237.605 198.921 237.659 198.565C237.91 196.958 238.754 195.502 240.028 194.478C241.287 193.47 242.361 192.254 243.201 190.883C244.528 188.205 243.533 181.04 248.649 182.191C252.841 183.084 251.514 189.262 251.396 192.316Z" fill="#CE9E95"/>
<path d="M251.858 196.759C251.858 196.759 252.559 198.552 251.694 199.604C250.828 200.657 241.75 206.42 235.644 201.78C229.538 197.141 243.926 196.543 243.926 196.543L251.858 196.759Z" fill="#EB5757"/>
<path d="M251.602 192.773C251.021 192.492 250.322 192.672 249.949 193.2C248.726 194.604 246.87 195.276 245.036 194.979C243.029 194.504 242.226 192.181 241.234 192.157C240.242 192.133 234.904 196.71 234.597 198.654C234.29 200.599 236.959 202.045 240.029 202.235C243.1 202.424 249.854 200.338 251.153 198.749C252.267 196.951 252.435 194.719 251.602 192.773Z" fill="#8C2424"/>
<path d="M268.51 194.94C268.564 196.35 268.297 197.754 267.728 199.047C267.04 200.245 265.998 201.203 264.742 201.794C262.04 203.189 258.899 203.5 255.972 202.662C255.57 202.585 255.209 202.369 254.953 202.052C254.807 201.787 254.741 201.485 254.763 201.184C255.015 199.578 255.859 198.122 257.134 197.099C258.394 196.093 259.468 194.878 260.309 193.508C261.637 190.832 260.641 183.673 265.761 184.823C269.956 185.785 268.629 191.959 268.51 194.94Z" fill="#CE9E95"/>
<path d="M268.972 199.829C268.972 199.829 269.674 201.623 268.808 202.675C267.943 203.727 258.866 209.49 252.76 204.851C246.654 200.212 261.018 199.614 261.018 199.614L268.972 199.829Z" fill="#EB5757"/>
<path d="M268.717 195.429C268.138 195.125 267.424 195.31 267.063 195.856C265.831 197.243 263.979 197.904 262.151 197.611C260.143 197.136 259.34 194.812 258.348 194.789C257.356 194.765 252.018 199.342 251.711 201.286C251.404 203.23 254.073 204.677 257.144 204.866C260.214 205.056 266.969 202.97 268.268 201.381C269.382 199.591 269.549 197.367 268.717 195.429Z" fill="#8C2424"/>
<path d="M271.769 120.909C271.769 120.909 272.719 172.445 268.896 189.655L259.26 190.841L252.565 120.211L271.769 120.909Z" fill="#868686"/>
<path d="M242.096 114.947C242.096 114.947 237.413 142.873 243.079 187.46L252.819 188.647L259.586 118.019L242.096 114.947Z" fill="#868686"/>
<path d="M230.624 92.7159C230.624 94.5789 231.355 96.209 232.982 96.7446C233.117 96.8047 233.26 96.844 233.406 96.861C236.424 97.4665 240.48 95.2076 243.144 93.2282C244.287 92.4055 245.381 91.5191 246.421 90.5735V70.6396L231.756 85.4736C230.987 87.8119 230.605 90.2574 230.624 92.7159Z" fill="#EB5757"/>
<path d="M242.906 93.3926C242.906 94.3231 242.906 95.2769 242.906 96.2074C242.906 101.348 244.099 106.652 242.555 111.7C242.059 112.777 241.912 113.98 242.133 115.143C242.584 116.071 243.357 116.806 244.31 117.213C249.025 119.411 254.098 120.751 259.288 121.168C263.15 121.703 268.65 122.843 272.231 120.773C273.59 119.768 274.498 118.272 274.758 116.609C276.116 111.278 276.9 105.82 277.099 100.325C277.099 99.627 277.099 98.9059 277.239 98.1847C277.544 93.2763 277.637 88.3214 277.544 83.413C277.544 79.8306 277.192 75.969 274.852 73.2705C271.068 69.7091 266.286 67.3729 261.137 66.5709C259.645 66.2651 258.115 66.1789 256.597 66.315C254.457 66.6557 252.392 67.3558 250.489 68.3854C248.232 69.1517 246.313 70.6728 245.059 72.689C243.798 75.25 242.907 77.9754 242.414 80.7843C242.004 83.4333 241.957 86.1251 242.274 88.7866C242.414 90.0893 242.742 91.3921 242.882 92.6715C242.906 92.9274 242.906 93.16 242.906 93.3926Z" fill="#EB5757"/>
<path opacity="0.1" d="M263.713 122.317C265.221 122.758 268.708 121.41 269.863 121.201C270.546 121.201 271.182 120.736 271.866 120.573C275.329 119.714 275.73 110.161 276.06 107.582C277.252 100.746 278.039 93.8467 278.416 86.9203C278.574 84.2843 278.262 81.6416 277.497 79.1112C276.723 76.5442 274.832 74.4493 272.337 73.3939C267.93 71.8368 266.611 85.5955 265.998 88.4309L262.699 103.979C262.229 105.895 261.922 107.846 261.78 109.813C261.859 112.205 262.361 114.564 263.265 116.785C263.665 118.156 262.558 120.736 263.1 121.735C263.188 122.021 263.42 122.241 263.713 122.317Z" fill="#020202"/>
<path d="M253.424 62.0459C253.975 62.6435 254.733 63.0166 255.55 63.0917C256.234 63.1496 256.922 63.1496 257.606 63.0917H258.008C258.093 63.0678 258.183 63.0678 258.268 63.0917C258.348 63.1741 258.398 63.2804 258.41 63.3939C258.528 64.7394 258.528 66.0924 258.41 67.4379V68.1584C258.338 68.4092 258.338 68.6746 258.41 68.9254C258.551 69.2275 258.906 69.3437 259.237 69.4599C259.837 69.6636 260.468 69.7658 261.103 69.7622C262.453 69.6395 263.751 69.1925 264.884 68.4605C264.781 66.1298 264.907 63.7947 265.262 61.4881C265.923 58.5827 266.225 55.6095 266.16 52.633C266.082 51.4639 265.646 50.3455 264.908 49.4257C263.719 48.2927 262.092 47.717 260.442 47.8453C258.282 47.8022 256.157 48.3753 254.321 49.4954C253.636 49.937 253.565 50.5181 253.4 51.2618C253.187 52.4239 252.998 53.5859 252.856 54.7945C252.715 56.0031 252.62 57.4673 252.596 58.8385C252.463 59.9712 252.757 61.1127 253.424 62.0459Z" fill="#CE9E95"/>
<path d="M255.009 45.5155C254.16 45.6612 253.517 46.3615 253.444 47.2191C253.414 48.0857 253.984 48.859 254.822 49.0861C254.693 50.0772 255.358 50.9975 256.34 51.1865C257.296 51.326 258.272 51.205 259.165 50.8364C260.171 52.0833 261.936 52.4104 263.322 51.6066V52.1433C263.767 53.0755 264.044 54.0789 264.14 55.1072L263.883 57.0909C264.005 56.0245 264.963 55.2547 266.031 55.3639C266.32 55.3334 266.609 55.4267 266.825 55.6206C266.914 55.7621 266.97 55.9216 266.989 56.0874C267.019 56.7141 266.74 57.3158 266.241 57.6977C265.891 57.9311 265.447 58.0944 265.284 58.4912C265.168 58.8715 265.168 59.2777 265.284 59.658C265.379 60.1051 265.329 60.5707 265.144 60.9883L265.798 60.8249C265.991 60.722 266.171 60.5967 266.335 60.4515C266.695 60.0525 266.858 59.513 266.779 58.9813C267.485 58.9837 268.148 58.6427 268.557 58.067C268.966 57.4913 269.069 56.7529 268.834 56.0874C269.182 56.0413 269.497 55.8569 269.708 55.576C269.919 55.295 270.008 54.941 269.955 54.5938C269.817 53.8989 269.494 53.254 269.02 52.7268C270.159 52.714 271.076 51.7878 271.075 50.6497C271.029 50.3325 271.029 50.0101 271.075 49.6929C271.212 49.3326 271.401 48.9944 271.636 48.6894C272.064 47.8675 271.903 46.8624 271.239 46.2156C270.772 45.7955 270.118 45.5855 269.768 45.0721C269.58 44.5935 269.462 44.0905 269.417 43.5785C268.997 41.6881 266.895 40.8013 265.05 40.1945C264.555 39.9929 264.02 39.9052 263.486 39.9378C262.941 39.9804 262.492 40.3816 262.388 40.918C261.886 40.4954 261.267 40.235 260.613 40.1712C259.983 40.1712 259.282 40.7546 259.446 41.3614C259.189 40.3345 257.461 42.995 257.367 43.065C256.223 43.7652 254.471 43.065 255.009 45.5155Z" fill="#473F47"/>
<path d="M257.44 63.2511H257.848C257.934 63.2273 258.026 63.2273 258.112 63.2511C258.193 63.3329 258.244 63.4385 258.256 63.5512C258.376 64.8879 258.376 66.232 258.256 67.5687C260.811 66.8119 262.458 64.4258 262.191 61.8657C260.646 62.4764 259.037 62.9253 257.392 63.2049L257.44 63.2511Z" fill="#AF807A"/>
<path d="M218.336 87.652C220.26 90.3648 222.648 92.7248 225.393 94.6258C227.364 95.9381 229.637 96.7377 232.003 96.9504C232.314 96.9821 232.628 96.9424 232.921 96.8341C233.426 96.687 233.87 96.386 234.191 95.974C235.179 94.8121 235.771 93.3727 235.885 91.8595C236.05 87.8845 231.698 85.5831 231.698 85.5831C231.698 85.5831 221.794 82.4682 220.618 82.9796C219.983 83.2353 219.371 84.63 218.948 85.8156C218.524 87.0011 218.336 87.652 218.336 87.652Z" fill="#EB5757"/>
<path opacity="0.1" d="M218.336 87.4388C220.248 90.1873 222.622 92.5784 225.351 94.5043C227.309 95.8339 229.569 96.644 231.921 96.8594C232.23 96.8916 232.542 96.8513 232.833 96.7417C232.967 96.8025 233.108 96.8422 233.254 96.8594C236.247 97.4718 240.269 95.1873 242.911 93.1854L241.975 87.1562C240.184 89.0524 238.1 90.6431 235.803 91.8665C234.185 92.7387 232.337 93.0765 230.518 92.8321C230.025 92.7599 229.545 92.6171 229.092 92.4082C225.403 90.596 221.974 88.2907 218.897 85.5547C218.57 86.5674 218.336 87.4388 218.336 87.4388Z" fill="#020202"/>
<path d="M283.513 94.35C285.025 97.7866 285.681 101.541 285.422 105.29C284.77 109.778 281.79 113.541 278.926 116.977C276.597 117.328 273.733 117.281 272.918 115.13C272.731 114.438 272.683 113.715 272.779 113.003L273.104 108.328C273.371 106.269 273.26 104.177 272.779 102.157C271.889 99.9603 270.723 97.8865 269.309 95.9863C267.268 92.729 266.046 89.0231 265.746 85.187C265.49 81.5872 268.215 69.9464 273.5 73.4994C275.689 74.9487 277.645 80.9327 278.809 83.3403C280.579 86.9401 282.147 90.61 283.513 94.35Z" fill="#EB5757"/>
<path d="M271.749 120.002C271.634 120.172 271.57 120.372 271.566 120.578C271.567 120.69 271.622 120.794 271.712 120.858C271.803 120.922 271.919 120.938 272.024 120.901C272.55 122.537 271.452 124.266 271.452 125.995C271.429 126.148 271.429 126.303 271.452 126.456C271.535 126.644 271.67 126.803 271.841 126.917C272.426 127.29 273.161 127.333 273.786 127.032C274.402 126.736 274.954 126.321 275.412 125.81C276.396 124.9 277.142 123.76 277.586 122.491C277.75 121.904 277.857 121.302 277.907 120.693L278.456 116.084C275.183 115.046 273.306 117.282 271.749 120.002Z" fill="#CE9E95"/>
<path d="M219.257 79.1822C219.159 78.8729 218.98 78.5941 218.737 78.3738C218.626 78.2609 218.472 78.1971 218.312 78.1971C218.151 78.1971 217.997 78.2609 217.886 78.3738C217.792 78.5371 217.736 78.7183 217.721 78.9051C217.533 79.3146 217.116 79.5774 216.657 79.5749C216.207 79.5468 215.766 79.4371 215.357 79.2515C214.171 78.8306 212.964 78.4683 211.74 78.1659C211.456 78.0743 211.15 78.0743 210.866 78.1659C210.565 78.319 210.343 78.5864 210.251 78.9051C209.735 80.3844 210.02 82.0183 211.008 83.2477C212.004 84.4522 213.358 85.3241 214.884 85.7423C216.427 86.1466 218.014 86.3715 219.612 86.4122C220.006 86.4664 220.407 86.4103 220.77 86.2505C222.661 85.188 219.801 80.4065 219.257 79.1822Z" fill="#CE9E95"/>
<path d="M106.993 113.855C106.993 113.855 106.993 135.448 105.444 139.365C101.429 150.325 96.0518 154.802 96.0518 154.802C93.9386 162.746 91.8411 170.697 89.7593 178.656C91.802 180.988 95.2065 183.32 97.5075 181.291C98.1084 180.693 98.5798 179.979 98.8928 179.193L109.952 155.268C112.345 150.616 114.128 145.679 115.258 140.578V140.135V140.018C115.258 139.715 115.422 138.712 115.563 137.267C115.915 133.046 115.211 113.086 113.215 107.839C113.215 107.839 105.772 110.381 103.636 107.489L106.993 113.855Z" fill="#EB5757"/>
<path d="M106.989 114.032C106.989 114.032 106.989 135.569 105.44 139.476C101.426 150.407 96.0503 154.873 96.0503 154.873C93.9376 162.796 91.8406 170.727 89.7593 178.666C91.8015 180.991 95.2052 183.317 97.5057 181.294C98.1065 180.697 98.5778 179.984 98.8907 179.2L109.947 155.338C112.34 150.698 114.123 145.774 115.252 140.686V140.244V140.127C115.252 139.825 115.416 138.825 115.557 137.383C115.909 133.173 115.276 117.056 113.398 111.8C110.981 112.222 108.509 111.43 106.801 109.683L106.989 114.032Z" fill="url(#paint0_linear)"/>
<path d="M88.262 110.757C86.3024 113.641 85.5564 117.182 86.1856 120.613C86.9322 125.774 90.6183 129.954 91.3649 135.045C91.6581 137.741 90.0948 140.295 87.5621 141.257L73.1906 148.684C70.7009 149.71 68.5388 151.398 66.9381 153.565C65.402 155.848 65.937 158.938 68.1512 160.571L95.821 154.943C101.161 151.695 105.116 146.589 106.926 140.603C107.976 136.563 106.553 109.496 106.553 109.496C102.074 105.199 100.534 106.811 97.7574 103.541C94.4212 106.063 90.7583 107.371 88.262 110.757Z" fill="#EB5757"/>
<path d="M66.0582 165.06C66.0582 166.634 66.3648 168.515 65.1622 169.572C65.064 169.695 64.9187 169.772 64.7614 169.784C64.5313 169.779 64.3118 169.687 64.1483 169.525C61.3895 167.175 60.6585 163.25 60.4227 159.631C60.2552 158.721 60.4138 157.781 60.8707 156.975C61.5071 156.316 62.3294 155.866 63.2287 155.683C64.6608 155.246 66.0499 154.68 67.3787 153.991C66.9778 154.202 67.1193 156.552 67.1193 156.952C67.2979 157.834 67.3848 158.731 67.3787 159.631C67.1168 160.431 66.8098 161.216 66.4591 161.981C66.163 162.98 66.0277 164.019 66.0582 165.06Z" fill="#EACDA9"/>
<path d="M96.5197 187.017C97.2638 188.147 97.6596 189.47 97.6582 190.823C97.6397 191.069 97.5395 191.302 97.3736 191.485C96.8755 191.958 96.0691 191.627 95.5236 191.248C93.4292 189.584 91.6329 187.577 90.2109 185.314C89.9823 185.052 89.8269 184.734 89.7602 184.392C89.7463 183.93 89.8791 183.475 90.1397 183.092L91.7525 180.137C91.7958 180.044 91.8609 179.963 91.9423 179.901C92.05 179.865 92.1666 179.865 92.2743 179.901C93.1275 180.07 93.9618 180.323 94.7646 180.657C95.8556 181.106 95.8794 181.154 95.7608 182.265C95.5985 183.887 95.8599 185.524 96.5197 187.017Z" fill="#EACDA9"/>
<path d="M88.4771 187.284C88.4313 187.436 88.4313 187.598 88.4771 187.75C88.4771 187.959 88.7358 188.099 88.9004 188.215C89.8325 188.956 90.6838 189.79 91.4405 190.706C93.1364 192.385 94.952 193.941 96.8733 195.362C97.6063 196.112 98.6176 196.533 99.6721 196.526C99.7885 196.549 99.9084 196.549 100.025 196.526C100.152 196.393 100.227 196.22 100.237 196.037C100.417 194.444 100.148 192.832 99.4604 191.381C99.2446 190.809 98.9259 190.281 98.5197 189.821C98.0895 189.363 97.4817 189.109 96.8498 189.123C96.1678 189.123 95.5563 189.682 94.8507 189.682C94.1502 189.567 93.5243 189.182 93.1103 188.611C92.5645 187.999 92.069 187.345 91.6286 186.655C91.2994 186.143 90.9936 185.212 90.4527 184.886C89.2062 184.002 88.7123 186.492 88.4771 187.284Z" fill="#EB5757"/>
<path d="M58.9977 157.431C58.8016 157.54 58.6629 157.728 58.618 157.947C58.573 158.166 58.6263 158.393 58.7638 158.57C59.1587 159.851 59.4252 161.168 59.5592 162.501C60.0597 165.178 60.7636 167.813 61.6647 170.385C61.8854 171.558 62.5673 172.596 63.5596 173.269C63.698 173.301 63.8422 173.301 63.9807 173.269C64.1814 173.214 64.3608 173.101 64.4953 172.943C65.7143 171.543 66.5234 169.838 66.8347 168.013C66.9753 167.322 66.9753 166.61 66.8347 165.919C66.7233 165.219 66.3142 164.601 65.7118 164.222C65.0334 163.85 64.1444 163.943 63.4894 163.477C62.8844 162.947 62.5355 162.186 62.5302 161.384C62.4143 160.467 62.3674 159.541 62.3899 158.617C62.3899 157.896 62.694 156.826 62.3899 156.291C61.7582 154.779 59.6996 156.826 58.9977 157.431Z" fill="#EB5757"/>
<path d="M112.244 67.9893C113.663 65.0451 114.587 61.8834 114.978 58.6334C115.67 54.8685 114.808 50.9817 112.592 47.8742C109.047 43.5471 102.444 44.4827 97.8107 46.1667C93.1772 47.8508 93.2699 46.9503 91.5146 50.0211C89.7592 53.092 91.5146 60.5497 86.0292 65.5946C79.9991 71.1406 87.3457 71.2976 80.105 79.4134C82.2991 82.4842 85.8098 80.4417 85.1515 82.7036C87.1263 82.7036 87.3801 81.5478 89.7592 79.4134C96.6877 73.1974 95.2323 72.3568 97.4388 72.6137C98.2265 72.7072 100.163 73.9968 100.511 73.2717C100.904 74.0904 104.48 74.8071 105.338 74.8071L111.042 72.3943C111.313 72.4201 111.466 68.8554 111.711 68.7377C111.967 68.5559 112.155 68.2922 112.244 67.9893Z" fill="#4E4E4E"/>
<path d="M114.559 74.1489C118.907 78.6302 123.372 83.0418 127.628 87.6159C128.961 86.6676 130.36 85.8141 131.814 85.0618C133.767 84.2724 146.488 77.8407 151.394 76.8423C154.022 76.3068 156.744 76.4507 159.301 77.2603C159.723 77.3568 160.091 77.6153 160.324 77.9801C160.673 78.6766 159.906 79.4429 159.161 79.6054C158.376 79.6637 157.597 79.7958 156.836 80.0001C156.215 80.3674 155.683 80.8669 155.278 81.4629C153.581 83.3663 151.156 84.463 148.604 84.4814C147.557 84.4814 146.488 83.9706 145.464 84.0402C144.052 84.4362 142.753 85.1602 141.674 86.1531C138.255 88.475 135.209 91.4238 131.744 93.7457C131.072 94.2842 130.27 94.6366 129.419 94.7674C128.613 94.7633 127.819 94.5809 127.093 94.2333C121.964 92.5411 117.221 89.8499 113.14 86.3157C112.805 86.0134 112.529 85.6511 112.326 85.2476C112.195 84.8269 112.132 84.3879 112.14 83.9473C112.14 82.1362 112.14 80.302 112.14 78.4909C112.141 77.6866 112.324 76.8929 112.675 76.169C113.074 75.4111 113.93 75.0121 114.768 75.1938" fill="#F4DBBD"/>
<path d="M123.171 88.3193C123.593 88.6578 124.061 88.9377 124.56 89.151C125.668 89.5036 126.842 89.614 127.998 89.4744C129.753 89.4355 131.509 89.536 133.248 89.7747C133.69 89.8061 134.117 89.9408 134.495 90.1674C134.87 90.405 135.042 90.8554 134.919 91.2763C134.801 91.4964 134.631 91.6863 134.425 91.8307C133.121 93.0741 131.491 93.9379 129.716 94.3256C127.507 94.3782 125.344 93.7031 123.572 92.4082L119.711 90.0981C119.129 89.8247 118.621 89.4212 118.227 88.92C117.686 88.0883 117.568 85.8013 118.887 85.5703C120.205 85.3393 122.3 87.7418 123.171 88.3193Z" fill="#EEC28E"/>
<path d="M112.28 70.7671C110.903 69.7135 109.293 70.4393 107.613 70.5096C105.933 70.5798 103.857 70.65 101.99 70.5096C98.42 70.3925 92.6567 70.0179 89.3667 73.9281C85.4468 78.611 88.5267 86.3379 90.5567 91.255C91.2733 92.5386 91.7776 93.9303 92.05 95.3759C92.2598 96.9769 92.2598 98.5985 92.05 100.199C91.5928 103.325 90.3658 106.286 88.4801 108.816C87.6003 109.657 87.1099 110.828 87.1268 112.047C87.447 113.101 88.216 113.958 89.2267 114.389C92.9572 116.575 97.1608 117.821 101.477 118.018C103.49 117.986 105.494 117.727 107.45 117.245C109.223 116.964 111.16 117.573 112.466 115.911C112.873 115.326 113.159 114.665 113.306 113.967C114.8 108.324 114.776 102.26 117.016 96.9213C118.206 94.0179 120.213 90.5057 120.026 87.2745C119.894 86.0276 119.563 84.8101 119.046 83.6686C117.926 80.8354 116.713 78.0491 115.36 75.333C114.688 73.5982 113.635 72.0375 112.28 70.7671Z" fill="#F5F5F5"/>
<path d="M107.751 72.2963C107.751 72.2963 106.605 75.243 98.9747 70.8931C98.9747 70.8931 101.037 70.706 100.464 66.3794C100.302 64.89 99.7907 63.4624 98.9747 62.2165C99.1616 62.4113 99.4375 62.487 99.6949 62.414C99.9523 62.341 100.15 62.131 100.212 61.8657C100.352 62.294 100.528 62.7087 100.739 63.1052C101.931 65.4439 104.543 68.227 107.453 67.4318C106.867 68.5723 106.768 69.9091 107.178 71.1269C107.324 71.5382 107.516 71.9306 107.751 72.2963Z" fill="#F4DBBD"/>
<path d="M107.471 71.0703H107.075C104.159 71.3778 100.73 62.7432 100.73 62.7432H100.917C102.13 65.1088 104.789 67.924 107.751 67.1196C107.093 68.3316 106.991 69.7752 107.471 71.0703Z" fill="#DBB384"/>
<path d="M105.333 67.5442C109.533 67.9173 112.117 63.93 112.578 58.7301C112.578 58.1549 112.578 57.572 112.578 56.9813C112.588 55.285 112.394 53.5938 112.001 51.9447C110.156 43.9467 98.9195 47.1412 98.9195 47.1412C90.1521 51.1519 97.9043 66.9379 105.333 67.5442Z" fill="#F4DBBD"/>
<path d="M108.169 46.8541L108.629 50.0211C108.629 50.0211 108.668 53.6263 108.169 54.8467C107.304 57.2936 103.827 56.9858 101.652 58.3943C101.146 58.7542 100.539 58.9435 99.9178 58.9349C99.3318 58.8174 99.3787 58.3708 98.9333 57.9478C98.6257 57.6538 98.1697 57.5792 97.7848 57.7597C97.4718 58.0088 97.2973 58.3936 97.316 58.7939C97.3331 59.7544 97.8366 60.6401 98.6521 61.1442C99.0313 61.3105 99.3926 61.5153 99.7303 61.7553C100.129 62.1079 100.176 62.625 100.387 63.0715L101.09 64.7403C101.35 65.2655 101.478 65.8463 101.465 66.4325C101.34 67.1169 100.92 67.7107 100.316 68.0542C98.7628 68.8512 96.982 69.0837 95.2768 68.7123C94.0638 68.6445 92.8872 68.2727 91.8546 67.6312C91.2824 67.1667 90.7421 66.6642 90.2372 66.127C89.4136 65.5205 88.5155 65.0228 87.5651 64.6462C88.5464 63.9675 89.3963 63.1153 90.0731 62.1314C91.2104 60.2516 91.4675 57.966 90.7763 55.8795C90.4013 54.5633 90.7763 47.5592 95.6987 45.2324C98.8624 43.8426 102.389 43.513 105.754 44.2923C106.378 44.3888 106.962 44.6573 107.442 45.0679C107.994 45.4838 108.169 46.8541 108.169 46.8541Z" fill="#4E4E4E"/>
<path d="M100.73 95.9038L97.4956 103.102C93.2442 97.619 89.9762 91.4294 87.8387 84.8126C85.5118 76.4414 89.6305 74.331 89.6305 74.331C92.7951 73.1586 94.9359 77.6842 98.0308 86.8526C99.7295 91.894 100.73 95.9038 100.73 95.9038Z" fill="#F4DBBD"/>
<path d="M97.6593 102.835C97.6593 102.835 97.5198 97.0816 100.357 95.931C103.194 94.7804 123.005 91.6968 123.005 91.6968L124.866 93.8369C124.866 93.8369 105.403 104.952 97.6593 102.835Z" fill="#F4DBBD"/>
<path d="M129.737 118.369L129.495 118.128C130.417 119.159 131.031 119.883 131.207 120.102C130.746 119.51 130.241 118.918 129.737 118.369Z" fill="#DC9BD5"/>
<path d="M124.855 91.3533C126.553 91.0489 128.27 90.8737 129.994 90.8294C130.922 90.7893 131.852 90.8693 132.761 91.0675C133.898 91.377 134.998 91.8164 136.039 92.3772C136.318 92.5201 136.667 92.7106 136.714 93.044C136.724 93.3584 136.55 93.6489 136.272 93.7822C135.995 93.9021 135.707 93.9899 135.411 94.0441C134.784 94.2584 134.226 94.687 133.621 94.949C132.644 95.3538 131.528 95.3062 130.528 95.6634C129.901 95.9015 129.319 96.3063 128.692 96.5682C127.375 97.0919 125.915 97.0919 124.599 96.5682C124.147 96.3862 123.705 96.1795 123.274 95.9491C122.861 95.6996 122.425 95.4922 121.972 95.33C121.669 95.33 121.46 95.33 121.228 95.0442C120.812 94.3075 120.812 93.3997 121.228 92.663C121.808 92.1269 122.562 91.83 123.344 91.8295L124.855 91.3533Z" fill="#F4DBBD"/>
<path d="M86.3489 77.1623C85.8526 78.6978 85.5119 80.2814 85.3319 81.8881L85.0315 84.062C84.899 84.5088 84.899 84.9857 85.0315 85.4325C85.4013 86.1886 86.8112 85.8814 87.5046 85.9996L91.2952 86.614L98.8532 87.7482C99.0152 86.4301 99.0152 85.0965 98.8532 83.7785C98.6221 82.5497 98.0905 81.4155 97.79 80.1632C97.4895 78.9108 97.4433 78.1074 97.2122 77.1859C96.6772 75.1025 95.4621 73.2685 93.7683 71.9875C91.1103 70.0026 87.2272 74.7993 86.4183 76.9732L86.3489 77.1623Z" fill="#F5F5F5"/>
<path d="M217.897 41.2471H136.275V114.508H217.897V41.2471Z" fill="#F5F5F5"/>
<path d="M147.561 89.7148L157.549 89.6695L157.616 104.503L147.628 104.549L147.561 89.7148Z" fill="#EB5757"/>
<path d="M159.812 74.2656L169.8 74.2203L169.937 104.424L159.949 104.47L159.812 74.2656Z" fill="#EB5757"/>
<path d="M172.187 86.0347L182.175 85.9894L182.259 104.392L172.271 104.437L172.187 86.0347Z" fill="#EB5757"/>
<path d="M184.388 64.5913L194.376 64.546L194.557 104.336L184.569 104.381L184.388 64.5913Z" fill="#EB5757"/>
<path d="M159.812 74.2656L169.8 74.2203L169.937 104.424L159.949 104.47L159.812 74.2656Z" fill="#8F2020"/>
<path d="M184.388 64.5913L194.376 64.546L194.557 104.336L184.569 104.381L184.388 64.5913Z" fill="#8F2020"/>
<path d="M196.659 53.4336L206.647 53.3883L206.878 104.28L196.89 104.325L196.659 53.4336Z" fill="#EB5757"/>
<path d="M164.799 71.5168C165.769 71.5168 166.554 70.7312 166.554 69.7621C166.554 68.793 165.769 68.0073 164.799 68.0073C163.83 68.0073 163.044 68.793 163.044 69.7621C163.044 70.7312 163.83 71.5168 164.799 71.5168Z" fill="#EB5757"/>
<path d="M150.757 87.3098C151.726 87.3098 152.512 86.5242 152.512 85.5551C152.512 84.5859 151.726 83.8003 150.757 83.8003C149.787 83.8003 149.001 84.5859 149.001 85.5551C149.001 86.5242 149.787 87.3098 150.757 87.3098Z" fill="#EB5757"/>
<path d="M177.086 84.239C178.056 84.239 178.842 83.4534 178.842 82.4843C178.842 81.5151 178.056 80.7295 177.086 80.7295C176.117 80.7295 175.331 81.5151 175.331 82.4843C175.331 83.4534 176.117 84.239 177.086 84.239Z" fill="#EB5757"/>
<path d="M188.935 62.7429C189.904 62.7429 190.69 61.9573 190.69 60.9882C190.69 60.019 189.904 59.2334 188.935 59.2334C187.965 59.2334 187.179 60.019 187.179 60.9882C187.179 61.9573 187.965 62.7429 188.935 62.7429Z" fill="#EB5757"/>
<path d="M201.661 52.6531C202.63 52.6531 203.416 51.8674 203.416 50.8983C203.416 49.9292 202.63 49.1436 201.661 49.1436C200.691 49.1436 199.905 49.9292 199.905 50.8983C199.905 51.8674 200.691 52.6531 201.661 52.6531Z" fill="#EB5757"/>
<path d="M151.524 85.9934L150.757 85.3203L165.034 69.1896L176.87 82.2334L188.52 60.811L201.472 50.4595L202.1 51.2718L189.241 61.5305L177.079 84.0206L165.034 70.7215L151.524 85.9934Z" fill="#EB5757"/>
<path opacity="0.31" d="M199.397 18.1824C199.397 22.9163 195.585 26.7575 190.876 26.7705H168.955C164.236 26.7705 160.411 22.9254 160.411 18.1824C160.411 13.4393 164.236 9.59433 168.955 9.59433H172.107C172.094 9.36767 172.094 9.14052 172.107 8.91386C172.056 6.09714 173.505 3.46754 175.907 2.01562C178.309 0.563698 181.299 0.510029 183.751 1.87483C186.203 3.23963 187.744 5.81556 187.794 8.63229V8.91386C187.807 9.14051 187.807 9.36768 187.794 9.59433H190.946C193.21 9.59433 195.381 10.4999 196.979 12.1111C198.578 13.7224 199.473 15.9069 199.467 18.1824H199.397Z" fill="#EB5757"/>
<path d="M196.834 16.9575C196.834 21.6437 193.002 25.4427 188.276 25.4427H166.344C163.184 25.6066 160.191 24.0284 158.561 21.3391C156.932 18.6498 156.932 15.2884 158.561 12.5991C160.191 9.90976 163.184 8.33152 166.344 8.49545H169.477C169.477 8.26362 169.477 8.03178 169.477 7.79995C169.477 3.49782 172.994 0.0102539 177.333 0.0102539C181.672 0.0102539 185.19 3.49782 185.19 7.79995C185.202 8.02389 185.202 8.24832 185.19 8.47227H188.323C193.025 8.51037 196.821 12.2945 196.834 16.9575Z" fill="#F5F5F5"/>
<path d="M266.023 54.9235C266.226 54.8211 266.468 54.8211 266.671 54.9235C266.762 55.0082 266.827 55.1158 266.857 55.2339C267.343 56.3127 266.865 57.5673 265.768 58.0939C265.602 58.2102 265.413 58.2931 265.213 58.3377C265.012 58.3898 264.797 58.3299 264.657 58.1826C264.527 58.0426 264.461 57.8593 264.472 57.6726C264.207 56.515 264.867 55.346 266.023 54.9235Z" fill="#CE9E95"/>
<path d="M245.544 13.6031C245.547 15.4916 245.061 17.346 244.135 18.969V19.1089L239.664 27.6477H230.274L226.473 18.4324C224.172 13.7536 225.527 8.02097 229.648 4.99431C231.347 3.74055 233.38 3.07175 235.461 3.08115C238.135 3.08115 240.7 4.1898 242.59 6.16302C244.481 8.13625 245.544 10.8125 245.544 13.6031Z" fill="#F5F5F5"/>
<path d="M230.345 27.6479H239.839V30.8301C239.839 33.4337 237.781 35.5444 235.242 35.5444H234.782C232.243 35.5444 230.185 33.4337 230.185 30.8301V27.6479H230.345Z" fill="#EB5757"/>
<path d="M233.28 28.3012C233.095 28.3152 232.932 28.1814 232.907 27.9964C231.346 19.7688 231.113 18.503 231.066 18.3155C231.038 18.1158 231.172 17.9294 231.369 17.8936H232.371C232.931 17.8936 233.117 17.8936 233.21 17.4717C233.236 17.2639 233.335 17.0724 233.49 16.9325C233.777 16.7275 234.173 16.7785 234.399 17.0497C234.548 17.2218 234.645 17.4333 234.679 17.6592L234.959 18.7609C234.959 18.7609 234.959 18.7609 234.959 18.5968C235.001 18.3523 235.097 18.1202 235.238 17.917C235.441 17.6966 235.734 17.5839 236.031 17.6123C236.289 17.6319 236.531 17.7491 236.707 17.9405C236.707 17.5185 236.94 17.0966 237.08 16.6981C237.22 16.2996 237.546 16.2059 237.616 16.2528C237.87 16.26 238.084 16.4461 238.129 16.6981C238.219 17.0271 238.274 17.3651 238.292 17.7061C238.273 17.8067 238.273 17.9101 238.292 18.0108H238.571H238.874H239.527C239.636 18.0142 239.739 18.0656 239.807 18.1514C239.85 18.2484 239.85 18.3592 239.807 18.4562L237.919 28.1605C237.915 28.3091 237.824 28.4412 237.687 28.4973C237.55 28.5534 237.393 28.5229 237.287 28.4195C237.18 28.3161 237.145 28.1593 237.196 28.0199L238.991 18.7609H238.618C238.338 18.7609 237.849 18.9015 237.593 18.503C237.487 18.3089 237.431 18.0914 237.429 17.8701C237.386 18.0607 237.331 18.2485 237.266 18.4327C237.126 18.9718 236.777 19.089 236.52 19.0422C236.318 18.9906 236.149 18.8539 236.054 18.6671C236.054 18.6671 236.054 18.5265 235.868 18.5265C235.817 18.4972 235.755 18.4972 235.705 18.5265C235.636 18.6335 235.588 18.7529 235.565 18.8781C235.523 19.09 235.452 19.2951 235.355 19.4875C235.169 19.7736 234.81 19.8907 234.492 19.7688C234.299 19.6379 234.165 19.4358 234.12 19.2063L233.817 17.9405C233.827 17.8941 233.827 17.8462 233.817 17.7998C233.607 18.4559 232.956 18.8628 232.278 18.7609H231.789C232.138 20.683 233.537 28.0199 233.537 28.0199C233.557 28.1133 233.539 28.2111 233.486 28.2907C233.434 28.3704 233.351 28.4249 233.257 28.4418L233.28 28.3012Z" fill="#EB5757"/>
<path d="M266.062 55.7241C266.062 55.7241 264.087 57.0402 265.184 57.2595C266.281 57.4789 266.062 55.7241 266.062 55.7241Z" fill="#C6796B"/>
<path d="M99.4443 60.4188C98.9177 60.4188 97.9084 59.7607 98.1278 59.1027C98.2395 58.7676 98.6894 58.7254 99.0054 58.8834C99.4443 59.1027 98.9312 59.5228 99.8831 59.7607C100.761 59.9801 99.9709 60.4188 99.4443 60.4188Z" fill="#E0BE99"/>
<path d="M143.705 170.639H182.418V165.581H143.705V170.639Z" fill="#EB5757"/>
<path d="M143.705 170.639H182.418V165.581H143.705V170.639Z" fill="url(#paint1_linear)"/>
<path d="M159.261 170.284H182.387V165.993H159.261V170.284Z" fill="#F5F5F5"/>
<path d="M148.725 165.607H179.754V162.361H148.725V165.607Z" fill="#EB5757"/>
<path d="M148.725 165.607H179.754V162.361H148.725V165.607Z" fill="url(#paint2_linear)"/>
<path d="M165.484 165.607H179.759V162.308H165.484V165.607Z" fill="#F5F5F5"/>
<path d="M143.849 162.33H182.857V158.816H143.849V162.33Z" fill="#EB5757"/>
<path d="M168.555 161.483H183.515V159.487H168.555V161.483Z" fill="#F5F5F5"/>
<path d="M191.813 198.649H141.265V208.66H191.813V198.649Z" fill="#EB5757"/>
<path d="M191.813 198.649H141.265V208.66H191.813V198.649Z" fill="url(#paint3_linear)"/>
<path d="M191.721 200.22H173.549V206.774H191.721V200.22Z" fill="#F5F5F5"/>
<path d="M193.907 186.187H135.398V198.663H193.907V186.187Z" fill="#EB5757"/>
<path d="M193.907 186.187H135.398V198.663H193.907V186.187Z" fill="url(#paint4_linear)"/>
<path d="M166.949 187.84H135.503V197H166.949V187.84Z" fill="#F5F5F5"/>
<path d="M191.62 177.193H141.646V186.252H191.62V177.193Z" fill="#EB5757"/>
<path d="M191.62 177.193H141.646V186.252H191.62V177.193Z" fill="url(#paint5_linear)"/>
<path d="M171.781 178.171H141.642V185.383H171.781V178.171Z" fill="#F5F5F5"/>
<path d="M185.135 170.411H145.078V177.211H185.135V170.411Z" fill="#EB5757"/>
<path d="M185.135 170.411H145.078V177.211H185.135V170.411Z" fill="url(#paint6_linear)"/>
<path d="M163.509 170.784H145.078V176.693H163.509V170.784Z" fill="#F5F5F5"/>
<ellipse rx="2.32756" ry="2.32689" transform="matrix(0.836738 -0.196043 0.293303 0.956062 114.348 81.3509)" fill="#385898"/>
<path d="M115.054 83.1058L114.571 83.2189L114.15 81.8482L113.822 81.9252L113.685 81.4789L114.014 81.4019L113.916 81.0843C113.801 80.708 113.863 80.404 114.345 80.2913C114.446 80.2674 114.613 80.2533 114.613 80.2533L114.741 80.6677L114.573 80.7071C114.402 80.7471 114.353 80.8221 114.403 80.9859L114.496 81.2888L114.896 81.1952L114.997 81.6498L114.633 81.7351L115.054 83.1058Z" fill="#F5F5F5"/>
<path d="M246.24 77.0288L247.663 77.3311C247.934 77.3887 248.122 77.4926 248.248 77.6258C248.384 77.7824 248.431 77.977 248.378 78.1928C248.317 78.4424 248.166 78.5736 247.918 78.62L247.914 78.6335C248.194 78.7852 248.308 79.0648 248.237 79.3549C248.169 79.6315 247.996 79.8217 247.767 79.915C247.575 79.9878 247.353 79.9902 247.067 79.9294L245.606 79.6191L246.24 77.0288ZM247.272 78.3126C247.423 78.3446 247.554 78.2944 247.592 78.1392C247.628 77.9908 247.533 77.8926 247.375 77.859L246.886 77.755L246.777 78.2003L247.274 78.3058L247.272 78.3126ZM247.094 79.3321C247.267 79.3689 247.418 79.3016 247.46 79.133C247.504 78.9508 247.388 78.8411 247.223 78.8059L246.666 78.6875L246.535 79.2204L247.092 79.3388L247.094 79.3321Z" fill="white"/>
<path d="M248.807 77.5742L249.552 77.7326L248.917 80.3296L248.171 80.1713L248.807 77.5742Z" fill="white"/>
<path d="M249.293 79.4376C249.437 78.8507 249.954 78.549 250.609 78.6882C251.264 78.8274 251.581 79.3133 251.439 79.8935C251.295 80.4803 250.786 80.7836 250.131 80.6445C249.476 80.5053 249.15 80.0245 249.293 79.4376ZM250.694 79.7351C250.773 79.4113 250.709 79.185 250.484 79.137C250.258 79.089 250.103 79.269 250.024 79.5928C249.944 79.9166 249.999 80.1481 250.224 80.196C250.452 80.2373 250.614 80.0589 250.694 79.7351Z" fill="white"/>
<path d="M251.521 79.9107C251.665 79.3239 252.182 79.0222 252.837 79.1613C253.492 79.3005 253.803 79.7781 253.659 80.365C253.516 80.9518 253.006 81.2551 252.351 81.116C251.704 80.9784 251.378 80.4976 251.521 79.9107ZM252.922 80.2082C253.001 79.8844 252.937 79.6581 252.711 79.6101C252.486 79.5621 252.331 79.7421 252.252 80.0659C252.172 80.3897 252.227 80.6212 252.452 80.6692C252.68 80.7104 252.842 80.532 252.922 80.2082Z" fill="white"/>
<path d="M254.038 79.4661L254.73 79.6132L254.662 79.8898L254.677 79.893C254.866 79.7059 255.082 79.6312 255.383 79.6952C255.647 79.7512 255.814 79.9075 255.863 80.1306L255.878 80.1338C256.103 79.9262 256.339 79.8984 256.595 79.9527C257.077 80.0551 257.202 80.4153 257.099 80.8403L256.815 82.0006L256.092 81.847L256.348 80.8014C256.394 80.6126 256.356 80.4767 256.175 80.4384C255.995 80.4 255.868 80.5292 255.819 80.7315L255.573 81.7366L254.85 81.5831L255.106 80.5375C255.152 80.3486 255.114 80.2128 254.933 80.1744C254.753 80.1361 254.626 80.2653 254.577 80.4676L254.331 81.4727L253.585 81.3144L254.038 79.4661Z" fill="white"/>
<path d="M257.785 81.9513L257.778 81.9497L257.718 82.1926L257.026 82.0454L257.659 79.4551L258.382 79.6086L258.154 80.5395L258.169 80.5427C258.344 80.4096 258.554 80.3619 258.817 80.4179C259.337 80.5283 259.536 81.0105 259.399 81.5704C259.245 82.1977 258.832 82.4932 258.29 82.378C258.065 82.33 257.854 82.186 257.785 81.9513ZM258.655 81.4053C258.728 81.1085 258.655 80.8872 258.437 80.8409C258.211 80.7929 258.028 80.9597 257.955 81.2565C257.882 81.5533 257.978 81.7793 258.196 81.8257C258.414 81.8721 258.581 81.7088 258.655 81.4053Z" fill="white"/>
<path d="M259.48 81.5948C259.622 81.0147 260.148 80.7079 260.765 80.839C261.074 80.9046 261.286 81.0419 261.429 81.2354C261.618 81.4957 261.645 81.8419 261.545 82.2181L260.16 81.9238C260.134 82.1595 260.224 82.3065 260.443 82.3529C260.571 82.3801 260.697 82.3501 260.772 82.2383L261.472 82.3871C261.247 82.7864 260.827 82.9172 260.308 82.8068C259.67 82.6641 259.336 82.1817 259.48 81.5948ZM260.25 81.5527L260.913 81.6935C260.952 81.4677 260.845 81.3242 260.672 81.2874C260.47 81.2375 260.326 81.3417 260.25 81.5527Z" fill="white"/>
<path d="M262.556 81.6097L262.571 81.6129C262.785 81.3885 263.005 81.3289 263.254 81.3817C263.314 81.3945 263.35 81.4092 263.369 81.4275L263.23 81.9942L263.215 81.991C262.803 81.8323 262.51 81.9617 262.408 82.3799L262.218 83.1557L261.488 83.0005L261.941 81.1455L262.634 81.2926L262.556 81.6097Z" fill="white"/>
<path d="M262.986 83.3193L263.686 83.468C263.696 83.5554 263.768 83.6488 263.941 83.6855C264.175 83.7351 264.289 83.6246 264.337 83.4289L264.37 83.294L264.355 83.2908C264.212 83.3883 264.033 83.4424 263.807 83.3944C263.363 83.3 263.044 82.92 263.186 82.3399C263.316 81.807 263.733 81.4627 264.215 81.5651C264.493 81.6242 264.634 81.7606 264.709 81.9398L264.724 81.943L264.773 81.7406L265.466 81.8877L265.073 83.4932C265.001 83.79 264.832 83.9954 264.626 84.0935C264.41 84.1968 264.139 84.2031 263.846 84.1407C263.287 84.0291 262.953 83.7451 262.986 83.3193ZM264.57 82.6056C264.626 82.3763 264.552 82.1618 264.341 82.117C264.138 82.0738 263.97 82.2085 263.907 82.4649C263.846 82.7145 263.931 82.917 264.135 82.9602C264.338 83.0034 264.51 82.8485 264.57 82.6056Z" fill="white"/>
</g>
<defs>
<linearGradient id="paint0_linear" x1="97.4048" y1="106.636" x2="165.392" y2="171.759" gradientUnits="userSpaceOnUse">
<stop offset="0.01"/>
<stop offset="0.08" stop-opacity="0.69"/>
<stop offset="0.21" stop-opacity="0.32"/>
<stop offset="1" stop-opacity="0"/>
</linearGradient>
<linearGradient id="paint1_linear" x1="154.487" y1="167.152" x2="154.829" y2="173.008" gradientUnits="userSpaceOnUse">
<stop stop-opacity="0"/>
<stop offset="0.99"/>
</linearGradient>
<linearGradient id="paint2_linear" x1="170.723" y1="166.932" x2="167.205" y2="150.904" gradientUnits="userSpaceOnUse">
<stop stop-opacity="0"/>
<stop offset="0.99"/>
</linearGradient>
<linearGradient id="paint3_linear" x1="163.483" y1="199.615" x2="165.656" y2="223.525" gradientUnits="userSpaceOnUse">
<stop stop-opacity="0"/>
<stop offset="0.99"/>
</linearGradient>
<linearGradient id="paint4_linear" x1="162.824" y1="189.306" x2="163.439" y2="209.373" gradientUnits="userSpaceOnUse">
<stop stop-opacity="0"/>
<stop offset="0.99"/>
</linearGradient>
<linearGradient id="paint5_linear" x1="162.386" y1="181.729" x2="243.208" y2="178.027" gradientUnits="userSpaceOnUse">
<stop stop-opacity="0"/>
<stop offset="0.99"/>
</linearGradient>
<linearGradient id="paint6_linear" x1="161.508" y1="175.048" x2="163.797" y2="162.802" gradientUnits="userSpaceOnUse">
<stop stop-opacity="0"/>
<stop offset="0.99"/>
</linearGradient>
<clipPath id="clip0">
<rect width="343" height="211.01" fill="white" transform="translate(0 0.0102539)"/>
</clipPath>
</defs>
</svg>
