<svg width="101" height="85" viewBox="0 0 101 85" fill="none" xmlns="http://www.w3.org/2000/svg">
<circle cx="50.5" cy="24.0103" r="24" fill="white"/>
<g filter="url(#filter0_ddddddd)">
<path d="M53 9.01025H48C46.5833 9.01025 45.5 10.0936 45.5 11.5103V14.0103H47.1667V11.5103C47.1667 11.0103 47.5 10.6769 48 10.6769H53C53.5 10.6769 53.8333 11.0103 53.8333 11.5103V14.0103H55.5V11.5103C55.5 10.0936 54.4167 9.01025 53 9.01025Z" fill="#AF2A2A"/>
<path d="M63.8333 39.0102H37.1667C35.3333 39.0102 33.8333 37.5102 33.8333 35.6768V15.6768C33.8333 13.8435 35.3333 12.3435 37.1667 12.3435H63.8333C65.6667 12.3435 67.1667 13.8435 67.1667 15.6768V35.6768C67.1667 37.5102 65.6667 39.0102 63.8333 39.0102Z" fill="#AF2A2A"/>
<path d="M63.8333 26.5102H37.1667C35.3333 26.5102 33.8333 25.0102 33.8333 23.1768V15.6768C33.8333 13.8435 35.3333 12.3435 37.1667 12.3435H63.8333C65.6667 12.3435 67.1667 13.8435 67.1667 15.6768V23.1768C67.1667 25.0102 65.6667 26.5102 63.8333 26.5102Z" fill="#EB5757"/>
<path d="M52.1667 24.8436H48.8333C48.3333 24.8436 48 24.5103 48 24.0103V22.3436C48 21.8436 48.3333 21.5103 48.8333 21.5103H52.1667C52.6667 21.5103 53 21.8436 53 22.3436V24.0103C53 24.5103 52.6667 24.8436 52.1667 24.8436Z" fill="#FFF3E0"/>
</g>
<defs>
<filter id="filter0_ddddddd" x="-2.5" y="-16.9897" width="106" height="106" filterUnits="userSpaceOnUse" color-interpolation-filters="sRGB">
<feFlood flood-opacity="0" result="BackgroundImageFix"/>
<feColorMatrix in="SourceAlpha" type="matrix" values="0 0 0 0 0 0 0 0 0 0 0 0 0 0 0 0 0 0 127 0"/>
<feOffset dy="0.278066"/>
<feGaussianBlur stdDeviation="0.382341"/>
<feColorMatrix type="matrix" values="0 0 0 0 0.921569 0 0 0 0 0.341176 0 0 0 0 0.341176 0 0 0 0.0928788 0"/>
<feBlend mode="normal" in2="BackgroundImageFix" result="effect1_dropShadow"/>
<feColorMatrix in="SourceAlpha" type="matrix" values="0 0 0 0 0 0 0 0 0 0 0 0 0 0 0 0 0 0 127 0"/>
<feOffset dy="0.646526"/>
<feGaussianBlur stdDeviation="0.888974"/>
<feColorMatrix type="matrix" values="0 0 0 0 0.921569 0 0 0 0 0.341176 0 0 0 0 0.341176 0 0 0 0.123101 0"/>
<feBlend mode="normal" in2="effect1_dropShadow" result="effect2_dropShadow"/>
<feColorMatrix in="SourceAlpha" type="matrix" values="0 0 0 0 0 0 0 0 0 0 0 0 0 0 0 0 0 0 127 0"/>
<feOffset dy="1.16101"/>
<feGaussianBlur stdDeviation="1.59639"/>
<feColorMatrix type="matrix" values="0 0 0 0 0.921569 0 0 0 0 0.341176 0 0 0 0 0.341176 0 0 0 0.144267 0"/>
<feBlend mode="normal" in2="effect2_dropShadow" result="effect3_dropShadow"/>
<feColorMatrix in="SourceAlpha" type="matrix" values="0 0 0 0 0 0 0 0 0 0 0 0 0 0 0 0 0 0 127 0"/>
<feOffset dy="1.92685"/>
<feGaussianBlur stdDeviation="2.64942"/>
<feColorMatrix type="matrix" values="0 0 0 0 0.921569 0 0 0 0 0.341176 0 0 0 0 0.341176 0 0 0 0.167431 0"/>
<feBlend mode="normal" in2="effect3_dropShadow" result="effect4_dropShadow"/>
<feColorMatrix in="SourceAlpha" type="matrix" values="0 0 0 0 0 0 0 0 0 0 0 0 0 0 0 0 0 0 127 0"/>
<feOffset dy="3.17442"/>
<feGaussianBlur stdDeviation="4.36483"/>
<feColorMatrix type="matrix" values="0 0 0 0 0.921569 0 0 0 0 0.341176 0 0 0 0 0.341176 0 0 0 0.201345 0"/>
<feBlend mode="normal" in2="effect4_dropShadow" result="effect5_dropShadow"/>
<feColorMatrix in="SourceAlpha" type="matrix" values="0 0 0 0 0 0 0 0 0 0 0 0 0 0 0 0 0 0 127 0"/>
<feOffset dy="5.54796"/>
<feGaussianBlur stdDeviation="7.62845"/>
<feColorMatrix type="matrix" values="0 0 0 0 0.921569 0 0 0 0 0.341176 0 0 0 0 0.341176 0 0 0 0.260961 0"/>
<feBlend mode="normal" in2="effect5_dropShadow" result="effect6_dropShadow"/>
<feColorMatrix in="SourceAlpha" type="matrix" values="0 0 0 0 0 0 0 0 0 0 0 0 0 0 0 0 0 0 127 0"/>
<feOffset dy="12"/>
<feGaussianBlur stdDeviation="16.5"/>
<feColorMatrix type="matrix" values="0 0 0 0 0.921569 0 0 0 0 0.341176 0 0 0 0 0.341176 0 0 0 0.41 0"/>
<feBlend mode="normal" in2="effect6_dropShadow" result="effect7_dropShadow"/>
<feBlend mode="normal" in="SourceGraphic" in2="effect7_dropShadow" result="shape"/>
</filter>
</defs>
</svg>
