<svg width="107" height="88" viewBox="0 0 107 88" fill="none" xmlns="http://www.w3.org/2000/svg">
<circle cx="53.5" cy="24" r="24" fill="white"/>
<g clip-path="url(#clip0)" filter="url(#filter0_ddddddd)">
<path d="M66 20.6667H41V31.5001H66V20.6667Z" fill="#AF2A2A"/>
<path d="M53.5 36.5C60.4036 36.5 66 34.2614 66 31.5C66 28.7386 60.4036 26.5 53.5 26.5C46.5964 26.5 41 28.7386 41 31.5C41 34.2614 46.5964 36.5 53.5 36.5Z" fill="#AF2A2A"/>
<path d="M52.75 10.8333L34 19.0833C33.3333 19.4166 33.3333 20.3333 34 20.6666L52.75 28.9166C53.25 29.0833 53.75 29.0833 54.25 28.9166L73 20.6666C73.6667 20.3333 73.6667 19.4166 73 19.0833L54.25 10.8333C53.75 10.5833 53.25 10.5833 52.75 10.8333Z" fill="#EB5757"/>
<path d="M69.5 21L52.8334 18.1667C52.4167 18.0833 51.9167 18.4167 51.8334 18.8333C51.75 19.25 52.0834 19.75 52.5 19.8333L68.5 22.5V34.8333C68.5 35.3333 68.8334 35.6667 69.3334 35.6667C69.8334 35.6667 70.1667 35.3333 70.1667 34.8333V21.8333C70.1667 21.4167 69.8334 21.0833 69.5 21Z" fill="#AF2A2A"/>
<path d="M69.3333 36.5001C70.2538 36.5001 71 35.7539 71 34.8334C71 33.9129 70.2538 33.1667 69.3333 33.1667C68.4128 33.1667 67.6667 33.9129 67.6667 34.8334C67.6667 35.7539 68.4128 36.5001 69.3333 36.5001Z" fill="#AF2A2A"/>
<path d="M71.8333 37.3333C71.8333 38.7499 69.3333 42.3333 69.3333 42.3333C69.3333 42.3333 66.8333 38.7499 66.8333 37.3333C66.8333 35.9166 67.9167 34.8333 69.3333 34.8333C70.75 34.8333 71.8333 35.9166 71.8333 37.3333Z" fill="#AF2A2A"/>
</g>
<defs>
<filter id="filter0_ddddddd" x="0.5" y="-17" width="106" height="106" filterUnits="userSpaceOnUse" color-interpolation-filters="sRGB">
<feFlood flood-opacity="0" result="BackgroundImageFix"/>
<feColorMatrix in="SourceAlpha" type="matrix" values="0 0 0 0 0 0 0 0 0 0 0 0 0 0 0 0 0 0 127 0"/>
<feOffset dy="0.278066"/>
<feGaussianBlur stdDeviation="0.382341"/>
<feColorMatrix type="matrix" values="0 0 0 0 0.921569 0 0 0 0 0.341176 0 0 0 0 0.341176 0 0 0 0.0928788 0"/>
<feBlend mode="normal" in2="BackgroundImageFix" result="effect1_dropShadow"/>
<feColorMatrix in="SourceAlpha" type="matrix" values="0 0 0 0 0 0 0 0 0 0 0 0 0 0 0 0 0 0 127 0"/>
<feOffset dy="0.646526"/>
<feGaussianBlur stdDeviation="0.888974"/>
<feColorMatrix type="matrix" values="0 0 0 0 0.921569 0 0 0 0 0.341176 0 0 0 0 0.341176 0 0 0 0.123101 0"/>
<feBlend mode="normal" in2="effect1_dropShadow" result="effect2_dropShadow"/>
<feColorMatrix in="SourceAlpha" type="matrix" values="0 0 0 0 0 0 0 0 0 0 0 0 0 0 0 0 0 0 127 0"/>
<feOffset dy="1.16101"/>
<feGaussianBlur stdDeviation="1.59639"/>
<feColorMatrix type="matrix" values="0 0 0 0 0.921569 0 0 0 0 0.341176 0 0 0 0 0.341176 0 0 0 0.144267 0"/>
<feBlend mode="normal" in2="effect2_dropShadow" result="effect3_dropShadow"/>
<feColorMatrix in="SourceAlpha" type="matrix" values="0 0 0 0 0 0 0 0 0 0 0 0 0 0 0 0 0 0 127 0"/>
<feOffset dy="1.92685"/>
<feGaussianBlur stdDeviation="2.64942"/>
<feColorMatrix type="matrix" values="0 0 0 0 0.921569 0 0 0 0 0.341176 0 0 0 0 0.341176 0 0 0 0.167431 0"/>
<feBlend mode="normal" in2="effect3_dropShadow" result="effect4_dropShadow"/>
<feColorMatrix in="SourceAlpha" type="matrix" values="0 0 0 0 0 0 0 0 0 0 0 0 0 0 0 0 0 0 127 0"/>
<feOffset dy="3.17442"/>
<feGaussianBlur stdDeviation="4.36483"/>
<feColorMatrix type="matrix" values="0 0 0 0 0.921569 0 0 0 0 0.341176 0 0 0 0 0.341176 0 0 0 0.201345 0"/>
<feBlend mode="normal" in2="effect4_dropShadow" result="effect5_dropShadow"/>
<feColorMatrix in="SourceAlpha" type="matrix" values="0 0 0 0 0 0 0 0 0 0 0 0 0 0 0 0 0 0 127 0"/>
<feOffset dy="5.54796"/>
<feGaussianBlur stdDeviation="7.62845"/>
<feColorMatrix type="matrix" values="0 0 0 0 0.921569 0 0 0 0 0.341176 0 0 0 0 0.341176 0 0 0 0.260961 0"/>
<feBlend mode="normal" in2="effect5_dropShadow" result="effect6_dropShadow"/>
<feColorMatrix in="SourceAlpha" type="matrix" values="0 0 0 0 0 0 0 0 0 0 0 0 0 0 0 0 0 0 127 0"/>
<feOffset dy="12"/>
<feGaussianBlur stdDeviation="16.5"/>
<feColorMatrix type="matrix" values="0 0 0 0 0.921569 0 0 0 0 0.341176 0 0 0 0 0.341176 0 0 0 0.41 0"/>
<feBlend mode="normal" in2="effect6_dropShadow" result="effect7_dropShadow"/>
<feBlend mode="normal" in="SourceGraphic" in2="effect7_dropShadow" result="shape"/>
</filter>
<clipPath id="clip0">
<rect width="40" height="40" fill="white" transform="translate(33.5 4)"/>
</clipPath>
</defs>
</svg>
