<svg width="343" height="212" viewBox="0 0 343 212" fill="none" xmlns="http://www.w3.org/2000/svg">
<g clip-path="url(#clip0)">
<path fill-rule="evenodd" clip-rule="evenodd" d="M169.306 7.90522C207.999 3.22282 251.648 -8.79818 282.142 11.0416C313.847 31.6695 313.633 69.4588 314.511 102.378C315.416 136.298 318.47 175.222 287.124 197.747C256.458 219.783 210.282 208.008 169.306 206.718C130.939 205.511 89.455 210.837 60.3051 190.609C29.6344 169.325 13.6383 134.795 18.9468 102.378C23.8175 72.6342 56.5391 53.1966 85.8198 34.7992C110.416 19.3451 138.512 11.6317 169.306 7.90522Z" fill="#1C1E23"/>
<path d="M283.04 192.794C280.621 195.216 279.68 198.744 280.569 202.048C281.459 205.353 284.045 207.931 287.353 208.813V211.002H172.065C167.134 211.005 162.757 207.846 161.208 203.166C160.817 202.004 160.619 200.786 160.619 199.559C160.616 196.524 161.822 193.612 163.969 191.466C166.116 189.32 169.028 188.115 172.065 188.117H287.353V190.306C285.72 190.74 284.232 191.598 283.04 192.794Z" fill="#EB5757"/>
<path d="M287.353 208.813V211.002H172.065C167.134 211.005 162.757 207.846 161.208 203.166C165.587 203.937 193.314 208.357 208.749 199.56L281.049 203.415C282.219 206.08 284.539 208.066 287.353 208.813Z" fill="#AC4040"/>
<path d="M283.04 192.794C280.621 195.216 279.68 198.744 280.569 202.048C281.459 205.353 284.045 207.932 287.353 208.813V209.12H218.329C214.841 209.222 211.573 207.421 209.798 204.417C208.024 201.413 208.024 197.682 209.798 194.678C211.573 191.674 214.841 189.872 218.329 189.975H287.353V190.29C285.719 190.728 284.23 191.592 283.04 192.794Z" fill="#F5F5F5"/>
<path d="M195.595 166.12H132.402L143.583 134.596H186.165L195.595 166.12Z" fill="#EB5757"/>
<path d="M195.595 166.12H132.402L143.583 134.596H186.165L195.595 166.12Z" fill="url(#paint0_linear)"/>
<path d="M212.913 168.914C210.495 171.336 209.553 174.864 210.443 178.169C211.332 181.473 213.918 184.052 217.226 184.933V187.122H101.938C97.0026 187.123 92.6244 183.956 91.0808 179.27C90.6901 178.108 90.4919 176.89 90.4919 175.663C90.4897 172.628 91.6949 169.716 93.8419 167.57C95.9889 165.424 98.9015 164.219 101.938 164.221H217.226V166.41C215.592 166.848 214.104 167.713 212.913 168.914Z" fill="#EB5757"/>
<path d="M217.226 184.933V187.122H101.938C97.0026 187.123 92.6244 183.957 91.0808 179.27C95.4601 180.041 123.187 184.461 138.623 175.664L210.922 179.519C212.088 182.19 214.409 184.183 217.226 184.933Z" fill="#AA3F3F"/>
<path d="M212.913 168.914C210.495 171.336 209.553 174.864 210.443 178.169C211.332 181.473 213.918 184.052 217.226 184.933V185.257H148.202C144.714 185.359 141.446 183.558 139.672 180.554C137.897 177.55 137.897 173.819 139.672 170.815C141.446 167.811 144.714 166.009 148.202 166.112H217.226V166.427C215.594 166.86 214.106 167.718 212.913 168.914Z" fill="#F5F5F5"/>
<path d="M217.11 188.681C216.735 188.674 216.362 188.73 216.007 188.847C215.644 188.972 215.386 189.295 215.343 189.676C215.374 190.047 215.589 190.377 215.916 190.555C216.222 190.754 216.579 190.87 216.886 191.077C217.145 191.292 217.422 191.484 217.715 191.649C218.241 191.807 218.804 191.787 219.316 191.591C221.706 191.009 224.18 190.855 226.623 191.135C226.86 191.165 227.1 191.165 227.337 191.135C228.044 190.931 228.596 190.376 228.796 189.668C229.286 188.183 229.43 186.607 229.219 185.058C229.216 184.885 229.174 184.714 229.095 184.56C228.996 184.44 228.871 184.343 228.73 184.278C226.416 183.134 225.147 185.423 223.447 186.542C221.555 187.791 219.372 188.528 217.11 188.681Z" fill="#FFBBAB"/>
<path d="M273.07 154.653C273.07 154.653 273.651 163.309 265.912 165.921C258.174 168.533 244.306 166.402 244.306 166.402C244.306 166.402 238.724 177.09 233.018 182.156L229.369 185.763C227.789 186.145 226.148 185.434 225.346 184.021C225.346 184.021 236.128 162.538 237.58 160.93C239.226 158.949 241.427 157.506 243.9 156.784L259.343 151.925L273.07 154.653Z" fill="#8D8D8D"/>
<path d="M273.734 165.407H252.343C251.839 165.407 251.431 165.815 251.431 166.319V170.042C251.431 170.546 251.839 170.954 252.343 170.954H273.734C274.238 170.954 274.646 170.546 274.646 170.042V166.319C274.646 165.815 274.238 165.407 273.734 165.407Z" fill="#BCBCBC"/>
<path d="M275.94 189.104L273.344 170.954H269.421L272.68 189.104H275.94Z" fill="#BCBCBC"/>
<path d="M255.984 170.954H252.061L250.104 189.104H254.027L255.984 170.954Z" fill="#BCBCBC"/>
<path d="M93.3616 170.954H97.2848L99.2422 189.104H95.319L93.3616 170.954Z" fill="#BCBCBC"/>
<path d="M73.4061 189.104L76.0022 170.954H79.9253L76.6657 189.104H73.4061Z" fill="#BCBCBC"/>
<path d="M173.607 192.802C171.189 195.224 170.247 198.752 171.137 202.057C172.027 205.361 174.612 207.94 177.92 208.821V211.01H62.632C57.7012 211.013 53.3244 207.854 51.775 203.175C51.3843 202.012 51.1862 200.794 51.1862 199.568C51.184 196.533 52.3892 193.621 54.5362 191.475C56.6831 189.328 59.5957 188.124 62.632 188.126H177.92V190.315C176.288 190.748 174.8 191.606 173.607 192.802Z" fill="#EB5757"/>
<path d="M177.92 208.821V211.01H62.632C57.7012 211.013 53.3244 207.854 51.775 203.175C56.1543 203.946 83.8815 208.365 99.3169 199.568L171.617 203.423C172.787 206.088 175.107 208.075 177.92 208.821Z" fill="#A83F3F"/>
<path d="M173.607 192.802C171.189 195.224 170.247 198.752 171.137 202.057C172.027 205.361 174.612 207.94 177.92 208.821V209.12H108.897C105.408 209.222 102.14 207.421 100.366 204.417C98.5914 201.413 98.5914 197.682 100.366 194.678C102.14 191.674 105.408 189.872 108.897 189.975H177.92V190.29C176.285 190.73 174.797 191.597 173.607 192.802Z" fill="#F5F5F5"/>
<path d="M248.536 20.1482H84.7856C78.5192 20.1482 73.4392 25.2265 73.4392 31.4909V135.076C73.4392 141.341 78.5192 146.419 84.7856 146.419H248.536C254.803 146.419 259.883 141.341 259.883 135.076V31.4909C259.883 25.2265 254.803 20.1482 248.536 20.1482Z" fill="#EB5757"/>
<path d="M218.545 145.748H216.197V188.681H218.545V145.748Z" fill="#F5F5F5"/>
<path d="M221.423 126.296L229.709 143.882L245.02 143.774L244.895 142.448L230.812 142.29L223.015 125.649L221.423 126.296Z" fill="#473F47"/>
<path d="M259.883 31.4827V122.341H73.4807V31.4827C73.4807 25.2228 78.557 20.1482 84.8188 20.1482H248.545C254.806 20.1482 259.883 25.2228 259.883 31.4827Z" fill="#473F47"/>
<path d="M257.079 33.6468V119.306H76.2675V33.6468C76.3041 27.6054 81.2305 22.7362 87.2738 22.7682H246.073C252.116 22.7362 257.043 27.6054 257.079 33.6468Z" fill="#F5F5F5"/>
<path opacity="0.18" d="M257.079 33.6468V119.306H76.2675V33.6468C76.3041 27.6054 81.2305 22.7362 87.2738 22.7682H246.073C252.116 22.7362 257.043 27.6054 257.079 33.6468Z" fill="#F5F5F5"/>
<path d="M228.348 29.3271C228.241 27.7766 228.348 26.1846 228.183 24.6424C227.665 20.144 225.251 16.0805 221.547 13.4738C217.839 10.9065 213.318 9.78838 208.841 10.3313C201.583 11.1604 195.487 16.1353 191.995 22.412C188.022 29.551 191.738 35.3965 194.948 41.8721C197.353 46.7143 195.935 52.7588 192.816 57.1782C190.37 60.6357 186.753 63.9523 187.06 68.181C187.251 70.7514 188.893 72.9486 190.477 74.98C191.539 76.3398 192.725 77.7825 194.401 78.1722C195.245 78.3256 196.111 78.3256 196.955 78.1722C198.848 77.9054 200.723 77.5261 202.57 77.0363C204.362 76.5554 206.203 75.9584 208.044 76.2072C211.163 76.6051 213.469 79.2336 215.269 81.7956C217.068 84.3577 218.843 87.21 221.705 88.4869C223.878 89.4653 226.366 89.374 228.738 89.175C235.664 88.6029 243.004 86.9944 247.765 81.9366C248.817 80.7745 249.784 79.5387 250.66 78.2386C251.195 77.5561 251.628 76.7991 251.945 75.9916C252.775 73.5788 251.448 71.0167 249.955 68.9024C248.462 66.788 246.637 64.7566 246.421 62.2194C246.222 60.2295 247.018 58.2975 247.251 56.3242C247.757 52.5598 246.289 48.7375 243.933 45.7442C241.494 42.8328 238.57 40.3644 235.291 38.4477C232.802 36.8889 230.148 35.2721 228.987 32.6437C228.579 31.5847 228.363 30.4617 228.348 29.3271Z" fill="#4E4E4E"/>
<path d="M224.276 36.8142C224.823 38.4724 225.105 40.2551 226.059 41.7476C227.22 43.638 229.194 44.8486 231.152 45.8933C232.208 46.3638 233.165 47.0307 233.972 47.8584C234.534 48.5774 234.928 49.4132 235.125 50.3044C235.409 51.4762 235.479 52.6896 235.332 53.8863C235.096 54.8825 235.032 55.9115 235.141 56.9293C235.432 58.1979 236.468 59.1265 237.372 60.0635C239.173 61.7604 240.39 63.9838 240.848 66.4148C241.179 68.8525 240.192 71.5638 238.036 72.7578C237.254 73.1594 236.415 73.4391 235.548 73.5869C234.155 73.8617 232.744 74.0335 231.326 74.101C230.316 74.1768 229.3 74.0928 228.315 73.8522C227.115 73.4234 225.994 72.7986 224.998 72.0032L211.793 62.6173C210.258 61.6735 208.93 60.4298 207.887 58.9607C207.164 57.63 206.684 56.1813 206.469 54.6823C205.747 51.0423 205.191 47.1453 206.601 43.7127C207.696 41.0262 209.869 38.9451 211.976 36.9468L217.326 31.889C218.877 30.4214 220.096 29.7747 221.473 31.5739C222.687 33.1557 223.634 34.926 224.276 36.8142Z" fill="url(#paint1_linear)"/>
<path d="M233.474 84.8469C237.862 89.7637 239.686 95.8165 243.012 101.43C243.404 102.232 244.002 102.916 244.746 103.411C245.965 104.075 247.483 103.61 248.71 102.964C258.589 97.6904 259.493 82.6082 269.18 76.9948C271.428 75.7014 273.983 75.0215 276.214 73.6782C277.043 73.1807 277.939 72.2936 277.607 71.3815C277.3 70.8145 276.761 70.4091 276.131 70.2704C273.58 69.3899 270.873 69.0538 268.185 69.2837C266.982 69.3915 265.307 69.2837 265.174 68.0649C265.207 67.7147 265.207 67.3621 265.174 67.0119C264.909 66.133 263.441 66.4564 263.076 67.3021C262.711 68.1478 262.985 69.1096 262.951 70.03C262.786 71.4703 262.229 72.838 261.342 73.985C259.252 77.2076 256.964 80.2979 254.491 83.2383C247.491 91.5298 245.725 78.3049 240.192 75.5438C239.666 75.3257 239.103 75.2103 238.534 75.2039C233.607 74.8667 228.675 74.7672 223.737 74.9054C225.487 76.3066 231.898 83.0891 233.474 84.8469Z" fill="#F4DBBD"/>
<path d="M219.358 54.2346C219.358 54.2346 233.69 60.6937 234.536 62.3852C235.382 64.0766 234.536 112.333 234.536 112.333H184.008L186.911 61.4814L201.691 55.4286L219.358 54.2346Z" fill="#EB5757"/>
<path d="M184 112.341H234.536C234.536 112.341 235.365 64.0849 234.536 62.3769C233.706 60.6688 219.358 54.2346 219.358 54.2346L201.699 55.4203L186.919 61.4731L185.518 85.8915L184 112.341Z" fill="url(#paint2_linear)"/>
<path d="M234.536 62.3604L246.571 77.683C244.149 84.8386 234.536 93.9178 234.536 93.9178V62.3604Z" fill="#EB5757"/>
<path d="M234.536 76.2817L242.059 85.5267L234.536 93.9426V76.2817Z" fill="url(#paint3_linear)"/>
<path d="M143.981 60.3704C143.445 59.8524 142.781 59.4861 142.056 59.3091C141.324 59.2161 140.588 59.1608 139.85 59.1433C138.332 58.9692 136.74 58.1649 135.371 58.8448C134.433 59.3898 133.869 60.4054 133.903 61.4898C133.945 62.5537 134.25 63.5908 134.791 64.5079C137.08 68.8609 140.447 70.3119 144.404 72.6418C146.486 73.869 147.937 76.7876 149.38 78.819L154.614 86.0658C156.754 89.0258 158.927 92.0273 161.788 94.3075C162.253 94.7114 162.787 95.0287 163.364 95.2444C164.415 95.4962 165.52 95.3852 166.499 94.9294C170.646 93.3291 174.337 90.2944 177.92 87.6743C179.579 86.4472 181.296 85.1869 182.963 83.9514C183.685 83.4125 185.028 82.7243 185.493 81.9117C185.748 81.3938 185.898 80.83 185.932 80.2534C186.563 75.3614 185.692 70.3783 185.816 65.4448C180.359 71.68 174.055 78.2718 166.74 82.2931C166.522 82.4391 166.271 82.5275 166.01 82.5502C165.745 82.5283 165.489 82.443 165.263 82.3014C159.199 79.0709 153.859 74.6354 149.571 69.2672C147.987 67.0598 146.6 64.7182 145.424 62.2692C145.049 61.5622 144.562 60.9209 143.981 60.3704Z" fill="#F4DBBD"/>
<path d="M186.911 61.4814L175.026 76.4559C177.439 83.6114 185.493 92.6906 185.493 92.6906L186.911 61.4814Z" fill="#EB5757"/>
<path d="M218.993 47.3692C218.503 49.9727 219.258 51.9544 219.366 54.3423C219.515 57.8828 215.766 63.4132 214.273 66.6469C213.792 67.6916 213.22 68.8276 212.167 69.3002C211.421 69.5715 210.621 69.6541 209.836 69.5406C208.666 69.5706 207.508 69.3054 206.468 68.7695C205.108 67.9404 204.519 66.2821 204.047 64.7399C203.275 62.2524 201.318 58.314 201.791 55.7519C201.94 54.9227 202.686 54.0936 202.894 53.1981C203.09 52.04 203.154 50.8634 203.084 49.6908C203.026 43.4556 218.993 47.3692 218.993 47.3692Z" fill="#F4DBBD"/>
<path d="M218.993 47.3694C218.993 47.3694 216.969 58.2147 210.524 57.5845C206.913 57.3656 203.876 54.7983 203.06 51.2747L218.993 47.3694Z" fill="#E0BE99"/>
<path d="M219.557 45.4955C219.165 47.2293 218.487 48.8855 217.549 50.3958C214.912 54.2513 208.924 55.437 204.959 52.8832C202.824 51.3496 201.173 49.238 200.198 46.7973C197.879 41.6858 197.104 36.0088 197.967 30.4631C198.195 28.298 199.022 26.2394 200.356 24.5181C202.703 21.8067 206.709 21.102 210.309 21.2927C213.568 21.4668 216.944 22.2794 219.391 24.3605C222.08 26.7356 223.249 30.3939 222.435 33.8874C221.514 37.7513 220.61 41.6317 219.557 45.4955Z" fill="#F4DBBD"/>
<path d="M219.358 54.2346L222.725 55.7934L221.066 71.3648L212.142 74.7975C212.142 74.7975 215.882 63.3884 219.358 54.2346Z" fill="url(#paint4_linear)"/>
<path d="M218.213 72.4675L219.349 78.4374L208.534 90.5181L212.142 74.8389L218.213 72.4675Z" fill="url(#paint5_linear)"/>
<path d="M201.575 55.5198L198.208 57.0703L196.283 71.3648L205.175 74.7975C205.175 74.7975 201.691 60.4118 201.575 55.5198Z" fill="url(#paint6_linear)"/>
<path d="M199.112 72.4675L197.967 78.4374L208.783 90.5181L205.175 74.8389L199.112 72.4675Z" fill="url(#paint7_linear)"/>
<path d="M194.741 112.151L228.1 106.206L234.536 76.2817V109.589V112.333L194.741 112.151Z" fill="url(#paint8_linear)"/>
<path d="M257.079 109.464H76.2426V119.314H257.079V109.464Z" fill="#FFD1D1"/>
<path d="M260.098 125.989C258.93 126.515 257.861 127.239 256.938 128.128C256.008 129.027 255.499 130.276 255.537 131.569C255.661 133.12 256.772 134.397 257.942 135.408C259.277 136.586 260.903 137.813 261.011 139.554C261.964 138.841 262.835 138.012 263.822 137.34C265.548 136.163 267.58 135.533 269.479 134.662C271.378 133.791 273.261 132.564 274.165 130.682C274.653 129.492 274.934 128.227 274.995 126.943C275.189 125.569 275.225 124.178 275.102 122.797C274.972 121.407 274.362 120.105 273.377 119.115C271.878 117.967 270.111 117.219 268.243 116.943C266.096 117.053 264.211 118.404 263.416 120.401C263.026 121.437 263.209 122.614 262.827 123.651C262.346 124.861 261.177 125.442 260.098 125.989Z" fill="#FCD8CA"/>
<path d="M261.948 114.928C261.666 115.409 261.077 115.691 260.886 116.214C260.695 116.736 261.102 117.515 261.326 118.154C261.649 119.041 261.55 120.036 261.857 120.931C261.91 121.125 262.02 121.298 262.172 121.429C262.314 121.526 262.475 121.591 262.645 121.62C263.308 121.753 263.986 121.793 264.66 121.736C264.792 121.71 264.929 121.727 265.05 121.785C265.149 121.873 265.211 121.994 265.224 122.125C265.612 123.815 265.583 125.573 265.141 127.25C265 127.805 264.843 128.477 265.249 128.908C265.396 129.041 265.577 129.133 265.771 129.173C267.049 129.48 268.26 128.535 269.139 127.515C269.909 126.629 270.571 125.654 271.113 124.613C271.282 124.324 271.397 124.006 271.453 123.676C271.477 123.249 271.418 122.821 271.279 122.416C270.913 121.021 270.69 119.593 270.615 118.154C270.524 116.313 270.657 114.398 269.943 112.69C269.741 112.102 269.35 111.598 268.832 111.255C268.213 110.961 267.522 110.848 266.841 110.932C265.506 110.982 264.03 111.164 263.117 112.151C262.86 112.433 262.305 114.331 261.948 114.928Z" fill="#FFBBAB"/>
<path d="M271.345 123.792C271.345 123.792 265.83 126.644 264.162 128.883C262.495 131.122 259.775 132.772 260.845 137.009C261.915 141.246 260.613 147.713 260.613 147.713C260.613 147.713 263.01 155.25 268.907 157.157C274.804 159.064 273.178 158.459 273.178 158.459C273.178 158.459 276.305 144.488 277.533 140.599C278.76 136.71 276.687 123.17 271.345 123.792Z" fill="#EB5757"/>
<path d="M263.723 111.96C263.832 112.868 264.265 113.707 264.942 114.323C265.597 114.928 266.402 115.351 267.082 115.932C267.81 116.477 268.213 117.354 268.152 118.261C268.689 118.048 269.302 118.246 269.612 118.734C269.754 119.074 269.693 119.465 269.454 119.746C269.21 120.017 268.856 120.164 268.492 120.144C269.189 120.428 269.787 120.913 270.209 121.537C270.681 122.233 270.914 123.062 271.345 123.792C271.878 124.529 272.545 125.159 273.311 125.649C273.654 125.881 273.939 126.191 274.14 126.553C274.298 127.117 274.489 127.67 274.712 128.211C275.202 128.902 275.728 129.566 276.288 130.201C277.046 131.31 277.479 132.608 277.541 133.949C277.503 133.552 277.503 133.152 277.541 132.755C277.679 132.523 277.812 132.282 277.939 132.034C278.151 131.6 278.315 131.144 278.428 130.674C278.587 129.598 278.618 128.507 278.519 127.424C278.519 125.102 280.709 120.732 278.951 118.742C278.25 118.156 277.504 117.626 276.72 117.159C275.169 115.874 274.953 113.61 273.974 111.852C273.097 110.289 271.631 109.142 269.902 108.668C267.613 108.013 263.416 108.735 263.723 111.96Z" fill="#FCD8CA"/>
<path d="M269.222 131.055C269.222 131.055 265.738 140.474 265.075 141.162C264.411 141.851 271.785 146.013 271.785 146.013C271.785 146.013 276.604 136.851 276.38 132.888C276.156 128.924 271.934 127.316 269.222 131.055Z" fill="#EB5757"/>
<path d="M271.752 144.736C271.752 144.736 271.494 147.771 267.77 147.713L251.224 147.481C250.096 146.9 248.553 146.809 247.715 145.822C247.309 145.375 247.101 144.778 246.72 144.313C246.193 143.732 245.48 143.351 244.704 143.235C243.935 143.125 243.156 143.105 242.382 143.177C242.068 142.816 242.068 142.279 242.382 141.917C242.707 141.581 243.126 141.353 243.585 141.262C245.49 140.785 247.506 141.083 249.192 142.091C249.68 142.438 250.213 142.717 250.776 142.92C251.19 143.005 251.615 143.027 252.036 142.987C256.805 142.763 261.517 141.751 266.286 141.536C267.404 141.424 268.533 141.542 269.603 141.884C270.739 142.431 271.539 143.494 271.752 144.736Z" fill="#FFBBAB"/>
<path d="M245.02 145.748H242.672V188.681H245.02V145.748Z" fill="#F5F5F5"/>
<path d="M246.313 143.882H213.444V147.613H246.313V143.882Z" fill="#EB5757"/>
<path d="M246.313 143.882H213.444V147.613H246.313V143.882Z" fill="#F5F5F5"/>
<path d="M281.721 134.969H278.204L270.259 165.548H273.775L281.721 134.969Z" fill="#BCBCBC"/>
<path d="M67.625 134.969H71.1417L79.0875 165.548H75.5708L67.625 134.969Z" fill="#BCBCBC"/>
<path d="M77.379 154.885C77.379 154.885 76.7984 163.541 84.5368 166.153C90.0607 168.019 96.3974 167.612 102.12 167.107C103.041 167.024 104.692 166.559 105.504 167.173C106.649 168.002 106.077 170.315 106.043 171.567C105.969 174.287 105.902 176.998 105.828 179.718C105.828 180.97 105.828 182.255 105.728 183.499C105.629 184.743 105.322 186.202 105.231 187.578C105.207 187.694 105.234 187.815 105.305 187.91C105.401 187.985 105.524 188.018 105.645 188.001L115.781 187.562C115.89 187.574 116 187.544 116.088 187.479C116.237 187.338 116.137 187.089 116.021 186.923C114.976 185.576 113.52 184.607 111.874 184.162C111.486 184.065 111.116 183.905 110.779 183.69C109.726 182.86 110.597 181.078 110.837 180.074L111.883 175.713L113.939 167.14C114.553 164.603 114.703 162.671 112.745 160.905C110.984 159.16 108.852 157.833 106.508 157.024L91.0726 152.165L77.379 154.885Z" fill="#8D8D8D"/>
<path d="M138.747 145.748H136.4V188.681H138.747V145.748Z" fill="#F5F5F5"/>
<path d="M138.366 126.296L130.08 143.882L114.769 143.774L114.893 142.448L128.968 142.29L136.765 125.649L138.366 126.296Z" fill="#473F47"/>
<path d="M250.684 113.361H97.965V115.409H250.684V113.361Z" fill="#EB5757"/>
<path d="M87.1744 111.172L94.8547 114.389L87.1744 117.399V111.172Z" fill="#EB5757"/>
<path d="M97.8323 114.928C98.1226 115.409 98.7114 115.691 98.9022 116.213C99.093 116.736 98.6866 117.515 98.4543 118.154C98.1392 119.041 98.2387 120.036 97.9318 120.931C97.8784 121.125 97.7687 121.298 97.6166 121.429C97.474 121.525 97.313 121.59 97.1439 121.62C96.4809 121.753 95.8023 121.792 95.1284 121.736C94.9965 121.71 94.8597 121.727 94.7386 121.785C94.6397 121.873 94.5774 121.994 94.5644 122.125C94.1742 123.814 94.1998 125.573 94.639 127.249C94.7883 127.805 94.9459 128.477 94.5395 128.908C94.392 129.041 94.2116 129.133 94.017 129.173C92.7397 129.48 91.5287 128.535 90.6496 127.515C89.8797 126.628 89.2171 125.654 88.6756 124.613C88.5065 124.324 88.3913 124.006 88.3355 123.676C88.3117 123.248 88.3708 122.82 88.5097 122.416C88.873 121.021 89.0926 119.593 89.1649 118.154C89.2645 116.313 89.1649 114.398 89.8367 112.69C90.0428 112.102 90.4362 111.598 90.9565 111.255C91.5729 110.961 92.2607 110.848 92.9387 110.932C94.2824 110.982 95.7504 111.164 96.6628 112.151C96.9282 112.433 97.4839 114.331 97.8323 114.928Z" fill="#FFBBAB"/>
<path d="M88.4101 123.825H88.5262C90.9647 124.43 94.5146 126.652 95.3108 129.123C96.3144 132.224 96.9697 136.395 96.2481 139.604C95.7587 141.784 94.5892 143.749 93.934 145.889C93.3783 147.655 93.1461 149.529 92.4162 151.228C90.5434 155.29 86.1901 157.603 81.7748 156.883C80.6348 156.69 79.5605 156.217 78.6479 155.507C76.9701 153.946 76.1147 151.693 76.3339 149.413C76.5778 147.163 77.1681 144.965 78.0839 142.895L81.8826 132.987C82.8033 130.616 85.0344 123.153 88.4101 123.825Z" fill="#EB5757"/>
<path d="M86.4444 148.194C86.6578 148.55 86.7987 148.944 86.8591 149.355C86.8704 149.657 86.834 149.959 86.7513 150.25C86.3607 151.861 86.196 153.519 86.262 155.175C86.2363 155.474 86.3286 155.772 86.5191 156.004C86.7342 156.158 86.9928 156.239 87.2573 156.236C88.2057 156.391 89.1781 156.294 90.0773 155.955C91.0453 155.347 91.7746 154.425 92.1425 153.343C93.3577 150.334 94.2825 147.216 94.9044 144.031C95.061 143.522 95.1118 142.986 95.0537 142.456C94.8479 141.662 94.3347 140.982 93.6271 140.566C92.9636 140.11 92.2088 139.778 91.5702 139.28C90.3095 138.319 89.3806 136.569 87.6637 136.345C86.4396 136.256 85.3251 137.05 85.0096 138.236C83.8816 141.212 85.0925 145.466 86.4444 148.194Z" fill="url(#paint9_linear)"/>
<path d="M90.5749 131.055C90.5749 131.055 94.0584 140.474 94.722 141.162C95.3855 141.851 88.0203 146.013 88.0203 146.013C88.0203 146.013 83.1932 136.851 83.4254 132.888C83.6576 128.924 87.8544 127.316 90.5749 131.055Z" fill="#EB5757"/>
<path d="M88.0368 144.736C88.0368 144.736 88.294 147.771 92.0097 147.713L108.598 147.481C109.718 146.9 111.26 146.809 112.106 145.822C112.504 145.375 112.712 144.778 113.102 144.313C113.629 143.732 114.341 143.351 115.117 143.235C115.886 143.125 116.666 143.105 117.439 143.177C117.75 142.814 117.75 142.28 117.439 141.917C117.114 141.583 116.694 141.354 116.237 141.262C114.332 140.785 112.315 141.083 110.63 142.091C110.142 142.438 109.609 142.717 109.046 142.92C108.631 143.005 108.206 143.027 107.785 142.987C103.016 142.763 98.305 141.751 93.5358 141.536C92.4178 141.426 91.2891 141.544 90.2182 141.884C89.0684 142.421 88.2538 143.486 88.0368 144.736Z" fill="#FFBBAB"/>
<path d="M112.264 145.748H109.917V188.681H112.264V145.748Z" fill="#F5F5F5"/>
<path d="M140.033 143.882H107.163V147.613H140.033V143.882Z" fill="#EB5757"/>
<path d="M140.033 143.882H107.163V147.613H140.033V143.882Z" fill="#F5F5F5"/>
<path d="M93.7018 130.798C93.7018 131.205 93.7018 131.719 93.2788 131.818C93.1127 131.846 92.942 131.823 92.7894 131.752C92.1544 131.528 91.552 131.222 90.9979 130.84C91.141 134.27 91.6103 137.68 92.3996 141.022C92.4327 141.212 92.5062 141.393 92.6152 141.552C92.8572 141.784 93.1849 141.904 93.5193 141.884C94.3361 141.926 95.1533 141.808 95.9246 141.536C93.8676 138.12 93.7764 133.783 94.9376 129.977C95.1812 129.428 95.2451 128.816 95.12 128.228C94.6588 127.404 93.8685 126.816 92.947 126.611C92.6982 127.863 93.6022 129.521 93.7018 130.798Z" fill="url(#paint10_linear)"/>
<path d="M96.7042 107.4C95.8953 106.157 94.5438 105.372 93.0631 105.285C92.0733 105.138 91.0675 105.421 90.3012 106.065C90.0026 106.363 89.7786 106.736 89.4718 107.027C88.5843 107.856 87.2158 107.756 86.1541 108.262C85.1948 108.76 84.4577 109.601 84.0889 110.617C83.7281 111.627 83.5266 112.687 83.4917 113.759C83.3735 114.739 83.4268 115.733 83.6493 116.695C84.08 118.136 85.1602 119.292 86.5688 119.82C86.8988 119.899 87.2039 120.058 87.4563 120.285C87.6553 120.509 87.7217 120.832 87.9125 121.064C88.3852 121.645 89.3308 121.429 89.9196 120.973C90.4308 120.434 91.0142 119.968 91.6531 119.588L89.9943 117.341C89.7811 117.117 89.6598 116.821 89.6542 116.512C89.7575 116.143 90.1005 115.893 90.4836 115.907C90.857 115.94 91.2094 116.095 91.4872 116.346C91.7278 116.545 92.0927 116.769 92.3166 116.537C92.3848 116.465 92.4258 116.371 92.4328 116.272C92.6152 115.161 91.6033 114.058 91.9019 112.955C91.9255 112.855 91.9808 112.765 92.0595 112.698C92.1765 112.636 92.312 112.618 92.4411 112.648C93.102 112.756 93.7745 112.772 94.4399 112.698C96.5383 112.308 97.7493 109.199 96.7042 107.4Z" fill="#473F47"/>
<path d="M222.402 35.2555C223.093 34.8877 223.942 34.9975 224.517 35.5291C224.679 35.7419 224.793 35.9883 224.848 36.2505C225.108 37.7354 224.797 39.2635 223.977 40.5289C223.79 40.8952 223.534 41.2218 223.223 41.4907C222.589 41.8902 221.848 42.0869 221.099 42.0545C220.932 42.088 220.76 42.088 220.593 42.0545C220.459 41.9928 220.34 41.9022 220.245 41.7892C219.762 41.1845 219.549 40.408 219.656 39.6417C219.814 37.9337 220.793 35.9603 222.402 35.2555Z" fill="#F4DBBD"/>
<path d="M223.72 39.0364C223.511 39.5608 223.171 40.0231 222.733 40.3796C222.338 40.7051 221.776 40.7353 221.348 40.4542C221.271 40.4026 221.212 40.3268 221.182 40.2386C221.152 40.0952 221.172 39.9457 221.24 39.8158L221.34 39.5504C221.364 39.4733 221.4 39.4005 221.448 39.3349C221.63 39.0944 222.003 39.1359 222.277 38.9866C222.551 38.8374 222.659 38.456 222.808 38.1575C222.914 37.9052 223.156 37.7371 223.43 37.7263C223.69 37.7809 223.883 38.0005 223.903 38.2653C223.916 38.5344 223.853 38.8019 223.72 39.0364Z" fill="#E0BE99"/>
<path d="M197.42 41.731C198.108 42.1062 198.96 41.9994 199.535 41.4657C199.698 41.2531 199.811 41.0065 199.866 40.7443C200.13 39.2594 199.819 37.7297 198.996 36.4659C198.807 36.0984 198.551 35.7693 198.241 35.4958C197.608 35.0943 196.866 34.8974 196.117 34.932C195.947 34.9107 195.774 34.9277 195.612 34.9817C195.476 35.0406 195.356 35.1317 195.263 35.2471C194.78 35.8518 194.567 36.6283 194.674 37.3945C194.832 39.0611 195.819 41.0345 197.42 41.731Z" fill="#F4DBBD"/>
<path d="M195.769 38.5056C195.976 39.0311 196.316 39.4939 196.756 39.8488C197.153 40.1757 197.716 40.2092 198.15 39.9318C198.227 39.8767 198.285 39.7982 198.315 39.7079C198.341 39.567 198.321 39.4216 198.257 39.2933L198.158 39.028C198.136 38.9501 198.099 38.877 198.05 38.8124C197.868 38.5719 197.494 38.6051 197.221 38.4559C196.947 38.3066 196.839 37.9252 196.69 37.6267C196.581 37.3771 196.34 37.2103 196.068 37.1956C195.806 37.2413 195.61 37.4611 195.595 37.7262C195.576 37.9974 195.636 38.2684 195.769 38.5056Z" fill="#E0BE99"/>
<path d="M209.046 24.037C208.631 26.5244 208.216 29.2938 206.308 31.035C205.228 31.9422 203.963 32.6042 202.601 32.9752C199.484 33.9987 196.241 34.5874 192.963 34.7247C191.993 30.3837 193.033 25.8366 195.795 22.3494C198.558 18.8623 202.747 16.8074 207.196 16.757C212.911 16.5995 209.651 20.3141 209.046 24.037Z" fill="#4E4E4E"/>
<path d="M160.038 0H87.1744V51.457H160.038V0Z" fill="#EB5757"/>
<path d="M138.1 58.795L124.274 25.7285L139.85 59.1432L138.1 58.795Z" fill="#F5F5F5"/>
<path d="M75.6123 170.954H97.0029C97.5067 170.954 97.9152 170.546 97.9152 170.042V166.319C97.9152 165.815 97.5067 165.407 97.0029 165.407H75.6123C75.1085 165.407 74.7 165.815 74.7 166.319V170.042C74.7 170.546 75.1085 170.954 75.6123 170.954Z" fill="#BCBCBC"/>
<ellipse cx="226.202" cy="80.6295" rx="4.21726" ry="4.21593" fill="#385898"/>
<path d="M226.378 83.2645H225.333V80.6668H224.621V79.8211H225.333V79.2193C225.333 78.5061 225.648 77.9946 226.69 77.9946C226.911 77.9946 227.257 78.0389 227.257 78.0389V78.8243H226.893C226.523 78.8243 226.378 78.9366 226.378 79.2472V79.8211H227.243L227.166 80.6668H226.378L226.378 83.2645Z" fill="#F5F5F5"/>
</g>
<defs>
<linearGradient id="paint0_linear" x1="161.108" y1="144.585" x2="162.489" y2="163.197" gradientUnits="userSpaceOnUse">
<stop offset="0.01"/>
<stop offset="0.08" stop-opacity="0.69"/>
<stop offset="0.21" stop-opacity="0.32"/>
<stop offset="1" stop-opacity="0"/>
</linearGradient>
<linearGradient id="paint1_linear" x1="192.446" y1="77.9068" x2="305.233" y2="21.8319" gradientUnits="userSpaceOnUse">
<stop offset="0.01"/>
<stop offset="0.08" stop-opacity="0.69"/>
<stop offset="0.21" stop-opacity="0.32"/>
<stop offset="1" stop-opacity="0"/>
</linearGradient>
<linearGradient id="paint2_linear" x1="210.841" y1="148.227" x2="205.976" y2="-6.4401" gradientUnits="userSpaceOnUse">
<stop offset="0.01"/>
<stop offset="0.08" stop-opacity="0.69"/>
<stop offset="0.21" stop-opacity="0.32"/>
<stop offset="1" stop-opacity="0"/>
</linearGradient>
<linearGradient id="paint3_linear" x1="229.236" y1="91.0074" x2="241.674" y2="81.4684" gradientUnits="userSpaceOnUse">
<stop offset="0.01"/>
<stop offset="0.08" stop-opacity="0.69"/>
<stop offset="0.21" stop-opacity="0.32"/>
<stop offset="1" stop-opacity="0"/>
</linearGradient>
<linearGradient id="paint4_linear" x1="223.015" y1="74.0098" x2="205.244" y2="59.4996" gradientUnits="userSpaceOnUse">
<stop offset="0.01"/>
<stop offset="0.08" stop-opacity="0.69"/>
<stop offset="0.21" stop-opacity="0.32"/>
<stop offset="1" stop-opacity="0"/>
</linearGradient>
<linearGradient id="paint5_linear" x1="214.721" y1="86.8615" x2="202.024" y2="76.3151" gradientUnits="userSpaceOnUse">
<stop offset="0.01"/>
<stop offset="0.08" stop-opacity="0.69"/>
<stop offset="0.21" stop-opacity="0.32"/>
<stop offset="1" stop-opacity="0"/>
</linearGradient>
<linearGradient id="paint6_linear" x1="196.059" y1="74.0098" x2="213.714" y2="59.3813" gradientUnits="userSpaceOnUse">
<stop offset="0.01"/>
<stop offset="0.08" stop-opacity="0.69"/>
<stop offset="0.21" stop-opacity="0.32"/>
<stop offset="1" stop-opacity="0"/>
</linearGradient>
<linearGradient id="paint7_linear" x1="201.865" y1="85.6178" x2="214.621" y2="76.3462" gradientUnits="userSpaceOnUse">
<stop offset="0.01"/>
<stop offset="0.08" stop-opacity="0.69"/>
<stop offset="0.21" stop-opacity="0.32"/>
<stop offset="1" stop-opacity="0"/>
</linearGradient>
<linearGradient id="paint8_linear" x1="221.779" y1="64.3269" x2="206.626" y2="179.935" gradientUnits="userSpaceOnUse">
<stop offset="0.01"/>
<stop offset="0.08" stop-opacity="0.69"/>
<stop offset="0.21" stop-opacity="0.32"/>
<stop offset="1" stop-opacity="0"/>
</linearGradient>
<linearGradient id="paint9_linear" x1="80.4731" y1="150.081" x2="109.918" y2="148.631" gradientUnits="userSpaceOnUse">
<stop offset="0.01"/>
<stop offset="0.08" stop-opacity="0.69"/>
<stop offset="0.21" stop-opacity="0.32"/>
<stop offset="1" stop-opacity="0"/>
</linearGradient>
<linearGradient id="paint10_linear" x1="99.7338" y1="143.223" x2="86.4647" y2="141.069" gradientUnits="userSpaceOnUse">
<stop offset="0.01"/>
<stop offset="0.08" stop-opacity="0.69"/>
<stop offset="0.21" stop-opacity="0.32"/>
<stop offset="1" stop-opacity="0"/>
</linearGradient>
<clipPath id="clip0">
<rect width="343" height="211.01" fill="white"/>
</clipPath>
</defs>
</svg>
