<svg width="343" height="212" viewBox="0 0 343 212" fill="none" xmlns="http://www.w3.org/2000/svg">
<g clip-path="url(#clip0)">
<path d="M275.143 203.888C289.086 198.623 301.692 187.361 304.426 172.709C306.678 160.624 302.035 148.355 296.39 137.422C290.746 126.489 283.91 115.925 281.275 103.919C276.368 81.5926 286.491 56.8241 276.876 36.0838C273.984 29.8571 269.466 24.4861 264.362 19.9115C242.041 -0.0191478 208.524 -4.48183 179.934 4.33164C151.343 13.1451 127.475 33.7208 109.916 57.9299C102.672 67.9084 96.3753 78.5648 88.4785 88.0233C77.9539 100.622 64.2942 111.68 59.7234 127.417C56.3974 138.791 58.4061 151.113 62.3578 162.303C68.4369 179.456 94.63 209.964 107.098 209.905C134.885 209.766 188.2 211.129 213.958 210.142C233.255 209.385 254.944 211.511 275.143 203.888Z" fill="#1C1E23"/>
<path d="M156.117 180.708C155.458 182.584 154.879 184.736 155.834 186.481C156.472 187.453 157.332 188.261 158.342 188.837L167.429 195.011C169.174 196.196 171.024 197.414 173.118 197.572C175.212 197.73 177.588 196.394 177.766 194.281C177.977 191.865 175.442 190.213 174.257 188.093C172.703 185.316 173.559 181.873 174.369 178.793C176.411 171.039 177.903 163.152 178.833 155.188C176.97 154.425 171.544 151.009 169.615 151.575C167.442 152.233 165.48 158.308 164.512 160.29C161.24 166.892 158.435 173.714 156.117 180.708Z" fill="#CE9E95"/>
<path d="M173.546 128.609C171.189 135.303 168.687 142.017 164.907 148.033C164.77 148.208 164.698 148.424 164.703 148.646C164.763 148.854 164.893 149.035 165.072 149.159C168.871 152.483 172.973 155.952 177.971 156.669C178.296 156.745 178.638 156.715 178.945 156.584C179.234 156.379 179.447 156.086 179.551 155.748C182.738 148.369 183.864 140.286 183.758 132.295C183.689 128.304 183.373 124.32 182.81 120.368C182.679 119.407 182.606 115.142 181.77 114.641C180.499 113.891 179.103 116.511 178.55 117.334C176.259 120.763 174.902 124.712 173.546 128.609Z" fill="#F5F5F5"/>
<path d="M183.877 115.853C183.877 115.853 180.907 116.965 178.491 125.324C176.074 133.684 170.306 153.944 170.306 153.944C170.306 153.944 179.228 158.401 181.46 156.729C183.692 155.057 183.877 115.853 183.877 115.853Z" fill="#E6E6E6"/>
<path d="M209.187 107.243C214.046 107.091 218.965 107.328 223.64 108.645C228.315 109.961 232.759 112.449 235.828 116.221C239.225 120.394 240.713 125.851 241.056 131.216C241.398 136.58 240.687 141.958 240.147 147.316C238.882 159.857 238.547 172.475 239.146 185.065C239.291 188.08 241.016 203.818 238.896 205.971C237.579 207.327 240.213 208.683 238.336 209.13C222.995 212.816 195.432 211.006 180.907 204.858C177.213 203.292 173.506 201.113 171.689 197.545C169.714 193.682 175.047 178.365 175.686 174.066C177.622 160.95 179.017 147.763 179.873 134.507C180.249 128.642 179.814 122.323 181.019 116.563C181.895 112.384 184.588 111.245 188.473 110.218C195.245 108.457 202.193 107.459 209.187 107.243Z" fill="#F5F5F5"/>
<path d="M221.809 175.864C221.302 178.529 220.637 181.314 218.813 183.328C217.37 184.77 215.606 185.848 213.664 186.474C204.512 189.923 194.076 189.384 185.305 193.715C184.687 193.986 184.117 194.357 183.62 194.814C181.928 196.486 182.402 199.422 183.745 201.396C186.728 205.76 192.528 206.985 197.763 207.794C210.313 209.769 223.126 211.382 235.669 209.361C236.352 209.312 237.005 209.062 237.546 208.643C237.979 208.141 238.256 207.523 238.343 206.866C241.187 194.241 238.948 181.097 238.896 168.156C238.896 160.691 239.554 153.22 239.047 145.776C238.792 141.143 237.828 136.577 236.19 132.236C235.024 129.287 231.613 122.777 229.566 128.82C226.313 138.423 225.378 148.777 224.206 158.789C223.567 164.496 222.882 170.209 221.809 175.864Z" fill="#E6E6E6"/>
<path d="M225.734 199.007H119.317C116.331 199.007 113.911 201.426 113.911 204.411C113.911 207.395 116.331 209.815 119.317 209.815H225.734C228.719 209.815 231.139 207.395 231.139 204.411C231.139 201.426 228.719 199.007 225.734 199.007Z" fill="#EB5757"/>
<path d="M225.734 199.007H119.317C116.331 199.007 113.911 201.426 113.911 204.411C113.911 207.395 116.331 209.815 119.317 209.815H225.734C228.719 209.815 231.139 207.395 231.139 204.411C231.139 201.426 228.719 199.007 225.734 199.007Z" fill="url(#paint0_linear)"/>
<path d="M197.447 117.472C195.268 117.123 194.043 114.931 195.018 109.652C195.123 109.066 195.261 108.5 195.419 107.934C195.419 107.829 195.478 107.724 195.505 107.618C195.742 106.802 196.012 105.986 196.275 105.176C197.008 103.233 197.396 101.177 197.421 99.1007C197.362 97.5868 197.243 96.0136 197.803 94.6181C198.34 93.4338 199.184 92.4138 200.246 91.6627C202.596 89.8525 209.464 86.4495 210.781 90.9452C211.367 92.8672 210.939 95.1052 210.912 97.0733C210.781 99.8935 211.299 102.706 212.427 105.295C213.862 108.178 202.8 118.328 197.447 117.472Z" fill="#CE9E95"/>
<path d="M195.9 106.749C195.9 106.749 208.042 102.142 210.386 94.855L197.447 99.0874C197.447 99.0874 197.138 105.755 195.9 106.749Z" fill="url(#paint1_linear)"/>
<path d="M228.815 122.507C227.576 136.279 229.86 150.139 235.452 162.785C235.618 163.251 235.896 163.669 236.262 164.002C236.853 164.369 237.544 164.54 238.237 164.489C243.654 164.606 248.953 162.905 253.289 159.658C254.606 158.664 255.844 157.394 255.956 155.847C255.959 155.018 255.796 154.196 255.475 153.431C252.114 143.666 248.19 134.103 243.722 124.792C242.063 121.342 239.837 117.301 235.821 115.78C230.988 113.957 229.151 118.9 228.815 122.507Z" fill="#F5F5F5"/>
<path d="M205.289 130.38C208.891 126.582 211.531 121.994 214.139 117.459C215.725 114.694 217.352 111.804 217.576 108.619C217.632 108.257 217.575 107.886 217.411 107.559C217.252 107.33 217.046 107.139 216.805 106.999L211.86 103.649C211.775 106.683 209.595 109.29 207.106 111.034C204.473 112.904 196.934 114.951 198.547 118.828C198.948 119.808 204.868 130.821 205.289 130.38Z" fill="#EB5757"/>
<path d="M197.447 117.472C195.961 120.396 194.31 123.233 192.502 125.97C191.804 127.029 191.021 128.129 189.868 128.603C189.721 128.679 189.551 128.702 189.388 128.668C189.098 128.57 189.032 128.188 189.012 127.885C188.769 122.823 188.532 117.676 189.77 112.746C190.161 110.998 190.886 109.342 191.903 107.868C192.259 107.394 195.103 105.354 196.301 105.137C196.038 105.946 195.768 106.763 195.531 107.579C195.492 107.655 195.465 107.737 195.452 107.822C195.452 107.822 195.452 107.868 195.452 107.895C195.294 108.461 195.156 109.027 195.05 109.613C194.063 114.931 195.287 117.123 197.447 117.472Z" fill="#EB5757"/>
<path d="M205.289 130.38C208.891 126.582 211.531 121.994 214.139 117.459C215.725 114.694 217.352 111.804 217.576 108.619C217.632 108.257 217.575 107.886 217.411 107.559C217.252 107.33 217.046 107.139 216.805 106.999L211.86 103.649C211.775 106.683 209.595 109.29 207.106 111.034C204.473 112.904 196.934 114.951 198.547 118.828C198.948 119.808 204.868 130.821 205.289 130.38Z" fill="#EB5757"/>
<path d="M197.447 117.472C195.961 120.396 194.31 123.233 192.502 125.97C191.804 127.029 191.021 128.129 189.868 128.603C189.721 128.679 189.551 128.702 189.388 128.668C189.098 128.57 189.032 128.188 189.012 127.885C188.769 122.823 188.532 117.676 189.77 112.746C190.161 110.998 190.886 109.342 191.903 107.868C192.259 107.394 195.103 105.354 196.301 105.137C196.038 105.946 195.768 106.763 195.531 107.579C195.492 107.655 195.465 107.737 195.452 107.822C195.452 107.822 195.452 107.868 195.452 107.895C195.294 108.461 195.156 109.027 195.05 109.613C194.063 114.931 195.287 117.123 197.447 117.472Z" fill="#EB5757"/>
<path d="M233.424 201.482L262.264 195.973C263.969 195.643 265.747 195.314 267.097 194.195C268.947 192.708 269.599 190.101 269.329 187.738C269.059 185.375 268.012 183.183 266.972 181.037C262.876 172.559 254.567 157.341 254.514 158.23C249.47 159.296 245.296 159.349 240.963 162.12C240.217 162.522 239.587 163.109 239.133 163.825C237.401 167.116 242.135 171.921 243.742 174.422C244.358 175.222 244.769 176.159 244.94 177.154C244.975 177.857 244.844 178.558 244.558 179.201C242.998 183.032 237.441 185.263 234.023 187.231C229.555 189.932 224.546 191.613 219.353 192.155C215.324 192.497 211.208 191.977 207.271 192.879C202.385 194.043 198.245 197.271 195.926 201.726C198.27 203.213 201.319 202.351 204.018 201.673C209.02 200.433 214.191 200.017 219.327 200.442C222.659 200.725 231.844 204.582 233.424 201.482Z" fill="#CE9E95"/>
<path d="M188.835 209.822H107.188L85.6507 155.189C85.058 153.709 85.239 152.032 86.1338 150.712C87.0286 149.393 88.5204 148.604 90.1149 148.606H154.207C160.56 148.603 166.267 152.486 168.594 158.394L188.835 209.822Z" fill="#EB5757"/>
<path d="M188.835 209.822H107.188L85.6507 155.189C85.058 153.709 85.239 152.032 86.1338 150.712C87.0286 149.393 88.5204 148.604 90.1149 148.606H154.207C160.56 148.603 166.267 152.486 168.594 158.394L188.835 209.822Z" fill="#A93131"/>
<path d="M184.687 209.881H107.109L86.6451 158.006C86.092 156.602 86.2688 155.016 87.1174 153.769C87.9659 152.521 89.3765 151.774 90.8854 151.772H151.765C157.798 151.777 163.217 155.464 165.434 161.073L184.687 209.881Z" fill="#EB5757"/>
<path d="M194.813 29.5915C196.789 28.433 198.764 27.2548 200.996 26.8203C203.228 26.3859 206.264 26.6492 207.771 28.3343C203.818 28.6122 200.164 30.5401 197.704 33.6462C197.591 33.8458 197.411 33.9995 197.197 34.0806C197.013 34.0999 196.828 34.0656 196.664 33.9819C195.755 33.6396 188.947 35.193 188.552 34.3702C188.571 34.3702 193.977 30.0983 194.813 29.5915Z" fill="#EB5757"/>
<path d="M194.813 29.5915C196.789 28.433 198.764 27.2548 200.996 26.8203C203.228 26.3859 206.264 26.6492 207.771 28.3342C203.818 28.6122 200.164 30.5401 197.704 33.6462C197.591 33.8458 197.411 33.9995 197.197 34.0806C197.013 34.0999 196.828 34.0656 196.664 33.9819C195.755 33.6396 188.947 35.193 188.552 34.3702C188.571 34.3702 193.977 30.0983 194.813 29.5915Z" fill="url(#paint2_linear)"/>
<path d="M180.097 79.788C184.512 79.788 188.091 75.3793 188.091 69.9409C188.091 64.5025 184.512 60.0938 180.097 60.0938C175.683 60.0938 172.104 64.5025 172.104 69.9409C172.104 75.3793 175.683 79.788 180.097 79.788Z" fill="#EB5757"/>
<path d="M181.737 80.1568C185.82 80.1568 189.131 76.0782 189.131 71.0469C189.131 66.0157 185.82 61.937 181.737 61.937C177.653 61.937 174.342 66.0157 174.342 71.0469C174.342 76.0782 177.653 80.1568 181.737 80.1568Z" fill="#EB5757"/>
<path d="M181.737 80.1568C185.82 80.1568 189.131 76.0782 189.131 71.0469C189.131 66.0157 185.82 61.937 181.737 61.937C177.653 61.937 174.342 66.0157 174.342 71.0469C174.342 76.0782 177.653 80.1568 181.737 80.1568Z" fill="url(#paint3_linear)"/>
<path d="M179.136 52.6954L180.986 86.535C180.986 86.535 181.809 99.3047 194.471 99.4298C209.681 99.5812 214.31 90.7411 216.621 84.014C218.932 77.2869 221.019 57.5268 216.621 52.0635C212.223 46.6002 187.472 33.1525 179.136 52.6954Z" fill="#CE9E95"/>
<path d="M188.756 32.3759C182.79 32.2706 175.975 35.0549 173.256 40.6828C171.934 43.3053 171.867 46.384 173.072 49.0621C173.29 49.451 173.463 49.8641 173.585 50.293C173.644 50.7672 173.644 51.247 173.585 51.7213C173.48 54.0433 174.539 56.265 176.41 57.6454C177.457 58.4024 178.728 58.8763 179.564 59.8571L179.241 53.5578C179.086 52.8491 179.534 52.1485 180.242 51.9912L184.252 50.1218C184.252 50.1218 185.49 51.0236 185.641 51.096C186.307 51.3793 187.025 51.5163 187.748 51.4975C189.32 51.5346 190.892 51.4465 192.45 51.2342C195.814 50.7537 199.034 49.5228 202.175 48.2985C202.073 49.2717 201.652 50.1838 200.976 50.892L211.202 52.8666C212.699 54.9253 213.907 57.18 214.79 59.5674C215.497 61.4334 215.962 63.3823 216.173 65.3664C216.447 68.064 216.194 70.789 215.429 73.3903C216.125 72.8602 216.733 72.2251 217.233 71.5077C218.158 72.1496 219.181 72.6365 220.262 72.9493C220.487 73.0328 220.731 73.0533 220.967 73.0085C221.467 72.8703 221.572 72.2779 221.625 71.8039C222.033 67.5584 225.194 63.971 226.642 59.9163C228.4 55.0059 227.511 49.4833 224.825 44.935C224.029 43.4938 222.947 42.2304 221.645 41.2225C216.937 37.7734 210.247 39.3532 204.874 37.5496C202.32 36.6939 200.265 35.0681 197.822 33.9952C195.11 32.8433 191.712 32.4286 188.756 32.3759Z" fill="#3F3D56"/>
<path d="M188.756 32.3759C182.79 32.2706 175.975 35.0549 173.256 40.6828C171.934 43.3053 171.867 46.384 173.072 49.0621C173.29 49.451 173.463 49.8641 173.585 50.293C173.644 50.7672 173.644 51.247 173.585 51.7213C173.48 54.0433 174.539 56.265 176.41 57.6454C177.457 58.4024 178.728 58.8763 179.564 59.8571L179.241 53.5578C179.086 52.8491 179.534 52.1485 180.242 51.9912L184.252 50.1218C184.252 50.1218 185.49 51.0236 185.641 51.096C186.307 51.3793 187.025 51.5163 187.748 51.4975C189.32 51.5346 190.892 51.4465 192.45 51.2342C195.814 50.7537 199.034 49.5228 202.175 48.2985C202.073 49.2717 201.652 50.1838 200.976 50.892L211.202 52.8666C212.699 54.9253 213.907 57.18 214.79 59.5674C215.497 61.4334 215.962 63.3823 216.173 65.3664C216.447 68.064 216.194 70.789 215.429 73.3903C216.125 72.8602 216.733 72.2251 217.233 71.5077C218.158 72.1496 219.181 72.6365 220.262 72.9493C220.487 73.0328 220.731 73.0533 220.967 73.0085C221.467 72.8703 221.572 72.2779 221.625 71.8039C222.033 67.5584 225.194 63.971 226.642 59.9163C228.4 55.0059 227.511 49.4833 224.825 44.935C224.029 43.4938 222.947 42.2304 221.645 41.2225C216.937 37.7734 210.247 39.3532 204.874 37.5496C202.32 36.6939 200.265 35.0681 197.822 33.9952C195.11 32.8433 191.712 32.4286 188.756 32.3759Z" fill="url(#paint4_linear)"/>
<path d="M224.127 80.9006C228.494 80.9006 232.035 76.5361 232.035 71.1522C232.035 65.7683 228.494 61.4038 224.127 61.4038C219.76 61.4038 216.219 65.7683 216.219 71.1522C216.219 76.5361 219.76 80.9006 224.127 80.9006Z" fill="#EB5757"/>
<path d="M224.127 80.9006C228.494 80.9006 232.035 76.5361 232.035 71.1522C232.035 65.7683 228.494 61.4038 224.127 61.4038C219.76 61.4038 216.219 65.7683 216.219 71.1522C216.219 76.5361 219.76 80.9006 224.127 80.9006Z" fill="url(#paint5_linear)"/>
<path d="M227.156 80.9006C231.523 80.9006 235.064 76.5361 235.064 71.1522C235.064 65.7683 231.523 61.4038 227.156 61.4038C222.789 61.4038 219.248 65.7683 219.248 71.1522C219.248 76.5361 222.789 80.9006 227.156 80.9006Z" fill="#EB5757"/>
<path d="M227.215 62.1805L223.264 62.6018L222.323 62.7005L218.372 43.263C216.318 35.5748 211.294 29.6639 204.993 27.3733C204.017 27.0331 202.979 26.9096 201.951 27.0112L199.258 27.2548L200.575 26.9059L203.208 26.2082C204.031 25.9812 204.883 25.877 205.737 25.8988C212.769 26.1556 219.439 31.8229 221.855 39.9455L227.215 62.1805Z" fill="#EB5757"/>
<path d="M227.215 62.1805L223.264 62.6018L222.323 62.7005L218.372 43.263C216.318 35.5748 211.294 29.6639 204.993 27.3733C204.017 27.0331 202.979 26.9096 201.951 27.0112L199.258 27.2548L200.575 26.9059L203.208 26.2082C204.031 25.9812 204.883 25.877 205.737 25.8988C212.769 26.1556 219.439 31.8229 221.855 39.9455L227.215 62.1805Z" fill="url(#paint6_linear)"/>
<path d="M227.215 62.1805L223.264 62.6018L219.314 43.1182C217.227 35.351 212.157 29.394 205.796 27.0837C204.812 26.731 203.761 26.605 202.721 26.715L200.575 26.9059L203.208 26.2082C204.031 25.9812 204.883 25.877 205.737 25.8988C212.769 26.1556 219.439 31.8229 221.855 39.9455L227.215 62.1805Z" fill="#EB5757"/>
<path opacity="0.45" d="M144.311 3.34131H47.7641C42.0767 3.34131 37.4662 7.95042 37.4662 13.636V126.97C37.4662 132.656 42.0767 137.265 47.7641 137.265H144.311C149.998 137.265 154.609 132.656 154.609 126.97V13.636C154.609 7.95042 149.998 3.34131 144.311 3.34131Z" fill="#EB5757"/>
<path d="M72.7914 124.456C82.4717 124.456 90.3191 116.611 90.3191 106.934C90.3191 97.2565 82.4717 89.4116 72.7914 89.4116C63.1112 89.4116 55.2638 97.2565 55.2638 106.934C55.2638 116.611 63.1112 124.456 72.7914 124.456Z" fill="#F5F5F5"/>
<path d="M122.774 16.0386H47.9024V20.2512H122.774V16.0386Z" fill="#EB5757"/>
<path opacity="0.51" d="M125.032 71.4351H50.1608V75.6477H125.032V71.4351Z" fill="#EB5757"/>
<path d="M103.382 64.2275H50.1608V68.4402H103.382V64.2275Z" fill="#EB5757"/>
<path d="M146.293 64.2275H110.665V68.4402H146.293V64.2275Z" fill="#EB5757"/>
<path d="M146.174 37.5625H91.3923V41.3078H146.174V37.5625Z" fill="#EB5757"/>
<path opacity="0.51" d="M138.523 44.2041H79.9158V47.9494H138.523V44.2041Z" fill="#EB5757"/>
<path d="M87.2113 37.5625H51.1815V41.3078H87.2113V37.5625Z" fill="#EB5757"/>
<path d="M146.175 50.6548H66.9841V54.4001H146.175V50.6548Z" fill="#EB5757"/>
<path opacity="0.51" d="M62.8096 50.6548H51.1815V54.4001H62.8096V50.6548Z" fill="#EB5757"/>
<path opacity="0.51" d="M146.168 57.3032H93.901V61.0486H146.168V57.3032Z" fill="#EB5757"/>
<path d="M87.2113 57.3032H51.1815V61.0486H87.2113V57.3032Z" fill="#EB5757"/>
<path d="M74.352 44.0464H51.1815V47.7917H74.352V44.0464Z" fill="#EB5757"/>
<path d="M76.6762 95.4145C75.649 96.6718 75.4778 98.4292 75.6688 100.022C75.7282 100.311 75.7282 100.609 75.6688 100.898C75.5814 101.141 75.4472 101.364 75.2737 101.556C72.4836 105.023 69.3585 108.207 65.9436 111.061C65.8475 111.153 65.7332 111.225 65.6078 111.271C65.3843 111.318 65.1516 111.285 64.9494 111.179C63.9617 110.791 62.9016 110.37 61.8679 110.62C60.9176 110.904 60.1611 111.626 59.8333 112.561C59.5139 113.492 59.4614 114.493 59.6819 115.451C60.8056 114.516 61.9754 113.639 63.1913 112.818L64.923 114.536C65.105 114.675 65.216 114.887 65.2259 115.115C65.1922 115.251 65.1215 115.374 65.0218 115.471L62.4671 118.486C64.1799 119.171 66.1321 118.846 67.5305 117.643C68.8473 116.392 69.0449 114.056 67.7543 112.798L77.5585 101.813C78.917 102.817 80.7794 102.79 82.1083 101.747C83.3838 100.669 84.0278 99.0196 83.8202 97.3629C82.5999 98.0941 81.4686 98.9644 80.449 99.9563L78.4737 97.4946C79.1717 96.8363 81.8778 95.0196 80.1198 94.3087C78.961 93.8414 77.4268 94.4996 76.6762 95.4145Z" fill="#EB5757"/>
<path d="M133.427 113.174L134.369 110.179C134.369 110.179 130.648 107.243 130.536 107.427L130.385 105.262L133.789 101.641L132.222 98.9229C132.222 98.9229 127.613 99.6733 127.613 99.8839C126.724 99.0481 125.765 98.2885 124.749 97.613L124.604 92.6763L121.575 91.8535C121.575 91.8535 118.803 95.6976 118.987 95.8029C118.987 95.8029 116.854 96.2505 115.834 96.573L112.383 93.6373L109.75 95.3356C109.75 95.3356 110.533 99.0019 110.843 99.772C110.105 100.582 109.183 101.497 109.183 101.497L104.271 102.286L103.85 105.393C103.85 105.393 107.307 107.263 107.978 107.454C107.992 108.46 108.148 109.459 108.439 110.422L105.759 114.543L107.781 116.939C107.781 116.939 110.461 115.997 111.626 115.484C112.713 116.471 114.26 117.643 114.26 117.643L115.498 122.461L118.632 122.593C118.632 122.593 120.14 119.085 120.298 118.314C121.306 118.202 122.322 118.189 123.333 118.275L127.738 120.585L129.944 118.347C129.307 116.925 128.598 115.536 127.817 114.187C128.097 113.847 128.35 113.486 128.574 113.108L133.427 113.174ZM118.81 113.286C116.29 113.288 114.016 111.773 113.05 109.446C112.084 107.12 112.615 104.44 114.396 102.658C116.177 100.876 118.857 100.342 121.185 101.305C123.514 102.269 125.032 104.54 125.032 107.059C125.028 110.494 122.246 113.278 118.81 113.286Z" fill="#F5F5F5"/>
<path d="M174.882 50.9908C176.048 48.687 178.576 47.3179 181.124 46.9032C183.673 46.4885 186.28 46.8703 188.828 47.2587C186.359 49.2334 179.465 52.1756 179.334 52.7022C179.241 53.6342 179.23 54.5724 179.301 55.5063C179.393 56.8622 179.439 58.284 179.432 59.64C178.796 59.0172 178.084 58.4776 177.312 58.0339C176.649 57.7782 176.044 57.3908 175.534 56.8952C174.174 55.2267 173.919 52.9157 174.882 50.9908Z" fill="url(#paint7_linear)"/>
<path d="M208.417 94.7825C205.442 94.7224 202.492 94.2302 199.659 93.3213C198.961 93.1122 198.565 92.377 198.774 91.679C198.983 90.981 199.718 90.5846 200.417 90.7937C207.199 92.8342 212.301 92.5643 215.561 89.9906C219.999 86.5086 219.709 79.8736 219.709 79.8078C219.673 79.0807 220.233 78.4619 220.96 78.4255C221.687 78.3891 222.306 78.9491 222.343 79.6761C222.343 79.9987 222.692 87.7526 217.187 92.0706C214.896 93.8742 211.972 94.7781 208.417 94.7825Z" fill="#EB5757"/>
<path d="M208.417 94.7825C205.442 94.7224 202.492 94.2302 199.659 93.3213C198.961 93.1122 198.565 92.377 198.774 91.679C198.983 90.981 199.718 90.5846 200.417 90.7937C207.199 92.8342 212.301 92.5643 215.561 89.9906C219.999 86.5086 219.709 79.8736 219.709 79.8078C219.673 79.0807 220.233 78.4619 220.96 78.4255C221.687 78.3891 222.306 78.9491 222.343 79.6761C222.343 79.9987 222.692 87.7526 217.187 92.0706C214.896 93.8742 211.972 94.7781 208.417 94.7825Z" fill="#F5F5F5"/>
<path d="M200.344 88.5688C201.1 88.9484 201.692 89.5893 202.01 90.3724C202.3 91.4914 201.431 92.5643 200.535 93.2949C199.766 93.9806 198.819 94.4367 197.803 94.6114C196.315 94.7891 194.892 93.9861 193.655 93.137C192.964 92.7157 192.375 92.147 191.929 91.4716C190.784 89.4575 192.265 86.864 194.208 86.0083C196.361 85.0802 198.652 87.4564 200.344 88.5688Z" fill="#EB5757"/>
<path d="M200.344 88.5688C201.1 88.9484 201.692 89.5893 202.01 90.3724C202.3 91.4914 201.431 92.5643 200.535 93.2949C199.766 93.9806 198.819 94.4367 197.803 94.6114C196.315 94.7891 194.892 93.9861 193.655 93.137C192.964 92.7157 192.375 92.147 191.929 91.4716C190.784 89.4575 192.265 86.864 194.208 86.0083C196.361 85.0802 198.652 87.4564 200.344 88.5688Z" fill="url(#paint8_linear)"/>
</g>
<defs>
<linearGradient id="paint0_linear" x1="172.275" y1="204.375" x2="172.288" y2="204.6" gradientUnits="userSpaceOnUse">
<stop offset="0.01"/>
<stop offset="1" stop-opacity="0"/>
</linearGradient>
<linearGradient id="paint1_linear" x1="205.5" y1="88.366" x2="202.887" y2="108.831" gradientUnits="userSpaceOnUse">
<stop offset="0.01"/>
<stop offset="1" stop-opacity="0"/>
</linearGradient>
<linearGradient id="paint2_linear" x1="206.328" y1="20.0666" x2="181.891" y2="33.1604" gradientUnits="userSpaceOnUse">
<stop offset="0.01"/>
<stop offset="1" stop-opacity="0"/>
</linearGradient>
<linearGradient id="paint3_linear" x1="184.117" y1="56.9015" x2="177.384" y2="83.2874" gradientUnits="userSpaceOnUse">
<stop offset="0.01"/>
<stop offset="1" stop-opacity="0"/>
</linearGradient>
<linearGradient id="paint4_linear" x1="213.546" y1="47.4347" x2="204.361" y2="54.7885" gradientUnits="userSpaceOnUse">
<stop offset="0.01"/>
<stop offset="1" stop-opacity="0"/>
</linearGradient>
<linearGradient id="paint5_linear" x1="225.036" y1="70.8758" x2="218.698" y2="72.1437" gradientUnits="userSpaceOnUse">
<stop offset="0.01"/>
<stop offset="1" stop-opacity="0"/>
</linearGradient>
<linearGradient id="paint6_linear" x1="221.066" y1="38.8462" x2="207.303" y2="44.835" gradientUnits="userSpaceOnUse">
<stop offset="0.01"/>
<stop offset="1" stop-opacity="0"/>
</linearGradient>
<linearGradient id="paint7_linear" x1="180.762" y1="59.9799" x2="181.842" y2="44.5683" gradientUnits="userSpaceOnUse">
<stop offset="0.01"/>
<stop offset="1" stop-opacity="0"/>
</linearGradient>
<linearGradient id="paint8_linear" x1="200.114" y1="85.4989" x2="193.883" y2="98.0607" gradientUnits="userSpaceOnUse">
<stop offset="0.01"/>
<stop offset="1" stop-opacity="0"/>
</linearGradient>
<clipPath id="clip0">
<rect width="343" height="211.01" fill="white" transform="translate(0 0.0205078)"/>
</clipPath>
</defs>
</svg>
