<svg width="116" height="115" viewBox="0 0 116 115" fill="none" xmlns="http://www.w3.org/2000/svg">
<path d="M35.5136 0H32.0541V3.45947H35.5136V0Z" fill="white"/>
<path d="M45.8919 0H42.4324V3.45947H45.8919V0Z" fill="white"/>
<path d="M49.3514 0H45.8919V3.45947H49.3514V0Z" fill="white"/>
<path d="M52.8108 0H49.3513V3.45947H52.8108V0Z" fill="white"/>
<path d="M63.1892 0H59.7297V3.45947H63.1892V0Z" fill="white"/>
<path d="M66.6487 0H63.1892V3.45947H66.6487V0Z" fill="white"/>
<path d="M73.5676 0H70.1081V3.45947H73.5676V0Z" fill="white"/>
<path d="M83.9459 0H80.4865V3.45947H83.9459V0Z" fill="white"/>
<path d="M35.5136 3.45898H32.0541V6.91843H35.5136V3.45898Z" fill="white"/>
<path d="M42.4324 3.45898H38.973V6.91843H42.4324V3.45898Z" fill="white"/>
<path d="M45.8919 3.45898H42.4324V6.91843H45.8919V3.45898Z" fill="white"/>
<path d="M49.3514 3.45898H45.8919V6.91843H49.3514V3.45898Z" fill="white"/>
<path d="M52.8108 3.45898H49.3513V6.91843H52.8108V3.45898Z" fill="white"/>
<path d="M56.2703 3.45898H52.8108V6.91843H56.2703V3.45898Z" fill="white"/>
<path d="M63.1892 3.45898H59.7297V6.91843H63.1892V3.45898Z" fill="white"/>
<path d="M73.5676 3.45898H70.1081V6.91843H73.5676V3.45898Z" fill="white"/>
<path d="M80.4865 3.45898H77.0271V6.91843H80.4865V3.45898Z" fill="white"/>
<path d="M32.0541 6.91895H28.5946V10.3784H32.0541V6.91895Z" fill="white"/>
<path d="M38.973 6.91895H35.5136V10.3784H38.973V6.91895Z" fill="white"/>
<path d="M45.8919 6.91895H42.4324V10.3784H45.8919V6.91895Z" fill="white"/>
<path d="M49.3514 6.91895H45.8919V10.3784H49.3514V6.91895Z" fill="white"/>
<path d="M63.1892 6.91895H59.7297V10.3784H63.1892V6.91895Z" fill="white"/>
<path d="M66.6487 6.91895H63.1892V10.3784H66.6487V6.91895Z" fill="white"/>
<path d="M70.1081 6.91895H66.6487V10.3784H70.1081V6.91895Z" fill="white"/>
<path d="M73.5676 6.91895H70.1081V10.3784H73.5676V6.91895Z" fill="white"/>
<path d="M83.9459 6.91895H80.4865V10.3784H83.9459V6.91895Z" fill="white"/>
<path d="M87.4054 6.91895H83.9459V10.3784H87.4054V6.91895Z" fill="white"/>
<path d="M32.0541 10.3779H28.5946V13.8374H32.0541V10.3779Z" fill="white"/>
<path d="M35.5136 10.3779H32.0541V13.8374H35.5136V10.3779Z" fill="white"/>
<path d="M38.973 10.3779H35.5136V13.8374H38.973V10.3779Z" fill="white"/>
<path d="M52.8108 10.3779H49.3513V13.8374H52.8108V10.3779Z" fill="white"/>
<path d="M56.2703 10.3779H52.8108V13.8374H56.2703V10.3779Z" fill="white"/>
<path d="M59.7297 10.3779H56.2703V13.8374H59.7297V10.3779Z" fill="white"/>
<path d="M70.1081 10.3779H66.6487V13.8374H70.1081V10.3779Z" fill="white"/>
<path d="M73.5676 10.3779H70.1081V13.8374H73.5676V10.3779Z" fill="white"/>
<path d="M77.0271 10.3779H73.5676V13.8374H77.0271V10.3779Z" fill="white"/>
<path d="M80.4865 10.3779H77.0271V13.8374H80.4865V10.3779Z" fill="white"/>
<path d="M87.4054 10.3779H83.9459V13.8374H87.4054V10.3779Z" fill="white"/>
<path d="M32.0541 13.8379H28.5946V17.2973H32.0541V13.8379Z" fill="white"/>
<path d="M35.5136 13.8379H32.0541V17.2973H35.5136V13.8379Z" fill="white"/>
<path d="M38.973 13.8379H35.5136V17.2973H38.973V13.8379Z" fill="white"/>
<path d="M42.4324 13.8379H38.973V17.2973H42.4324V13.8379Z" fill="white"/>
<path d="M45.8919 13.8379H42.4324V17.2973H45.8919V13.8379Z" fill="white"/>
<path d="M49.3514 13.8379H45.8919V17.2973H49.3514V13.8379Z" fill="white"/>
<path d="M56.2703 13.8379H52.8108V17.2973H56.2703V13.8379Z" fill="white"/>
<path d="M63.1892 13.8379H59.7297V17.2973H63.1892V13.8379Z" fill="white"/>
<path d="M66.6487 13.8379H63.1892V17.2973H66.6487V13.8379Z" fill="white"/>
<path d="M87.4054 13.8379H83.9459V17.2973H87.4054V13.8379Z" fill="white"/>
<path d="M32.0541 17.2969H28.5946V20.7563H32.0541V17.2969Z" fill="white"/>
<path d="M35.5136 17.2969H32.0541V20.7563H35.5136V17.2969Z" fill="white"/>
<path d="M38.973 17.2969H35.5136V20.7563H38.973V17.2969Z" fill="white"/>
<path d="M42.4324 17.2969H38.973V20.7563H42.4324V17.2969Z" fill="white"/>
<path d="M56.2703 17.2969H52.8108V20.7563H56.2703V17.2969Z" fill="white"/>
<path d="M59.7297 17.2969H56.2703V20.7563H59.7297V17.2969Z" fill="white"/>
<path d="M66.6487 17.2969H63.1892V20.7563H66.6487V17.2969Z" fill="white"/>
<path d="M73.5676 17.2969H70.1081V20.7563H73.5676V17.2969Z" fill="white"/>
<path d="M77.0271 17.2969H73.5676V20.7563H77.0271V17.2969Z" fill="white"/>
<path d="M32.0541 20.7568H28.5946V24.2163H32.0541V20.7568Z" fill="white"/>
<path d="M38.973 20.7568H35.5136V24.2163H38.973V20.7568Z" fill="white"/>
<path d="M45.8919 20.7568H42.4324V24.2163H45.8919V20.7568Z" fill="white"/>
<path d="M52.8108 20.7568H49.3513V24.2163H52.8108V20.7568Z" fill="white"/>
<path d="M59.7297 20.7568H56.2703V24.2163H59.7297V20.7568Z" fill="white"/>
<path d="M66.6487 20.7568H63.1892V24.2163H66.6487V20.7568Z" fill="white"/>
<path d="M73.5676 20.7568H70.1081V24.2163H73.5676V20.7568Z" fill="white"/>
<path d="M80.4865 20.7568H77.0271V24.2163H80.4865V20.7568Z" fill="white"/>
<path d="M87.4054 20.7568H83.9459V24.2163H87.4054V20.7568Z" fill="white"/>
<path d="M32.0541 24.2158H28.5946V27.6753H32.0541V24.2158Z" fill="white"/>
<path d="M38.973 24.2158H35.5136V27.6753H38.973V24.2158Z" fill="white"/>
<path d="M45.8919 24.2158H42.4324V27.6753H45.8919V24.2158Z" fill="white"/>
<path d="M56.2703 24.2158H52.8108V27.6753H56.2703V24.2158Z" fill="white"/>
<path d="M77.0271 24.2158H73.5676V27.6753H77.0271V24.2158Z" fill="white"/>
<path d="M83.9459 24.2158H80.4865V27.6753H83.9459V24.2158Z" fill="white"/>
<path d="M87.4054 24.2158H83.9459V27.6753H87.4054V24.2158Z" fill="white"/>
<path d="M4.37839 27.6758H0.918919V31.1352H4.37839V27.6758Z" fill="white"/>
<path d="M11.2973 27.6758H7.83784V31.1352H11.2973V27.6758Z" fill="white"/>
<path d="M14.7568 27.6758H11.2973V31.1352H14.7568V27.6758Z" fill="white"/>
<path d="M18.2162 27.6758H14.7568V31.1352H18.2162V27.6758Z" fill="white"/>
<path d="M21.6757 27.6758H18.2162V31.1352H21.6757V27.6758Z" fill="white"/>
<path d="M25.1351 27.6758H21.6757V31.1352H25.1351V27.6758Z" fill="white"/>
<path d="M42.4324 27.6758H38.973V31.1352H42.4324V27.6758Z" fill="white"/>
<path d="M49.3514 27.6758H45.8919V31.1352H49.3514V27.6758Z" fill="white"/>
<path d="M52.8108 27.6758H49.3513V31.1352H52.8108V27.6758Z" fill="white"/>
<path d="M56.2703 27.6758H52.8108V31.1352H56.2703V27.6758Z" fill="white"/>
<path d="M59.7297 27.6758H56.2703V31.1352H59.7297V27.6758Z" fill="white"/>
<path d="M80.4865 27.6758H77.0271V31.1352H80.4865V27.6758Z" fill="white"/>
<path d="M87.4054 27.6758H83.9459V31.1352H87.4054V27.6758Z" fill="white"/>
<path d="M94.3243 27.6758H90.8649V31.1352H94.3243V27.6758Z" fill="white"/>
<path d="M97.7838 27.6758H94.3243V31.1352H97.7838V27.6758Z" fill="white"/>
<path d="M101.243 27.6758H97.7838V31.1352H101.243V27.6758Z" fill="white"/>
<path d="M104.703 27.6758H101.243V31.1352H104.703V27.6758Z" fill="white"/>
<path d="M108.162 27.6758H104.703V31.1352H108.162V27.6758Z" fill="white"/>
<path d="M11.2973 31.1348H7.83784V34.5943H11.2973V31.1348Z" fill="white"/>
<path d="M14.7568 31.1348H11.2973V34.5943H14.7568V31.1348Z" fill="white"/>
<path d="M18.2162 31.1348H14.7568V34.5943H18.2162V31.1348Z" fill="white"/>
<path d="M32.0541 31.1348H28.5946V34.5943H32.0541V31.1348Z" fill="white"/>
<path d="M45.8919 31.1348H42.4324V34.5943H45.8919V31.1348Z" fill="white"/>
<path d="M52.8108 31.1348H49.3513V34.5943H52.8108V31.1348Z" fill="white"/>
<path d="M59.7297 31.1348H56.2703V34.5943H59.7297V31.1348Z" fill="white"/>
<path d="M66.6487 31.1348H63.1892V34.5943H66.6487V31.1348Z" fill="white"/>
<path d="M70.1081 31.1348H66.6487V34.5943H70.1081V31.1348Z" fill="white"/>
<path d="M77.0271 31.1348H73.5676V34.5943H77.0271V31.1348Z" fill="white"/>
<path d="M83.9459 31.1348H80.4865V34.5943H83.9459V31.1348Z" fill="white"/>
<path d="M94.3243 31.1348H90.8649V34.5943H94.3243V31.1348Z" fill="white"/>
<path d="M97.7838 31.1348H94.3243V34.5943H97.7838V31.1348Z" fill="white"/>
<path d="M104.703 31.1348H101.243V34.5943H104.703V31.1348Z" fill="white"/>
<path d="M108.162 31.1348H104.703V34.5943H108.162V31.1348Z" fill="white"/>
<path d="M111.622 31.1348H108.162V34.5943H111.622V31.1348Z" fill="white"/>
<path d="M115.081 31.1348H111.622V34.5943H115.081V31.1348Z" fill="white"/>
<path d="M11.2973 34.5947H7.83784V38.0541H11.2973V34.5947Z" fill="white"/>
<path d="M14.7568 34.5947H11.2973V38.0541H14.7568V34.5947Z" fill="white"/>
<path d="M25.1351 34.5947H21.6757V38.0541H25.1351V34.5947Z" fill="white"/>
<path d="M28.5946 34.5947H25.1351V38.0541H28.5946V34.5947Z" fill="white"/>
<path d="M56.2703 34.5947H52.8108V38.0541H56.2703V34.5947Z" fill="white"/>
<path d="M59.7297 34.5947H56.2703V38.0541H59.7297V34.5947Z" fill="white"/>
<path d="M66.6487 34.5947H63.1892V38.0541H66.6487V34.5947Z" fill="white"/>
<path d="M73.5676 34.5947H70.1081V38.0541H73.5676V34.5947Z" fill="white"/>
<path d="M77.0271 34.5947H73.5676V38.0541H77.0271V34.5947Z" fill="white"/>
<path d="M90.8649 34.5947H87.4054V38.0541H90.8649V34.5947Z" fill="white"/>
<path d="M101.243 34.5947H97.7838V38.0541H101.243V34.5947Z" fill="white"/>
<path d="M108.162 34.5947H104.703V38.0541H108.162V34.5947Z" fill="white"/>
<path d="M111.622 34.5947H108.162V38.0541H111.622V34.5947Z" fill="white"/>
<path d="M4.37839 38.0537H0.918919V41.5132H4.37839V38.0537Z" fill="white"/>
<path d="M21.6757 38.0537H18.2162V41.5132H21.6757V38.0537Z" fill="white"/>
<path d="M28.5946 38.0537H25.1351V41.5132H28.5946V38.0537Z" fill="white"/>
<path d="M35.5136 38.0537H32.0541V41.5132H35.5136V38.0537Z" fill="white"/>
<path d="M38.973 38.0537H35.5136V41.5132H38.973V38.0537Z" fill="white"/>
<path d="M52.8108 38.0537H49.3513V41.5132H52.8108V38.0537Z" fill="white"/>
<path d="M56.2703 38.0537H52.8108V41.5132H56.2703V38.0537Z" fill="white"/>
<path d="M73.5676 38.0537H70.1081V41.5132H73.5676V38.0537Z" fill="white"/>
<path d="M77.0271 38.0537H73.5676V41.5132H77.0271V38.0537Z" fill="white"/>
<path d="M80.4865 38.0537H77.0271V41.5132H80.4865V38.0537Z" fill="white"/>
<path d="M94.3243 38.0537H90.8649V41.5132H94.3243V38.0537Z" fill="white"/>
<path d="M101.243 38.0537H97.7838V41.5132H101.243V38.0537Z" fill="white"/>
<path d="M104.703 38.0537H101.243V41.5132H104.703V38.0537Z" fill="white"/>
<path d="M108.162 38.0537H104.703V41.5132H108.162V38.0537Z" fill="white"/>
<path d="M7.83784 41.5137H4.37839V44.9731H7.83784V41.5137Z" fill="white"/>
<path d="M11.2973 41.5137H7.83784V44.9731H11.2973V41.5137Z" fill="white"/>
<path d="M18.2162 41.5137H14.7568V44.9731H18.2162V41.5137Z" fill="white"/>
<path d="M21.6757 41.5137H18.2162V44.9731H21.6757V41.5137Z" fill="white"/>
<path d="M25.1351 41.5137H21.6757V44.9731H25.1351V41.5137Z" fill="white"/>
<path d="M32.0541 41.5137H28.5946V44.9731H32.0541V41.5137Z" fill="white"/>
<path d="M38.973 41.5137H35.5136V44.9731H38.973V41.5137Z" fill="white"/>
<path d="M45.8919 41.5137H42.4324V44.9731H45.8919V41.5137Z" fill="white"/>
<path d="M56.2703 41.5137H52.8108V44.9731H56.2703V41.5137Z" fill="white"/>
<path d="M66.6487 41.5137H63.1892V44.9731H66.6487V41.5137Z" fill="white"/>
<path d="M70.1081 41.5137H66.6487V44.9731H70.1081V41.5137Z" fill="white"/>
<path d="M77.0271 41.5137H73.5676V44.9731H77.0271V41.5137Z" fill="white"/>
<path d="M90.8649 41.5137H87.4054V44.9731H90.8649V41.5137Z" fill="white"/>
<path d="M101.243 41.5137H97.7838V44.9731H101.243V41.5137Z" fill="white"/>
<path d="M104.703 41.5137H101.243V44.9731H104.703V41.5137Z" fill="white"/>
<path d="M4.37839 44.9727H0.918919V48.4321H4.37839V44.9727Z" fill="white"/>
<path d="M7.83784 44.9727H4.37839V48.4321H7.83784V44.9727Z" fill="white"/>
<path d="M11.2973 44.9727H7.83784V48.4321H11.2973V44.9727Z" fill="white"/>
<path d="M28.5946 44.9727H25.1351V48.4321H28.5946V44.9727Z" fill="white"/>
<path d="M32.0541 44.9727H28.5946V48.4321H32.0541V44.9727Z" fill="white"/>
<path d="M38.973 44.9727H35.5136V48.4321H38.973V44.9727Z" fill="white"/>
<path d="M42.4324 44.9727H38.973V48.4321H42.4324V44.9727Z" fill="white"/>
<path d="M45.8919 44.9727H42.4324V48.4321H45.8919V44.9727Z" fill="white"/>
<path d="M52.8108 44.9727H49.3513V48.4321H52.8108V44.9727Z" fill="white"/>
<path d="M56.2703 44.9727H52.8108V48.4321H56.2703V44.9727Z" fill="white"/>
<path d="M59.7297 44.9727H56.2703V48.4321H59.7297V44.9727Z" fill="white"/>
<path d="M63.1892 44.9727H59.7297V48.4321H63.1892V44.9727Z" fill="white"/>
<path d="M73.5676 44.9727H70.1081V48.4321H73.5676V44.9727Z" fill="white"/>
<path d="M77.0271 44.9727H73.5676V48.4321H77.0271V44.9727Z" fill="white"/>
<path d="M80.4865 44.9727H77.0271V48.4321H80.4865V44.9727Z" fill="white"/>
<path d="M83.9459 44.9727H80.4865V48.4321H83.9459V44.9727Z" fill="white"/>
<path d="M97.7838 44.9727H94.3243V48.4321H97.7838V44.9727Z" fill="white"/>
<path d="M108.162 44.9727H104.703V48.4321H108.162V44.9727Z" fill="white"/>
<path d="M111.622 44.9727H108.162V48.4321H111.622V44.9727Z" fill="white"/>
<path d="M115.081 44.9727H111.622V48.4321H115.081V44.9727Z" fill="white"/>
<path d="M7.83784 48.4326H4.37839V51.8921H7.83784V48.4326Z" fill="white"/>
<path d="M11.2973 48.4326H7.83784V51.8921H11.2973V48.4326Z" fill="white"/>
<path d="M18.2162 48.4326H14.7568V51.8921H18.2162V48.4326Z" fill="white"/>
<path d="M25.1351 48.4326H21.6757V51.8921H25.1351V48.4326Z" fill="white"/>
<path d="M32.0541 48.4326H28.5946V51.8921H32.0541V48.4326Z" fill="white"/>
<path d="M35.5136 48.4326H32.0541V51.8921H35.5136V48.4326Z" fill="white"/>
<path d="M49.3514 48.4326H45.8919V51.8921H49.3514V48.4326Z" fill="white"/>
<path d="M52.8108 48.4326H49.3513V51.8921H52.8108V48.4326Z" fill="white"/>
<path d="M63.1892 48.4326H59.7297V51.8921H63.1892V48.4326Z" fill="white"/>
<path d="M70.1081 48.4326H66.6487V51.8921H70.1081V48.4326Z" fill="white"/>
<path d="M77.0271 48.4326H73.5676V51.8921H77.0271V48.4326Z" fill="white"/>
<path d="M90.8649 48.4326H87.4054V51.8921H90.8649V48.4326Z" fill="white"/>
<path d="M94.3243 48.4326H90.8649V51.8921H94.3243V48.4326Z" fill="white"/>
<path d="M104.703 48.4326H101.243V51.8921H104.703V48.4326Z" fill="white"/>
<path d="M108.162 48.4326H104.703V51.8921H108.162V48.4326Z" fill="white"/>
<path d="M111.622 48.4326H108.162V51.8921H111.622V48.4326Z" fill="white"/>
<path d="M4.37839 51.8916H0.918919V55.3511H4.37839V51.8916Z" fill="white"/>
<path d="M11.2973 51.8916H7.83784V55.3511H11.2973V51.8916Z" fill="white"/>
<path d="M14.7568 51.8916H11.2973V55.3511H14.7568V51.8916Z" fill="white"/>
<path d="M45.8919 51.8916H42.4324V55.3511H45.8919V51.8916Z" fill="white"/>
<path d="M49.3514 51.8916H45.8919V55.3511H49.3514V51.8916Z" fill="white"/>
<path d="M52.8108 51.8916H49.3513V55.3511H52.8108V51.8916Z" fill="white"/>
<path d="M59.7297 51.8916H56.2703V55.3511H59.7297V51.8916Z" fill="white"/>
<path d="M66.6487 51.8916H63.1892V55.3511H66.6487V51.8916Z" fill="white"/>
<path d="M70.1081 51.8916H66.6487V55.3511H70.1081V51.8916Z" fill="white"/>
<path d="M73.5676 51.8916H70.1081V55.3511H73.5676V51.8916Z" fill="white"/>
<path d="M77.0271 51.8916H73.5676V55.3511H77.0271V51.8916Z" fill="white"/>
<path d="M80.4865 51.8916H77.0271V55.3511H80.4865V51.8916Z" fill="white"/>
<path d="M83.9459 51.8916H80.4865V55.3511H83.9459V51.8916Z" fill="white"/>
<path d="M87.4054 51.8916H83.9459V55.3511H87.4054V51.8916Z" fill="white"/>
<path d="M90.8649 51.8916H87.4054V55.3511H90.8649V51.8916Z" fill="white"/>
<path d="M94.3243 51.8916H90.8649V55.3511H94.3243V51.8916Z" fill="white"/>
<path d="M97.7838 51.8916H94.3243V55.3511H97.7838V51.8916Z" fill="white"/>
<path d="M108.162 51.8916H104.703V55.3511H108.162V51.8916Z" fill="white"/>
<path d="M4.37839 55.3516H0.918919V58.811H4.37839V55.3516Z" fill="white"/>
<path d="M18.2162 55.3516H14.7568V58.811H18.2162V55.3516Z" fill="white"/>
<path d="M21.6757 55.3516H18.2162V58.811H21.6757V55.3516Z" fill="white"/>
<path d="M25.1351 55.3516H21.6757V58.811H25.1351V55.3516Z" fill="white"/>
<path d="M32.0541 55.3516H28.5946V58.811H32.0541V55.3516Z" fill="white"/>
<path d="M45.8919 55.3516H42.4324V58.811H45.8919V55.3516Z" fill="white"/>
<path d="M49.3514 55.3516H45.8919V58.811H49.3514V55.3516Z" fill="white"/>
<path d="M70.1081 55.3516H66.6487V58.811H70.1081V55.3516Z" fill="white"/>
<path d="M80.4865 55.3516H77.0271V58.811H80.4865V55.3516Z" fill="white"/>
<path d="M87.4054 55.3516H83.9459V58.811H87.4054V55.3516Z" fill="white"/>
<path d="M90.8649 55.3516H87.4054V58.811H90.8649V55.3516Z" fill="white"/>
<path d="M97.7838 55.3516H94.3243V58.811H97.7838V55.3516Z" fill="white"/>
<path d="M101.243 55.3516H97.7838V58.811H101.243V55.3516Z" fill="white"/>
<path d="M115.081 55.3516H111.622V58.811H115.081V55.3516Z" fill="white"/>
<path d="M14.7568 58.8105H11.2973V62.27H14.7568V58.8105Z" fill="white"/>
<path d="M18.2162 58.8105H14.7568V62.27H18.2162V58.8105Z" fill="white"/>
<path d="M21.6757 58.8105H18.2162V62.27H21.6757V58.8105Z" fill="white"/>
<path d="M32.0541 58.8105H28.5946V62.27H32.0541V58.8105Z" fill="white"/>
<path d="M42.4324 58.8105H38.973V62.27H42.4324V58.8105Z" fill="white"/>
<path d="M59.7297 58.8105H56.2703V62.27H59.7297V58.8105Z" fill="white"/>
<path d="M63.1892 58.8105H59.7297V62.27H63.1892V58.8105Z" fill="white"/>
<path d="M66.6487 58.8105H63.1892V62.27H66.6487V58.8105Z" fill="white"/>
<path d="M70.1081 58.8105H66.6487V62.27H70.1081V58.8105Z" fill="white"/>
<path d="M73.5676 58.8105H70.1081V62.27H73.5676V58.8105Z" fill="white"/>
<path d="M80.4865 58.8105H77.0271V62.27H80.4865V58.8105Z" fill="white"/>
<path d="M83.9459 58.8105H80.4865V62.27H83.9459V58.8105Z" fill="white"/>
<path d="M90.8649 58.8105H87.4054V62.27H90.8649V58.8105Z" fill="white"/>
<path d="M94.3243 58.8105H90.8649V62.27H94.3243V58.8105Z" fill="white"/>
<path d="M97.7838 58.8105H94.3243V62.27H97.7838V58.8105Z" fill="white"/>
<path d="M104.703 58.8105H101.243V62.27H104.703V58.8105Z" fill="white"/>
<path d="M108.162 58.8105H104.703V62.27H108.162V58.8105Z" fill="white"/>
<path d="M111.622 58.8105H108.162V62.27H111.622V58.8105Z" fill="white"/>
<path d="M115.081 58.8105H111.622V62.27H115.081V58.8105Z" fill="white"/>
<path d="M7.83784 62.2705H4.37839V65.73H7.83784V62.2705Z" fill="white"/>
<path d="M25.1351 62.2705H21.6757V65.73H25.1351V62.2705Z" fill="white"/>
<path d="M32.0541 62.2705H28.5946V65.73H32.0541V62.2705Z" fill="white"/>
<path d="M38.973 62.2705H35.5136V65.73H38.973V62.2705Z" fill="white"/>
<path d="M56.2703 62.2705H52.8108V65.73H56.2703V62.2705Z" fill="white"/>
<path d="M63.1892 62.2705H59.7297V65.73H63.1892V62.2705Z" fill="white"/>
<path d="M73.5676 62.2705H70.1081V65.73H73.5676V62.2705Z" fill="white"/>
<path d="M80.4865 62.2705H77.0271V65.73H80.4865V62.2705Z" fill="white"/>
<path d="M94.3243 62.2705H90.8649V65.73H94.3243V62.2705Z" fill="white"/>
<path d="M97.7838 62.2705H94.3243V65.73H97.7838V62.2705Z" fill="white"/>
<path d="M101.243 62.2705H97.7838V65.73H101.243V62.2705Z" fill="white"/>
<path d="M108.162 62.2705H104.703V65.73H108.162V62.2705Z" fill="white"/>
<path d="M4.37839 65.7295H0.918919V69.1889H4.37839V65.7295Z" fill="white"/>
<path d="M7.83784 65.7295H4.37839V69.1889H7.83784V65.7295Z" fill="white"/>
<path d="M21.6757 65.7295H18.2162V69.1889H21.6757V65.7295Z" fill="white"/>
<path d="M28.5946 65.7295H25.1351V69.1889H28.5946V65.7295Z" fill="white"/>
<path d="M32.0541 65.7295H28.5946V69.1889H32.0541V65.7295Z" fill="white"/>
<path d="M35.5136 65.7295H32.0541V69.1889H35.5136V65.7295Z" fill="white"/>
<path d="M49.3514 65.7295H45.8919V69.1889H49.3514V65.7295Z" fill="white"/>
<path d="M56.2703 65.7295H52.8108V69.1889H56.2703V65.7295Z" fill="white"/>
<path d="M63.1892 65.7295H59.7297V69.1889H63.1892V65.7295Z" fill="white"/>
<path d="M66.6487 65.7295H63.1892V69.1889H66.6487V65.7295Z" fill="white"/>
<path d="M70.1081 65.7295H66.6487V69.1889H70.1081V65.7295Z" fill="white"/>
<path d="M73.5676 65.7295H70.1081V69.1889H73.5676V65.7295Z" fill="white"/>
<path d="M83.9459 65.7295H80.4865V69.1889H83.9459V65.7295Z" fill="white"/>
<path d="M97.7838 65.7295H94.3243V69.1889H97.7838V65.7295Z" fill="white"/>
<path d="M101.243 65.7295H97.7838V69.1889H101.243V65.7295Z" fill="white"/>
<path d="M104.703 65.7295H101.243V69.1889H104.703V65.7295Z" fill="white"/>
<path d="M108.162 65.7295H104.703V69.1889H108.162V65.7295Z" fill="white"/>
<path d="M111.622 65.7295H108.162V69.1889H111.622V65.7295Z" fill="white"/>
<path d="M4.37839 69.1895H0.918919V72.6489H4.37839V69.1895Z" fill="white"/>
<path d="M11.2973 69.1895H7.83784V72.6489H11.2973V69.1895Z" fill="white"/>
<path d="M14.7568 69.1895H11.2973V72.6489H14.7568V69.1895Z" fill="white"/>
<path d="M25.1351 69.1895H21.6757V72.6489H25.1351V69.1895Z" fill="white"/>
<path d="M35.5136 69.1895H32.0541V72.6489H35.5136V69.1895Z" fill="white"/>
<path d="M45.8919 69.1895H42.4324V72.6489H45.8919V69.1895Z" fill="white"/>
<path d="M59.7297 69.1895H56.2703V72.6489H59.7297V69.1895Z" fill="white"/>
<path d="M70.1081 69.1895H66.6487V72.6489H70.1081V69.1895Z" fill="white"/>
<path d="M73.5676 69.1895H70.1081V72.6489H73.5676V69.1895Z" fill="white"/>
<path d="M77.0271 69.1895H73.5676V72.6489H77.0271V69.1895Z" fill="white"/>
<path d="M80.4865 69.1895H77.0271V72.6489H80.4865V69.1895Z" fill="white"/>
<path d="M90.8649 69.1895H87.4054V72.6489H90.8649V69.1895Z" fill="white"/>
<path d="M97.7838 69.1895H94.3243V72.6489H97.7838V69.1895Z" fill="white"/>
<path d="M104.703 69.1895H101.243V72.6489H104.703V69.1895Z" fill="white"/>
<path d="M115.081 69.1895H111.622V72.6489H115.081V69.1895Z" fill="white"/>
<path d="M4.37839 72.6484H0.918919V76.108H4.37839V72.6484Z" fill="white"/>
<path d="M18.2162 72.6484H14.7568V76.108H18.2162V72.6484Z" fill="white"/>
<path d="M21.6757 72.6484H18.2162V76.108H21.6757V72.6484Z" fill="white"/>
<path d="M35.5136 72.6484H32.0541V76.108H35.5136V72.6484Z" fill="white"/>
<path d="M38.973 72.6484H35.5136V76.108H38.973V72.6484Z" fill="white"/>
<path d="M42.4324 72.6484H38.973V76.108H42.4324V72.6484Z" fill="white"/>
<path d="M45.8919 72.6484H42.4324V76.108H45.8919V72.6484Z" fill="white"/>
<path d="M49.3514 72.6484H45.8919V76.108H49.3514V72.6484Z" fill="white"/>
<path d="M56.2703 72.6484H52.8108V76.108H56.2703V72.6484Z" fill="white"/>
<path d="M63.1892 72.6484H59.7297V76.108H63.1892V72.6484Z" fill="white"/>
<path d="M66.6487 72.6484H63.1892V76.108H66.6487V72.6484Z" fill="white"/>
<path d="M77.0271 72.6484H73.5676V76.108H77.0271V72.6484Z" fill="white"/>
<path d="M83.9459 72.6484H80.4865V76.108H83.9459V72.6484Z" fill="white"/>
<path d="M94.3243 72.6484H90.8649V76.108H94.3243V72.6484Z" fill="white"/>
<path d="M104.703 72.6484H101.243V76.108H104.703V72.6484Z" fill="white"/>
<path d="M115.081 72.6484H111.622V76.108H115.081V72.6484Z" fill="white"/>
<path d="M4.37839 76.1084H0.918919V79.5677H4.37839V76.1084Z" fill="white"/>
<path d="M14.7568 76.1084H11.2973V79.5677H14.7568V76.1084Z" fill="white"/>
<path d="M25.1351 76.1084H21.6757V79.5677H25.1351V76.1084Z" fill="white"/>
<path d="M28.5946 76.1084H25.1351V79.5677H28.5946V76.1084Z" fill="white"/>
<path d="M32.0541 76.1084H28.5946V79.5677H32.0541V76.1084Z" fill="white"/>
<path d="M35.5136 76.1084H32.0541V79.5677H35.5136V76.1084Z" fill="white"/>
<path d="M52.8108 76.1084H49.3513V79.5677H52.8108V76.1084Z" fill="white"/>
<path d="M56.2703 76.1084H52.8108V79.5677H56.2703V76.1084Z" fill="white"/>
<path d="M59.7297 76.1084H56.2703V79.5677H59.7297V76.1084Z" fill="white"/>
<path d="M66.6487 76.1084H63.1892V79.5677H66.6487V76.1084Z" fill="white"/>
<path d="M73.5676 76.1084H70.1081V79.5677H73.5676V76.1084Z" fill="white"/>
<path d="M77.0271 76.1084H73.5676V79.5677H77.0271V76.1084Z" fill="white"/>
<path d="M80.4865 76.1084H77.0271V79.5677H80.4865V76.1084Z" fill="white"/>
<path d="M87.4054 76.1084H83.9459V79.5677H87.4054V76.1084Z" fill="white"/>
<path d="M90.8649 76.1084H87.4054V79.5677H90.8649V76.1084Z" fill="white"/>
<path d="M97.7838 76.1084H94.3243V79.5677H97.7838V76.1084Z" fill="white"/>
<path d="M101.243 76.1084H97.7838V79.5677H101.243V76.1084Z" fill="white"/>
<path d="M104.703 76.1084H101.243V79.5677H104.703V76.1084Z" fill="white"/>
<path d="M108.162 76.1084H104.703V79.5677H108.162V76.1084Z" fill="white"/>
<path d="M111.622 76.1084H108.162V79.5677H111.622V76.1084Z" fill="white"/>
<path d="M4.37839 79.5674H0.918919V83.0268H4.37839V79.5674Z" fill="white"/>
<path d="M11.2973 79.5674H7.83784V83.0268H11.2973V79.5674Z" fill="white"/>
<path d="M18.2162 79.5674H14.7568V83.0268H18.2162V79.5674Z" fill="white"/>
<path d="M28.5946 79.5674H25.1351V83.0268H28.5946V79.5674Z" fill="white"/>
<path d="M32.0541 79.5674H28.5946V83.0268H32.0541V79.5674Z" fill="white"/>
<path d="M42.4324 79.5674H38.973V83.0268H42.4324V79.5674Z" fill="white"/>
<path d="M45.8919 79.5674H42.4324V83.0268H45.8919V79.5674Z" fill="white"/>
<path d="M49.3514 79.5674H45.8919V83.0268H49.3514V79.5674Z" fill="white"/>
<path d="M56.2703 79.5674H52.8108V83.0268H56.2703V79.5674Z" fill="white"/>
<path d="M66.6487 79.5674H63.1892V83.0268H66.6487V79.5674Z" fill="white"/>
<path d="M77.0271 79.5674H73.5676V83.0268H77.0271V79.5674Z" fill="white"/>
<path d="M87.4054 79.5674H83.9459V83.0268H87.4054V79.5674Z" fill="white"/>
<path d="M90.8649 79.5674H87.4054V83.0268H90.8649V79.5674Z" fill="white"/>
<path d="M104.703 79.5674H101.243V83.0268H104.703V79.5674Z" fill="white"/>
<path d="M108.162 79.5674H104.703V83.0268H108.162V79.5674Z" fill="white"/>
<path d="M4.37839 83.0273H0.918919V86.4868H4.37839V83.0273Z" fill="white"/>
<path d="M14.7568 83.0273H11.2973V86.4868H14.7568V83.0273Z" fill="white"/>
<path d="M18.2162 83.0273H14.7568V86.4868H18.2162V83.0273Z" fill="white"/>
<path d="M25.1351 83.0273H21.6757V86.4868H25.1351V83.0273Z" fill="white"/>
<path d="M32.0541 83.0273H28.5946V86.4868H32.0541V83.0273Z" fill="white"/>
<path d="M38.973 83.0273H35.5136V86.4868H38.973V83.0273Z" fill="white"/>
<path d="M42.4324 83.0273H38.973V86.4868H42.4324V83.0273Z" fill="white"/>
<path d="M45.8919 83.0273H42.4324V86.4868H45.8919V83.0273Z" fill="white"/>
<path d="M49.3514 83.0273H45.8919V86.4868H49.3514V83.0273Z" fill="white"/>
<path d="M52.8108 83.0273H49.3513V86.4868H52.8108V83.0273Z" fill="white"/>
<path d="M56.2703 83.0273H52.8108V86.4868H56.2703V83.0273Z" fill="white"/>
<path d="M59.7297 83.0273H56.2703V86.4868H59.7297V83.0273Z" fill="white"/>
<path d="M63.1892 83.0273H59.7297V86.4868H63.1892V83.0273Z" fill="white"/>
<path d="M87.4054 83.0273H83.9459V86.4868H87.4054V83.0273Z" fill="white"/>
<path d="M90.8649 83.0273H87.4054V86.4868H90.8649V83.0273Z" fill="white"/>
<path d="M94.3243 83.0273H90.8649V86.4868H94.3243V83.0273Z" fill="white"/>
<path d="M97.7838 83.0273H94.3243V86.4868H97.7838V83.0273Z" fill="white"/>
<path d="M101.243 83.0273H97.7838V86.4868H101.243V83.0273Z" fill="white"/>
<path d="M108.162 83.0273H104.703V86.4868H108.162V83.0273Z" fill="white"/>
<path d="M111.622 83.0273H108.162V86.4868H111.622V83.0273Z" fill="white"/>
<path d="M115.081 83.0273H111.622V86.4868H115.081V83.0273Z" fill="white"/>
<path d="M32.0541 86.4863H28.5946V89.9458H32.0541V86.4863Z" fill="white"/>
<path d="M38.973 86.4863H35.5136V89.9458H38.973V86.4863Z" fill="white"/>
<path d="M42.4324 86.4863H38.973V89.9458H42.4324V86.4863Z" fill="white"/>
<path d="M49.3514 86.4863H45.8919V89.9458H49.3514V86.4863Z" fill="white"/>
<path d="M52.8108 86.4863H49.3513V89.9458H52.8108V86.4863Z" fill="white"/>
<path d="M70.1081 86.4863H66.6487V89.9458H70.1081V86.4863Z" fill="white"/>
<path d="M73.5676 86.4863H70.1081V89.9458H73.5676V86.4863Z" fill="white"/>
<path d="M77.0271 86.4863H73.5676V89.9458H77.0271V86.4863Z" fill="white"/>
<path d="M83.9459 86.4863H80.4865V89.9458H83.9459V86.4863Z" fill="white"/>
<path d="M87.4054 86.4863H83.9459V89.9458H87.4054V86.4863Z" fill="white"/>
<path d="M101.243 86.4863H97.7838V89.9458H101.243V86.4863Z" fill="white"/>
<path d="M108.162 86.4863H104.703V89.9458H108.162V86.4863Z" fill="white"/>
<path d="M111.622 86.4863H108.162V89.9458H111.622V86.4863Z" fill="white"/>
<path d="M115.081 86.4863H111.622V89.9458H115.081V86.4863Z" fill="white"/>
<path d="M35.5136 89.9463H32.0541V93.4057H35.5136V89.9463Z" fill="white"/>
<path d="M56.2703 89.9463H52.8108V93.4057H56.2703V89.9463Z" fill="white"/>
<path d="M66.6487 89.9463H63.1892V93.4057H66.6487V89.9463Z" fill="white"/>
<path d="M73.5676 89.9463H70.1081V93.4057H73.5676V89.9463Z" fill="white"/>
<path d="M77.0271 89.9463H73.5676V93.4057H77.0271V89.9463Z" fill="white"/>
<path d="M83.9459 89.9463H80.4865V93.4057H83.9459V89.9463Z" fill="white"/>
<path d="M87.4054 89.9463H83.9459V93.4057H87.4054V89.9463Z" fill="white"/>
<path d="M94.3243 89.9463H90.8649V93.4057H94.3243V89.9463Z" fill="white"/>
<path d="M101.243 89.9463H97.7838V93.4057H101.243V89.9463Z" fill="white"/>
<path d="M108.162 89.9463H104.703V93.4057H108.162V89.9463Z" fill="white"/>
<path d="M32.0541 93.4053H28.5946V96.8647H32.0541V93.4053Z" fill="white"/>
<path d="M45.8919 93.4053H42.4324V96.8647H45.8919V93.4053Z" fill="white"/>
<path d="M49.3514 93.4053H45.8919V96.8647H49.3514V93.4053Z" fill="white"/>
<path d="M52.8108 93.4053H49.3513V96.8647H52.8108V93.4053Z" fill="white"/>
<path d="M56.2703 93.4053H52.8108V96.8647H56.2703V93.4053Z" fill="white"/>
<path d="M59.7297 93.4053H56.2703V96.8647H59.7297V93.4053Z" fill="white"/>
<path d="M70.1081 93.4053H66.6487V96.8647H70.1081V93.4053Z" fill="white"/>
<path d="M77.0271 93.4053H73.5676V96.8647H77.0271V93.4053Z" fill="white"/>
<path d="M80.4865 93.4053H77.0271V96.8647H80.4865V93.4053Z" fill="white"/>
<path d="M83.9459 93.4053H80.4865V96.8647H83.9459V93.4053Z" fill="white"/>
<path d="M87.4054 93.4053H83.9459V96.8647H87.4054V93.4053Z" fill="white"/>
<path d="M101.243 93.4053H97.7838V96.8647H101.243V93.4053Z" fill="white"/>
<path d="M104.703 93.4053H101.243V96.8647H104.703V93.4053Z" fill="white"/>
<path d="M108.162 93.4053H104.703V96.8647H108.162V93.4053Z" fill="white"/>
<path d="M32.0541 96.8652H28.5946V100.325H32.0541V96.8652Z" fill="white"/>
<path d="M38.973 96.8652H35.5136V100.325H38.973V96.8652Z" fill="white"/>
<path d="M42.4324 96.8652H38.973V100.325H42.4324V96.8652Z" fill="white"/>
<path d="M52.8108 96.8652H49.3513V100.325H52.8108V96.8652Z" fill="white"/>
<path d="M56.2703 96.8652H52.8108V100.325H56.2703V96.8652Z" fill="white"/>
<path d="M66.6487 96.8652H63.1892V100.325H66.6487V96.8652Z" fill="white"/>
<path d="M77.0271 96.8652H73.5676V100.325H77.0271V96.8652Z" fill="white"/>
<path d="M87.4054 96.8652H83.9459V100.325H87.4054V96.8652Z" fill="white"/>
<path d="M90.8649 96.8652H87.4054V100.325H90.8649V96.8652Z" fill="white"/>
<path d="M94.3243 96.8652H90.8649V100.325H94.3243V96.8652Z" fill="white"/>
<path d="M97.7838 96.8652H94.3243V100.325H97.7838V96.8652Z" fill="white"/>
<path d="M101.243 96.8652H97.7838V100.325H101.243V96.8652Z" fill="white"/>
<path d="M104.703 96.8652H101.243V100.325H104.703V96.8652Z" fill="white"/>
<path d="M115.081 96.8652H111.622V100.325H115.081V96.8652Z" fill="white"/>
<path d="M32.0541 100.324H28.5946V103.784H32.0541V100.324Z" fill="white"/>
<path d="M35.5136 100.324H32.0541V103.784H35.5136V100.324Z" fill="white"/>
<path d="M38.973 100.324H35.5136V103.784H38.973V100.324Z" fill="white"/>
<path d="M56.2703 100.324H52.8108V103.784H56.2703V100.324Z" fill="white"/>
<path d="M59.7297 100.324H56.2703V103.784H59.7297V100.324Z" fill="white"/>
<path d="M73.5676 100.324H70.1081V103.784H73.5676V100.324Z" fill="white"/>
<path d="M80.4865 100.324H77.0271V103.784H80.4865V100.324Z" fill="white"/>
<path d="M101.243 100.324H97.7838V103.784H101.243V100.324Z" fill="white"/>
<path d="M104.703 100.324H101.243V103.784H104.703V100.324Z" fill="white"/>
<path d="M108.162 100.324H104.703V103.784H108.162V100.324Z" fill="white"/>
<path d="M115.081 100.324H111.622V103.784H115.081V100.324Z" fill="white"/>
<path d="M32.0541 103.784H28.5946V107.244H32.0541V103.784Z" fill="white"/>
<path d="M45.8919 103.784H42.4324V107.244H45.8919V103.784Z" fill="white"/>
<path d="M63.1892 103.784H59.7297V107.244H63.1892V103.784Z" fill="white"/>
<path d="M66.6487 103.784H63.1892V107.244H66.6487V103.784Z" fill="white"/>
<path d="M70.1081 103.784H66.6487V107.244H70.1081V103.784Z" fill="white"/>
<path d="M80.4865 103.784H77.0271V107.244H80.4865V103.784Z" fill="white"/>
<path d="M83.9459 103.784H80.4865V107.244H83.9459V103.784Z" fill="white"/>
<path d="M94.3243 103.784H90.8649V107.244H94.3243V103.784Z" fill="white"/>
<path d="M97.7838 103.784H94.3243V107.244H97.7838V103.784Z" fill="white"/>
<path d="M104.703 103.784H101.243V107.244H104.703V103.784Z" fill="white"/>
<path d="M52.8108 107.243H49.3513V110.703H52.8108V107.243Z" fill="white"/>
<path d="M59.7297 107.243H56.2703V110.703H59.7297V107.243Z" fill="white"/>
<path d="M66.6487 107.243H63.1892V110.703H66.6487V107.243Z" fill="white"/>
<path d="M70.1081 107.243H66.6487V110.703H70.1081V107.243Z" fill="white"/>
<path d="M73.5676 107.243H70.1081V110.703H73.5676V107.243Z" fill="white"/>
<path d="M77.0271 107.243H73.5676V110.703H77.0271V107.243Z" fill="white"/>
<path d="M83.9459 107.243H80.4865V110.703H83.9459V107.243Z" fill="white"/>
<path d="M87.4054 107.243H83.9459V110.703H87.4054V107.243Z" fill="white"/>
<path d="M94.3243 107.243H90.8649V110.703H94.3243V107.243Z" fill="white"/>
<path d="M101.243 107.243H97.7838V110.703H101.243V107.243Z" fill="white"/>
<path d="M104.703 107.243H101.243V110.703H104.703V107.243Z" fill="white"/>
<path d="M108.162 107.243H104.703V110.703H108.162V107.243Z" fill="white"/>
<path d="M32.0541 110.703H28.5946V114.163H32.0541V110.703Z" fill="white"/>
<path d="M35.5136 110.703H32.0541V114.163H35.5136V110.703Z" fill="white"/>
<path d="M45.8919 110.703H42.4324V114.163H45.8919V110.703Z" fill="white"/>
<path d="M70.1081 110.703H66.6487V114.163H70.1081V110.703Z" fill="white"/>
<path d="M80.4865 110.703H77.0271V114.163H80.4865V110.703Z" fill="white"/>
<path d="M83.9459 110.703H80.4865V114.163H83.9459V110.703Z" fill="white"/>
<path d="M87.4054 110.703H83.9459V114.163H87.4054V110.703Z" fill="white"/>
<path d="M97.7838 110.703H94.3243V114.163H97.7838V110.703Z" fill="white"/>
<path d="M111.622 110.703H108.162V114.163H111.622V110.703Z" fill="white"/>
<path d="M21.5027 0H4.55135H0.918919V3.63243V20.5838V24.2162H4.55135H21.5027H25.1351V20.5838V3.63243V0H21.5027ZM21.5027 20.5838H4.55135V3.63243H21.5027V20.5838Z" fill="white"/>
<path d="M111.449 0H94.4973H90.8649V3.63243V20.5838V24.2162H94.4973H111.449H115.081V20.5838V3.63243V0H111.449ZM111.449 20.5838H94.4973V3.63243H111.449V20.5838Z" fill="white"/>
<path d="M21.5027 89.9463H4.55135H0.918919V93.5787V110.53V114.162H4.55135H21.5027H25.1351V110.53V93.5787V89.9463H21.5027ZM21.5027 110.53H4.55135V93.5787H21.5027V110.53Z" fill="white"/>
<path d="M10.6764 17.2973C9.11035 17.2973 7.8364 16.0486 7.8364 14.5151V9.69973C7.8364 9.22066 7.96094 8.76983 8.17899 8.37534C8.38957 7.9957 8.68763 7.66941 9.04662 7.42323C9.50773 7.10586 10.0698 6.91895 10.6749 6.91895H15.3791C16.9437 6.91895 18.2177 8.16622 18.2177 9.69962V14.515C18.2177 16.0484 16.9438 17.2972 15.3791 17.2972H13.027H10.6764V17.2973Z" fill="white"/>
<path d="M100.622 17.2973C99.0563 17.2973 97.7823 16.0486 97.7823 14.5151V9.69973C97.7823 9.22066 97.9069 8.76983 98.1249 8.37534C98.3355 7.9957 98.6336 7.66941 98.9926 7.42323C99.4537 7.10586 100.016 6.91895 100.621 6.91895H105.325C106.89 6.91895 108.164 8.16622 108.164 9.69962V14.515C108.164 16.0484 106.89 17.2972 105.325 17.2972H102.973H100.622V17.2973Z" fill="white"/>
<path d="M10.6764 107.244C9.11035 107.244 7.8364 105.995 7.8364 104.461V99.646C7.8364 99.167 7.96094 98.7161 8.17899 98.3216C8.38957 97.942 8.68763 97.6157 9.04662 97.3695C9.50773 97.0521 10.0698 96.8652 10.6749 96.8652H15.3791C16.9437 96.8652 18.2177 98.1125 18.2177 99.6459V104.461C18.2177 105.995 16.9438 107.244 15.3791 107.244H13.027H10.6764V107.244Z" fill="white"/>
</svg>
